<?xml version="1.0" standalone="no"?>
<!DOCTYPE svg PUBLIC "-//W3C//DTD SVG 1.1//EN" "http://www.w3.org/Graphics/SVG/1.1/DTD/svg11.dtd" >
<svg>
<metadata>
Created by FontForge 20090622 at Tue Nov 15 17:23:16 2016
 By deploy user
Copyright (c) 2015-2016 Belleve Invis.
</metadata>
<defs>
<font id="Iosevka-Term" horiz-adv-x="500" >
  <font-face 
    font-family="Iosevka Term"
    font-weight="400"
    font-stretch="normal"
    units-per-em="1000"
    panose-1="2 0 5 9 0 0 0 0 0 0"
    ascent="800"
    descent="-200"
    x-height="530"
    cap-height="735"
    bbox="-789 -505 3948 1189"
    underline-thickness="50"
    underline-position="-25"
    unicode-range="U+000D-U+FF64"
  />
<missing-glyph 
d="M60 0v735h380v-735h-380zM132 72h236v591h-236v-591z" />
    <glyph glyph-name=".notdef" 
d="M60 0v735h380v-735h-380zM132 72h236v591h-236v-591z" />
    <glyph glyph-name="uni000D" unicode="&#xd;" 
 />
    <glyph glyph-name="space" unicode=" " 
 />
    <glyph glyph-name="exclam" unicode="!" 
d="M180 62.5q0 22.5 9 38.5q8 14 22 23q16 9 39 9t39 -9q14 -8 22 -23q9 -16 9 -38.5t-9 -38.5q-8 -14 -22 -23q-16 -9 -39 -9t-39 9q-14 8 -22 23q-9 16 -9 38.5zM210 260v475h80v-475h-80z" />
    <glyph glyph-name="quotedbl" unicode="&#x22;" 
d="M106 772h88q0 -162 -6 -322h-76q-6 161 -6 322zM306 772h88q0 -162 -6 -322h-76q-6 161 -6 322z" />
    <glyph glyph-name="numbersign" unicode="#" 
d="M60 151v72h74v284h-74v72h74v247h80v-247h72v247h80v-247h74v-72h-74v-284h74v-72h-74v-247h-80v247h-72v-247h-80v247h-74zM214 223h72v284h-72v-284z" />
    <glyph glyph-name="dollar" unicode="$" 
d="M55 153v2l79 11v-7q0 -24 12 -45q13 -22 35 -34q27 -16 66 -16q36 0 61 15q23 13 37 36q15 27 15 60t-18 65q-25 44 -107 89q-111 63 -146 125q-29 50 -29 105q0 54 25 97q22 39 62 61q28 16 63 23v98h80v-97q93 -12 134 -83q21 -36 21 -76v-2l-79 -11v7q0 24 -12 45
q-13 22 -35 34q-27 16 -66 16q-36 0 -61 -15q-23 -13 -37 -36q-15 -27 -15 -60t18 -65q25 -44 107 -89q111 -63 146 -125q29 -50 29 -105q0 -54 -25 -97q-22 -39 -62 -61q-28 -16 -63 -23v-97h-80v96q-93 12 -134 83q-21 36 -21 76z" />
    <glyph glyph-name="percent" unicode="%" 
d="M60 0h88l292 735h-88zM60 514v221h114v-221h-114zM326 0v220h114v-220h-114z" />
    <glyph glyph-name="ampersand" unicode="&#x26;" 
d="M52 188q0 56 30 107q21 36 72 81q-15 21 -26 40q-49 85 -49 162q0 53 23 93q19 33 51 52q35 20 83 20t82 -20q32 -19 52 -52q23 -40 23 -91q0 -54 -30 -105q-26 -46 -103 -107q30 -37 69 -81l39 -45v126h80v-173q0 -31 -6 -58q36 -69 36 -137h-80q0 23 -5 46
q-16 -16 -36 -28q-45 -26 -107 -26t-107 26q-40 23 -64 64q-27 47 -27 106zM132 187q0 -39 17 -69q14 -25 39 -39q26 -15 62 -15q35 0 61 15q33 19 47 56q-28 45 -99 119l-59 65q-32 -30 -46 -54q-22 -38 -22 -78zM159 578q0 -55 39 -122q7 -13 18 -29q55 46 75 79
q21 37 22 74q0 31 -14 55q-10 17 -26 27q-16 9 -37 9t-37 -9t-26 -27q-14 -24 -14 -57z" />
    <glyph glyph-name="quotesingle" unicode="'" 
d="M206 772h88q0 -162 -6 -322h-76q-6 161 -6 322z" />
    <glyph glyph-name="parenleft" unicode="(" 
d="M117 365q0 235 103 413q37 65 87 120l60 -48q-43 -49 -76 -105q-94 -163 -94 -380t94 -380q32 -56 76 -105l-60 -48q-50 56 -87 120q-103 178 -103 413z" />
    <glyph glyph-name="parenright" unicode=")" 
d="M133 -120q43 49 76 105q94 163 94 380t-94 380q-32 56 -76 105l60 48q50 -56 87 -120q103 -178 103 -413t-103 -413q-37 -65 -87 -120z" />
    <glyph glyph-name="asterisk" unicode="*" 
d="M38 666l25 69l153 -56l-6 167h80l-6 -167l153 56l25 -69l-161 -46l105 -133l-65 -43l-91 136l-91 -136l-65 43l105 133z" />
    <glyph glyph-name="plus" unicode="+" 
d="M60 329v72h150v173h80v-173h150v-72h-150v-173h-80v173h-150z" />
    <glyph glyph-name="comma" unicode="," 
d="M166 -164q17 23 30 46q32 55 45 110q-40 3 -59 35q-10 18 -10 43t10 43q9 16 25 25q18 10 43 10t43 -10q16 -9 25 -25q10 -18 10 -43q0 -110 -64 -220q-16 -27 -35 -55z" />
    <glyph glyph-name="hyphen" unicode="-" 
d="M60 329v72h380v-72h-380z" />
    <glyph glyph-name="period" unicode="." 
d="M172 70q0 25 10 43q9 16 25 25q18 10 43 10t43 -10q16 -9 25 -25q10 -18 10 -43t-10 -43q-9 -16 -25 -25q-18 -10 -43 -10t-43 10q-16 9 -25 25q-10 18 -10 43z" />
    <glyph glyph-name="slash" unicode="/" 
d="M60 -168l296 1066h84l-296 -1066h-84z" />
    <glyph glyph-name="zero" unicode="0" 
d="M52 220v295q0 81 32 136q25 44 67 68t99 24t99 -24q41 -24 67 -68q32 -55 32 -136v-295q0 -81 -32 -136q-19 -33 -47 -55q-9 -7 -20 -13q-42 -24 -99 -24t-99 24q-41 24 -67 68q-32 55 -32 136zM132 278l229 296q-6 23 -16 41q-16 28 -41 43q-23 13 -54 13t-54 -13
q-25 -14 -41 -43q-23 -40 -23 -100v-237zM139 161q6 -23 16 -41q16 -28 41 -43q23 -13 54 -13t54 13q25 14 41 43q23 40 23 100v237z" />
    <glyph glyph-name="one" unicode="1" 
d="M68 619l172 116h80v-735h-80v645l-128 -86z" />
    <glyph glyph-name="two" unicode="2" 
d="M55 580q5 40 25 74q23 40 63 64q44 25 105.5 25t105.5 -25q40 -23 63 -64q27 -47 27 -105q0 -60 -33 -117q-29 -51 -117 -125q-86 -73 -116 -127q-25 -43 -34 -108h296v-72h-380v1q0 137 43 212q35 61 129 137q80 65 107 110q25 44 25 89q0 39 -17 69q-14 25 -38 38
q-25 15 -61 15q-34 0 -59 -15q-24 -14 -39 -39q-13 -23 -17 -51z" />
    <glyph glyph-name="three" unicode="3" 
d="M47 155l78 17q4 -27 17 -49q16 -28 42 -43q28 -16 65 -16q38 0 66 16q26 15 42 42q19 34 19 76t-20 78q-20 34 -54 53q-42 24 -123 25v72q77 0 116 22q31 18 48 47t17 64q0 34 -16 62q-13 23 -35 36q-24 14 -58 14q-33 0 -57 -14q-23 -13 -36 -36t-16 -52l-79 11
q4 42 24 78q22 38 61 60q43 25 103 25t103 -25q38 -22 61 -60q26 -44 25 -98q0 -49 -23.5 -90t-66.5 -66q-14 -8 -32 -14q21 -7 38 -17q47 -27 73 -73q27 -47 27 -103q0 -61 -29 -111q-25 -43 -67 -67q-46 -27 -110.5 -27t-110.5 27q-42 24 -67 67q-18 32 -25 69z" />
    <glyph glyph-name="four" unicode="4" 
d="M52 222v72l224 441h98v-441h66v-72h-66v-222h-80v222h-242zM131 294h163v318z" />
    <glyph glyph-name="five" unicode="5" 
d="M55 155l74 27q6 -33 22 -60q17 -30 43 -45q23 -13 53 -13t53 13q25 15 42 44q26 45 26 115q0 71 -26 115q-17 29 -41 43q-22 12 -50 12q-29 0 -51 -12q-25 -14 -42 -44q-11 -19 -17 -42l-71 32v395h351v-72h-271v-212q4 2 7 4q40 23 94 23t95 -23q41 -24 67 -69
q35 -61 35 -151q0 -89 -35 -149q-26 -46 -68 -70t-97.5 -24t-97.5 24t-68 70q-18 32 -27 69z" />
    <glyph glyph-name="six" unicode="6" 
d="M52 220v2q0 207 75 336q54 93 143 144q35 20 73 33l25 -69q-27 -10 -52 -23q-74 -43 -118 -120q-24 -42 -40 -94q40 20 92 20q57 0 99 -24q41 -24 67 -68q32 -55 32 -136v-1q0 -81 -32 -136q-19 -33 -47 -55q-9 -7 -20 -13q-42 -24 -99 -24t-99 24q-41 24 -67 68
q-32 55 -32 136zM132 220q0 -61 23 -100q16 -28 41 -43q23 -13 54 -13t54 13q25 14 41 43q23 40 23 100v1q0 61 -23 100q-16 28 -41 43q-23 13 -54 13t-54 -13q-25 -14 -41 -43q-23 -39 -23 -99v-2z" />
    <glyph glyph-name="seven" unicode="7" 
d="M60 663v72h380v-72l-231 -663h-85l231 663h-295z" />
    <glyph glyph-name="eight" unicode="8" 
d="M52 173q0 52 28 102q28 47 106 102q-65 48 -90 91q-28 49 -28 101q0 51 23 92q21 36 58 58q42 24 101 24t101 -24q37 -21 58 -58q24 -41 23 -92q0 -52 -28 -101q-25 -43 -90 -91q78 -55 106 -102q28 -49 28 -102q0 -51 -24 -93q-22 -38 -61 -61q-46 -27 -112.5 -27
t-113.5 27q-39 23 -61 61q-24 42 -24 93zM132 173q0 -31 14 -57q13 -23 37 -36q28 -16 67 -16t67 16q24 14 37 36q14 25 14 57q0 35 -20 69q-24 42 -98 91q-74 -49 -98 -91q-20 -34 -20 -69zM148 569q0 -35 20 -69q21 -37 82 -80q61 43 82 80q20 34 20 69q0 31 -14 56
q-12 21 -33 33q-23 13 -55 13t-55 -13q-21 -12 -33 -33q-14 -24 -14 -56z" />
    <glyph glyph-name="nine" unicode="9" 
d="M52 496v19q0 81 32 136q25 44 67 68t99 24q56 0 97 -24q42 -24 67 -68q34 -58 34 -145v-249q0 -102 -39 -170q-27 -48 -70 -72q-40 -23 -93.5 -23t-93.5 23q-43 25 -70 72q-18 31 -27 68l72 32q8 -36 23 -63q18 -32 45 -47q22 -13 51 -13q28 0 49 12q25 15 43 46
q30 51 30 135v77q-21 -32 -50 -49t-71 -17q-54 0 -97 25q-41 24 -66 67q-32 55 -32 136zM132 496q0 -61 23 -100q16 -28 41 -42q23 -13 53 -14q31 0 55 14q25 15 41 43q23 39 23 99v10q0 67 -25 109q-17 29 -41 43q-22 13 -52 13t-54 -13q-25 -14 -41 -43q-23 -40 -23 -100
v-19z" />
    <glyph glyph-name="colon" unicode=":" 
d="M172 70q0 25 10 43q9 16 25 25q18 10 43 10t43 -10q16 -9 25 -25q10 -18 10 -43t-10 -43q-9 -16 -25 -25q-18 -10 -43 -10t-43 10q-16 9 -25 25q-10 18 -10 43zM172 460q0 25 10 43q9 16 25 25q18 10 43 10t43 -10q16 -9 25 -25q10 -18 10 -43t-10 -43q-9 -16 -25 -25
q-18 -10 -43 -10t-43 10q-16 9 -25 25q-10 18 -10 43z" />
    <glyph glyph-name="semicolon" unicode=";" 
d="M166 -164q17 23 30 46q32 55 45 110q-40 3 -59 35q-10 18 -10 43t10 43q9 16 25 25q18 10 43 10t43 -10q16 -9 25 -25q10 -18 10 -43q0 -110 -64 -220q-16 -27 -35 -55zM172 460q0 25 10 43q9 16 25 25q18 10 43 10t43 -10q16 -9 25 -25q10 -18 10 -43t-10 -43
q-9 -16 -25 -25q-18 -10 -43 -10t-43 10q-16 9 -25 25q-10 18 -10 43z" />
    <glyph glyph-name="less" unicode="&#x3c;" 
d="M60 321v88l357 252l46 -59l-340 -237l340 -237l-46 -59z" />
    <glyph glyph-name="equal" unicode="=" 
d="M60 212v72h380v-72h-380zM60 446v72h380v-72h-380z" />
    <glyph glyph-name="greater" unicode="&#x3e;" 
d="M37 128l340 237l-340 237l46 59l357 -252v-88l-357 -252z" />
    <glyph glyph-name="question" unicode="?" 
d="M55 580v2q0 40 21 77t58 57q46 27 113 27q64 0 109 -26q38 -22 60 -60q24 -41 24 -92q0 -58 -32 -112q-15 -27 -55 -74q-28 -34 -40 -54q-23 -40 -23 -104l-80 -1q0 87 31 140q15 25 52 71q32 38 45 60q22 39 22 76q0 30 -14 54q-13 22 -35 35q-26 15 -64 15
q-40 0 -67 -16q-22 -13 -34 -34t-12 -44v-7zM180 62.5q0 22.5 9 38.5q8 14 22 23q16 9 39 9t39 -9q14 -8 22 -23q9 -16 9 -38.5t-9 -38.5q-8 -14 -22 -23q-16 -9 -39 -9t-39 9q-14 8 -22 23q-9 16 -9 38.5z" />
    <glyph glyph-name="at" unicode="@" 
d="M60 27v676q0 68 28 116q23 40 62 63q42 24 100 24t100 -24q39 -23 62 -63q28 -48 28 -116v-526q0 -52 -20 -87q-15 -26 -39 -40q-23 -13 -54 -13q-34 0 -60 15q-25 15 -41 41q-20 34 -19 84v323q0 49 19 83q33 57 102 57h32v63q0 47 -19 80q-14 25 -37 38t-54 13
t-54 -13.5t-37 -37.5q-19 -32 -19 -80v-676q0 -47 19 -80q14 -25 37 -37q23 -14 54 -14h154v-72h-154q-58 0 -101 25q-39 22 -61 62q-28 48 -28 116zM287 177q0 -40 18 -58q10 -10 22 -10q10 0 16 7q17 17 17 61v391h-32q-14 0 -23 -10q-18 -18 -18 -58v-323z" />
    <glyph glyph-name="A" unicode="A" 
d="M60 0v74q0 200 150 661h80q150 -461 150 -661v-74h-80v74q0 51 -9 119h-202q-9 -69 -9 -119v-74h-80zM160 265h180q-27 154 -90 379q-63 -225 -90 -379z" />
    <glyph glyph-name="B" unicode="B" 
d="M60 0v735h175q56 0 97 -24q37 -21 60 -60q26 -46 26 -109q0 -56 -23 -96t-65 -61q63 -23 94 -78q24 -41 24 -99q0 -65 -27 -112q-25 -43 -67 -68q-49 -28 -119 -28h-175zM140 72h95q42 0 72 17q27 15 43 43q18 32 18 77t-18 77q-16 28 -43 43q-30 17 -72 17h-95v-274z
M140 418h95q58 0 86 48q17 30 17 75q0 44 -17 74q-28 48 -86 48h-95v-245z" />
    <glyph glyph-name="C" unicode="C" 
d="M52 195v345q0 66 27 114q23 40 64 63q45 26 107 26t107 -26q40 -23 63 -64q19 -34 25 -73l-78 -14q-3 28 -17 50q-15 26 -39 40q-26 15 -61 15t-61 -15q-24 -14 -39 -39q-18 -32 -18 -77v-345q0 -45 18 -77q15 -25 39 -39q26 -15 61 -15t61 15q25 14 39 40q13 23 17 50
l78 -14q-5 -40 -25 -73q-23 -41 -63 -64q-45 -26 -107 -26t-107 26q-40 23 -64 63q-27 47 -27 114z" />
    <glyph glyph-name="D" unicode="D" 
d="M60 0v735h166q63 0 110 -27q46 -26 75 -77q37 -65 37 -159v-209q0 -95 -37 -159q-29 -50 -75 -77q-48 -28 -110 -27h-166zM140 72h86q37 0 65 16q30 17 49 51q28 49 28 124v209q0 75 -28 124q-20 34 -49 51q-29 16 -65 16h-86v-591z" />
    <glyph glyph-name="E" unicode="E" 
d="M90 0v735h350v-72h-270v-230h213v-72h-213v-289h270v-72h-350z" />
    <glyph glyph-name="F" unicode="F" 
d="M90 0v735h350v-72h-270v-230h213v-72h-213v-361h-80z" />
    <glyph glyph-name="G" unicode="G" 
d="M52 195v345q0 66 27 114q23 40 64 63q45 26 107 26t107 -26q40 -23 63 -64q19 -34 25 -73l-78 -14q-3 28 -17 50q-15 26 -39 40q-26 15 -61 15t-61 -15q-24 -14 -39 -39q-18 -32 -18 -77v-345q0 -45 18 -77q15 -25 39 -39q26 -15 60 -15q32 0 55 13.5t37 37.5
q19 32 19 80v133h-110v72h190v-205q0 -68 -28 -116q-23 -40 -62 -63q-42 -24 -101 -24q-62 0 -106 26q-40 23 -64 64q-27 47 -27 113z" />
    <glyph glyph-name="H" unicode="H" 
d="M60 0v735h80v-313h220v313h80v-735h-80v350h-220v-350h-80z" />
    <glyph glyph-name="I" unicode="I" 
d="M110 0v72h100v591h-100v72h280v-72h-100v-591h100v-72h-280z" />
    <glyph glyph-name="J" unicode="J" 
d="M40 155l78 15q3 -30 18 -55q14 -25 37 -38t53.5 -13t52.5 13q23 13 37 38q19 32 19 80v468h-135v72h215v-540q0 -68 -28 -117q-23 -40 -62 -62q-42 -24 -99 -24t-99 24q-39 22 -62 62q-20 35 -25 77z" />
    <glyph glyph-name="K" unicode="K" 
d="M60 0v735h80v-340q115 126 176 232q40 70 40 108h84q0 -45 -48 -128q-41 -71 -102 -151q158 -341 158 -456h-80q0 102 -133 389q-43 -51 -95 -105v-284h-80z" />
    <glyph glyph-name="L" unicode="L" 
d="M90 0v735h80v-663h278v-72h-358z" />
    <glyph glyph-name="M" unicode="M" 
d="M60 0v735h88l102 -396l102 396h88v-735h-80v147q0 137 10 294q5 80 7 154l-97 -375h-60l-97 375q2 -74 7 -154q10 -157 10 -294v-147h-80z" />
    <glyph glyph-name="N" unicode="N" 
d="M60 0v735h111l192 -601q-3 272 -3 307v294h80v-735h-111l-192 601q3 -279 3 -307v-294h-80z" />
    <glyph glyph-name="O" unicode="O" 
d="M52 195v345q0 66 27 113q23 40 64 64q45 26 107 26t107 -26q40 -23 64 -64q27 -47 27 -113v-345q0 -66 -27 -113q-23 -40 -64 -64q-45 -26 -107 -26t-107 26q-40 23 -64 64q-27 47 -27 113zM132 195q0 -45 18 -77q15 -25 39 -39q26 -15 61 -15t61 15q25 14 39 39
q18 31 18 77v345q0 45 -18 77q-15 25 -39 39q-26 15 -61 15t-61 -15q-25 -14 -39 -39q-18 -31 -18 -77v-345z" />
    <glyph glyph-name="P" unicode="P" 
d="M75 0v735h176q60 0 105 -25q40 -23 64 -65q28 -49 28 -119.5t-28 -119.5q-24 -42 -64 -65q-44 -25 -105 -26h-96v-315h-80zM155 387h96q66 0 98 55q19 34 19 83.5t-19 82.5q-31 55 -98 55h-96v-276z" />
    <glyph glyph-name="Q" unicode="Q" 
d="M52 195v345q0 66 27 113q23 40 64 64q45 26 107 26t107 -26q40 -23 64 -64q27 -47 27 -113v-345q0 -66 -27 -113q-23 -40 -64 -64q-17 -10 -36 -16l37 -149h-80l-36 139q-57 2 -99 26q-40 23 -64 64q-27 47 -27 113zM132 195q0 -45 18 -77q15 -25 39 -39q26 -15 61 -15
t61 15q25 14 39 39q18 31 18 77v345q0 45 -18 77q-15 25 -39 39q-26 15 -61 15t-61 -15q-25 -14 -39 -39q-18 -31 -18 -77v-345z" />
    <glyph glyph-name="R" unicode="R" 
d="M60 0v735h191q60 0 105 -25q40 -23 64 -65q28 -49 28 -119.5t-28 -119.5q-24 -42 -64 -65q-18 -10 -39 -17q27 -40 50 -78q81 -141 81 -246h-80q0 90 -69 210q-29 51 -70 105h-89v-315h-80zM140 387h111q66 0 98 55q19 34 19 83.5t-19 82.5q-31 55 -98 55h-111v-276z" />
    <glyph glyph-name="S" unicode="S" 
d="M55 153v2l79 11v-7q0 -24 12 -45q13 -22 35 -34q27 -16 66 -16q36 0 61 15q23 13 37 36q16 27 15 60q0 33 -18 65q-25 44 -107 89q-111 63 -146 125q-29 50 -29 105q0 54 25 97q22 39 62 61q44 26 106 26q66 0 113 -27q37 -22 58 -58t21 -76v-2l-79 -11v7q0 24 -12 45
q-13 22 -35 34q-27 16 -66 16q-36 0 -61 -15q-23 -13 -37 -36q-16 -27 -15 -60q0 -33 18 -65q25 -44 107 -89q111 -63 146 -125q29 -50 29 -105q0 -54 -25 -97q-22 -39 -62 -61q-44 -26 -106 -26q-66 0 -113 27q-37 22 -58 58t-21 76z" />
    <glyph glyph-name="T" unicode="T" 
d="M60 663v72h380v-72h-150v-663h-80v663h-150z" />
    <glyph glyph-name="U" unicode="U" 
d="M60 195v540h80v-540q0 -47 19 -80q14 -25 37 -38t54 -13t54 13.5t37 37.5q19 32 19 80v540h80v-540q0 -68 -28 -116q-23 -40 -62 -63q-42 -24 -100 -24t-100 24q-39 23 -62 63q-28 48 -28 116z" />
    <glyph glyph-name="V" unicode="V" 
d="M60 662v73h80v-73q0 -178 110 -571q110 393 110 571v73h80v-73q0 -200 -150 -662h-80q-150 462 -150 662z" />
    <glyph glyph-name="W" unicode="W" 
d="M60 551v184h80v-184q0 -134 24 -410l61 300h50l61 -300q24 276 24 410v184h80v-184q0 -167 -77 -551h-51l-62 313l-62 -313h-51q-77 384 -77 551z" />
    <glyph glyph-name="X" unicode="X" 
d="M60 0v37q0 93 55 189q5 9 11 18l78 124l-78 123q-6 9 -11 18q-55 96 -55 189v37h80v-37q0 -83 54 -168l56 -90l56 90q54 85 54 168v37h80v-37q0 -93 -55 -189q-5 -9 -11 -18l-78 -123l78 -124q6 -9 11 -18q55 -96 55 -189v-37h-80v37q0 83 -54 168l-56 90l-56 -90
q-54 -85 -54 -168v-37h-80z" />
    <glyph glyph-name="Y" unicode="Y" 
d="M60 691v44h80v-44q0 -103 55 -209l55 -104l55 104q55 106 55 209v44h80v-44q0 -119 -65 -242l-85 -163v-286h-80v286l-85 163q-65 123 -65 242z" />
    <glyph glyph-name="Z" unicode="Z" 
d="M60 0v72l288 591h-288v72h380v-72l-288 -591h288v-72h-380z" />
    <glyph glyph-name="bracketleft" unicode="[" 
d="M117 -168v1066h285v-72h-205v-922h205v-72h-285z" />
    <glyph glyph-name="backslash" unicode="\" 
d="M60 898l296 -1066h84l-296 1066h-84z" />
    <glyph glyph-name="bracketright" unicode="]" 
d="M98 -96h205v922h-205v72h285v-1066h-285v72z" />
    <glyph glyph-name="asciicircum" unicode="^" 
d="M54 584l154 194h84l154 -194l-67 -46l-129 181l-129 -181z" />
    <glyph glyph-name="underscore" unicode="_" 
d="M60 0v72h380v-72h-380z" />
    <glyph glyph-name="grave" unicode="`" 
d="M90 734l66 52l171 -207l-54 -43z" />
    <glyph glyph-name="a" unicode="a" 
d="M52 149q0 46 19 78q20 35 60 58q55 32 138 32h91v46q0 31 -13 54q-12 21 -34 34q-27 15 -66 15q-40 0 -66 -16q-22 -12 -35 -34q-9 -16 -11 -34l-77 18q4 28 18 53q21 37 58 59q46 26 113 26q66 0 113 -27q38 -22 58 -57q22 -38 22 -91v-363h-80v74q-23 -38 -60 -59
q-40 -23 -94 -23q-49 0 -83 20q-31 18 -50 50q-21 37 -21 87zM132 149q0 -49 40 -71q24 -14 59 -14q40 0 69 17q27 15 42 42q18 31 18 75v47h-91q-56 0 -92 -20q-23 -13 -35 -34q-10 -18 -10 -42z" />
    <glyph glyph-name="b" unicode="b" 
d="M60 0v735h80v-281q2 3 3 6q23 40 58 60q32 18 74 18q45 0 79 -20q37 -21 61 -62q33 -58 33 -146v-90q0 -88 -33 -146q-24 -41 -61 -62q-34 -20 -79 -20q-42 0 -74 18q-35 20 -58 60q-2 3 -3 6v-76h-80zM140 220q0 -63 23 -104q15 -27 39 -40q21 -12 49 -12q30 0 53 13
q25 14 41 43q23 40 23 100v90q0 61 -23 100q-16 28 -41 43q-23 13 -53 13q-28 0 -49 -12q-23 -13 -39 -40q-23 -40 -23 -104v-90z" />
    <glyph glyph-name="c" unicode="c" 
d="M52 220v90q0 80 32 136q25 44 67 67q43 25 100.5 25t100.5 -25q42 -24 67 -67q19 -32 26 -71l-76 -22q-5 31 -20 56q-16 28 -42 43q-24 14 -56 14q-31 0 -55 -14q-25 -15 -41 -42q-23 -40 -23 -100v-90q0 -60 23 -100q16 -28 41 -42q24 -14 55 -14q32 0 56 14
q26 15 42 43q14 25 20 56l76 -22q-7 -38 -26 -71q-25 -44 -67 -67q-43 -25 -101 -25t-100 25q-42 24 -67 67q-32 56 -32 136z" />
    <glyph glyph-name="d" unicode="d" 
d="M52 220v90q0 88 33 146q24 41 61 62q34 20 79 20q42 0 74 -18q35 -20 58 -60q2 -3 3 -6v281h80v-735h-80v76q-2 -3 -3 -6q-23 -40 -58 -60q-32 -18 -74 -18q-45 0 -79 20q-37 21 -61 62q-33 58 -33 146zM132 220q0 -61 23 -100q16 -28 41 -43q23 -13 53 -13q28 0 49 12
q23 13 39 40q23 40 23 104v90q0 63 -23 104q-15 27 -39 40q-21 12 -49 12q-30 0 -53 -13q-25 -14 -41 -43q-23 -40 -23 -100v-90z" />
    <glyph glyph-name="e" unicode="e" 
d="M52 220v90q0 81 32 136q25 44 67 68t99 24t99 -24q41 -24 67 -68q32 -55 32 -136v-81h-316v-9q0 -58 23 -97q17 -29 42 -44t60 -15t60 15q27 15 44 44q10 16 15 36l73 -29q-7 -23 -19 -43q-26 -44 -68 -69q-36 -20 -82 -25q-11 -1 -23 -1q-61 0 -105 26q-42 25 -68 68
q-32 55 -32 134zM132 301h236v9q0 61 -23 100q-16 28 -41 43q-23 13 -54 13t-54 -13q-25 -14 -41 -43q-23 -40 -23 -100v-9z" />
    <glyph glyph-name="f" unicode="f" 
d="M60 428v72h113v95q0 57 23 97q18 31 48 49q31 18 73.5 18t74.5 -18q30 -17 48 -49q15 -26 20 -57l-77 -19q-3 23 -13 40q-9 16 -23 24q-12 7 -29 7q-16 0 -28 -7q-14 -8 -23 -24q-14 -24 -14 -61v-95h168v-72h-168v-428h-80v428h-113z" />
    <glyph glyph-name="g" unicode="g" 
d="M43 -45q0 42 18 73q15 25 39 43q-9 9 -15 20q-13 23 -13 50t14 52q11 19 27 32q-24 19 -39 45q-22 39 -22 92.5t22 91.5q21 36 59 58q45 26 108 26q36 0 65 -8h157v-72l-59 2l4 -6q22 -39 22 -92t-22 -92q-21 -36 -59 -58q-45 -26 -108 -25q-39 0 -71 9q-8 -4 -13 -10
q-14 -14 -14 -32t13 -30q17 -17 63 -19h56q68 0 114 -27q34 -20 52 -50q18 -31 18 -74q0 -44 -20 -79t-60 -58q-52 -30 -129 -30t-128 30q-39 22 -59 57t-20 81zM123 -45q0 -25 11 -44q12 -20 34 -33q32 -19 82 -19t83 19q23 13 35 33q11 19 11 42q0 22 -10 38q-9 16 -27 26
q-27 16 -67 16h-55q-35 0 -60 -15q-18 -11 -28 -27q-9 -15 -9 -36zM132 362q0 -32 13 -55q12 -21 34 -34q25 -15 61.5 -14.5t62.5 14.5q22 13 34 34q13 23 13 55t-13 55q-12 21 -34 34t-50 15h-12q-36 0 -62 -15q-22 -13 -34 -34q-13 -23 -13 -55z" />
    <glyph glyph-name="h" unicode="h" 
d="M60 0v735h80v-281q2 3 3 6q23 40 58 60q32 18 74 18t73 -18q35 -20 58 -60q34 -59 34 -150v-310h-80v310q0 63 -23 104q-15 27 -39 40q-21 12 -48 12t-48 -12q-23 -13 -39 -40q-23 -40 -23 -104v-310h-80z" />
    <glyph glyph-name="i" unicode="i" 
d="M75 0v72h142v386h-128v72h208v-458h128v-72h-350zM188 685q0 20 8 34q7 13 20 20q14 8 34 8.5t34 -8.5q13 -7 20 -20q8 -14 8 -34t-8 -34q-7 -13 -20 -20q-14 -9 -34 -9t-34 9q-13 7 -20 20q-8 14 -8 34z" />
    <glyph glyph-name="j" unicode="j" 
d="M13 -70l76 24q5 -28 17 -50q13 -23 33 -35q18 -10 41 -10t41 10q20 11 32 34q20 34 20 87v468h-135v72h215v-540q0 -73 -29 -123q-22 -38 -58 -59t-85.5 -21t-85.5 21t-59 59q-16 29 -23 63zM237 685q0 20 8 34q7 13 20 20q14 8 34.5 8.5t34.5 -8.5q13 -7 20 -20
q8 -14 8 -34t-8 -34q-7 -13 -20 -20q-14 -9 -34 -9t-35 9q-13 7 -20 20q-8 14 -8 34z" />
    <glyph glyph-name="k" unicode="k" 
d="M60 0v735h80v-438q158 118 204 198q12 21 12 35h84q0 -19 -17 -48q-38 -66 -131 -152q34 -54 62 -103q94 -163 94 -227h-80q0 52 -71 176q-27 48 -64 103l-93 -74v-205h-80z" />
    <glyph glyph-name="l" unicode="l" 
d="M75 0v72h142v591h-128v72h208v-663h128v-72h-350z" />
    <glyph glyph-name="m" unicode="m" 
d="M52 0v530h80v-34q13 23 32 34q14 8 32 8q19 0 34 -9q19 -11 33 -35q8 -13 13 -29q6 17 14 31q13 23 32 34q14 8 32 8q19 0 34 -9q19 -11 33 -35q27 -47 27 -129v-365h-80v365q0 71 -23 94q-7 7 -16 7t-16 -7q-23 -23 -23 -94v-365h-80v365q0 71 -23 94q-7 7 -16 7t-16 -7
q-23 -23 -23 -94v-365h-80z" />
    <glyph glyph-name="n" unicode="n" 
d="M60 0v530h80v-76q2 3 3 6q23 40 58 60q32 18 74 18t73 -18q35 -20 58 -60q34 -59 34 -150v-310h-80v310q0 63 -23 104q-15 27 -39 40q-21 12 -48 12t-48 -12q-23 -13 -39 -40q-23 -40 -23 -104v-310h-80z" />
    <glyph glyph-name="o" unicode="o" 
d="M52 220v90q0 81 32 136q25 44 67 68t99 24t99 -24q41 -24 67 -68q32 -55 32 -136v-90q0 -81 -32 -136q-19 -33 -47 -55q-9 -7 -20 -13q-42 -24 -99 -24t-99 24q-41 24 -67 68q-32 55 -32 136zM132 220q0 -61 23 -100q16 -28 41 -43q23 -13 54 -13t54 13q25 14 41 43
q23 40 23 100v90q0 61 -23 100q-16 28 -41 43q-23 13 -54 13t-54 -13q-25 -14 -41 -43q-23 -40 -23 -100v-90z" />
    <glyph glyph-name="p" unicode="p" 
d="M60 -205v735h80v-76q2 3 3 6q23 40 58 60q32 18 74 18q45 0 79 -20q37 -21 61 -62q33 -58 33 -146v-90q0 -88 -33 -146q-24 -41 -61 -62q-34 -20 -79 -20q-42 0 -74 18q-35 20 -58 60q-2 3 -3 6v-281h-80zM140 220q0 -63 23 -104q15 -27 39 -40q21 -12 49 -12q30 0 53 13
q25 14 41 43q23 40 23 100v90q0 61 -23 100q-16 28 -41 43q-23 13 -53 13q-28 0 -49 -12q-23 -13 -39 -40q-23 -40 -23 -104v-90z" />
    <glyph glyph-name="q" unicode="q" 
d="M52 220v90q0 88 33 146q24 41 61 62q34 20 79 20q42 0 74 -18q35 -20 58 -60q2 -3 3 -6v76h80v-735h-80v281q-2 -3 -3 -6q-23 -40 -58 -60q-32 -18 -74 -18q-45 0 -79 20q-37 21 -61 62q-33 58 -33 146zM132 220q0 -61 23 -100q16 -28 41 -43q23 -13 53 -13q28 0 49 12
q23 13 39 40q23 40 23 104v90q0 63 -23 104q-15 27 -39 40q-21 12 -49 12q-30 0 -53 -13q-25 -14 -41 -43q-23 -40 -23 -100v-90z" />
    <glyph glyph-name="r" unicode="r" 
d="M120 0v530h80v-99q7 20 17 36q22 38 53 56q25 15 58 15q35 0 65 -17q31 -18 49 -49q9 -15 13 -32l-75 -34q-3 12 -9 23q-11 19 -28 29q-14 8 -32 8q-24 0 -43 -11q-23 -13 -39 -41q-29 -50 -29 -133v-281h-80z" />
    <glyph glyph-name="s" unicode="s" 
d="M57 110l75 24q3 -9 8 -18q13 -23 37 -36q28 -16 71 -16q47 0 77 17q19 11 28 27q8 14 8 32q0 19 -10 36q-10 18 -30 30q-24 14 -80 20q-70 8 -105 28q-36 21 -56 56q-21 36 -21 80q0 39 17 69q18 31 53 51q49 28 123 28q70 0 117 -27q38 -22 60 -60q9 -15 14 -31l-75 -24
q-3 9 -8 18q-13 23 -37 36q-28 16 -71 16q-47 0 -77 -17q-19 -11 -28 -27q-8 -14 -8 -32q0 -19 10 -36q10 -18 30 -30q24 -14 80 -20q70 -8 105 -28q36 -21 56 -56q21 -36 21 -80q0 -39 -17 -69q-18 -31 -53 -51q-49 -28 -123 -28q-70 0 -117 27q-38 22 -60 60q-9 15 -14 31
z" />
    <glyph glyph-name="t" unicode="t" 
d="M51 458v72h109v205h80v-205h161v-72h-161v-264q0 -55 20 -90q12 -21 30 -31q15 -9 35.5 -9t35.5 9q8 5 16 12q30 30 34 87l78 -17q-5 -48 -27 -85.5t-57 -57.5q-34 -20 -79.5 -20t-79.5 20q-35 20 -57 57q-29 50 -29 125v264h-109z" />
    <glyph glyph-name="u" unicode="u" 
d="M60 220v310h80v-310q0 -63 23 -104q15 -27 39 -40q21 -12 48 -12t48 12q23 13 39 40q23 40 23 104v310h80v-530h-80v76q-2 -3 -3 -6q-23 -40 -58 -60q-32 -18 -74 -18t-73 18q-35 20 -58 60q-34 59 -34 150z" />
    <glyph glyph-name="v" unicode="v" 
d="M60 477v53h80v-53q0 -127 110 -407q110 281 110 407v53h80v-53q0 -144 -150 -477h-80q-150 333 -150 477z" />
    <glyph glyph-name="w" unicode="w" 
d="M60 398v132h80v-132q0 -96 24 -295l61 215h50l61 -215q24 199 24 295v132h80v-132q0 -121 -77 -398h-51l-62 226l-62 -226h-51q-77 278 -77 398z" />
    <glyph glyph-name="x" unicode="x" 
d="M60 0v5q0 33 40 103q15 27 27 43l76 114l-76 114q-11 16 -27 43q-40 70 -40 103v5h80v-5q0 -26 53 -106l57 -84l57 84q53 79 53 106v5h80v-5q0 -33 -40 -103q-15 -27 -27 -43l-76 -114l76 -114q11 -16 27 -43q40 -70 40 -103v-5h-80v5q0 26 -53 106l-57 84l-57 -84
q-53 -79 -53 -106v-5h-80z" />
    <glyph glyph-name="y" unicode="y" 
d="M60 493v37h80v-37q0 -52 30 -140l79 -235l81 235q30 86 30 140v37h80v-37q0 -65 -34 -164l-158 -456q-8 -22 -8 -71v-7h-80v7q0 59 12 95l38 108l-116 324q-34 96 -34 164z" />
    <glyph glyph-name="z" unicode="z" 
d="M60 0v72l284 386h-284v72h380v-72l-284 -386h284v-72h-380z" />
    <glyph glyph-name="braceleft" unicode="{" 
d="M98 329v72q35 0 60 15q23 13 36 36q16 27 16 65v229q0 41 18 72.5t54 51.5q48 28 120 28v-72q-45 0 -74 -17q-19 -11 -29 -28q-9 -16 -9 -35v-229q0 -59 -25 -102q-17 -30 -44 -50q27 -20 44 -50q25 -43 25 -102v-229q0 -20 9 -35q10 -17 29 -28q29 -17 74 -17v-72
q-72 0 -120 28q-35 20 -53.5 51.5t-18.5 72.5v229q0 38 -16 65q-13 23 -36 36q-25 15 -60 15z" />
    <glyph glyph-name="bar" unicode="|" 
d="M210 -168v1066h80v-1066h-80z" />
    <glyph glyph-name="braceright" unicode="}" 
d="M98 -96q45 0 74 17q19 11 29 28q9 16 9 35v229q0 59 25 102q17 30 44 50q-27 20 -44 50q-25 43 -25 102v229q0 20 -9 35q-10 17 -29 28q-29 17 -74 17v72q72 0 120 -28q35 -20 53.5 -51.5t18.5 -72.5v-229q0 -38 16 -65q13 -23 36 -36q25 -15 60 -15v-72q-35 0 -60 -15
q-23 -13 -36 -36q-16 -27 -16 -65v-229q0 -41 -18 -72.5t-54 -51.5q-48 -28 -120 -28v72z" />
    <glyph glyph-name="asciitilde" unicode="~" 
d="M27 270q26 64 48 104q30 53 62 71q19 11 39 10q20 0 38 -10q28 -16 68 -81q24 -40 35 -51q3 -3 7 -6q17 12 37 46q21 37 46 99l66 -24q-26 -64 -48 -104q-30 -53 -62 -71q-19 -11 -39 -11t-38 11q-28 16 -68 80q-24 40 -35 52q-3 3 -7 5q-17 -12 -37 -46q-21 -37 -46 -98
z" />
    <glyph glyph-name="uni00A0" unicode="&#xa0;" 
 />
    <glyph glyph-name="exclamdown" unicode="&#xa1;" 
d="M180 467.5q0 22.5 9 38.5q8 14 22 23q16 9 39 9t39 -9q14 -8 22 -23q9 -16 9 -38.5t-9 -38.5q-8 -14 -22 -23q-16 -9 -39 -9t-39 9q-14 8 -22 23q-9 16 -9 38.5zM210 -205v475h80v-475h-80z" />
    <glyph glyph-name="cent" unicode="&#xa2;" 
d="M52 220v90q0 80 32 136q25 44 67 67q27 15 59 22v97h80v-97q34 -6 62 -22q42 -24 67 -67q19 -32 26 -71l-76 -22q-5 31 -20 56q-16 28 -42 43q-24 14 -56 14q-31 0 -55 -14q-25 -15 -41 -42q-23 -40 -23 -100v-90q0 -60 23 -100q16 -28 41 -42q24 -14 55 -14q32 0 56 14
q26 15 42 43q14 25 20 56l76 -22q-7 -38 -26 -71q-25 -44 -67 -67q-28 -16 -62 -22v-97h-80v97q-33 6 -59 22q-42 24 -67 67q-32 56 -32 136z" />
    <glyph glyph-name="sterling" unicode="&#xa3;" 
d="M60 0v72q28 22 47 54q29 50 29 145v83h-57v72h57v114q0 81 30 133q20 35 52 54q28 16 65.5 16t65.5 -16q31 -18 52 -54q18 -31 25 -70l-74 -28q-5 38 -19 63q-11 18 -25 27q-11 6 -24 6t-24 -6q-13 -8 -23 -25q-21 -36 -21 -100v-114h110v-72h-110v-83q0 -118 -35 -180
q-6 -10 -13 -19h272v-72h-380z" />
    <glyph glyph-name="currency" unicode="&#xa4;" 
d="M32 200l64 65q-25 41 -25 100t25 100l-64 65l56 50l62 -61q42 25 100.5 25t99.5 -25l62 61l56 -50l-64 -65q25 -42 25 -100.5t-25 -99.5l64 -65l-56 -50l-62 61q-42 -25 -100.5 -25t-99.5 25l-62 -61zM151 365.5q0 -36.5 15 -62.5q12 -21 32 -32q22 -13 52 -13t52 13
q20 12 32 32q15 25 15 61.5t-15 62.5q-12 21 -32 32q-22 13 -52 13t-52 -13q-20 -12 -32 -32q-15 -25 -15 -61.5z" />
    <glyph glyph-name="yen" unicode="&#xa5;" 
d="M60 691v44h80v-44q0 -103 55 -209l55 -104l55 104q55 106 55 209v44h80v-44q0 -119 -65 -242l-85 -163v-286h-80v286l-85 163q-65 123 -65 242zM60 148v72h380v-72h-380zM60 295v72h380v-72h-380z" />
    <glyph glyph-name="brokenbar" unicode="&#xa6;" 
d="M210 -168v487h80v-487h-80zM210 411v487h80v-487h-80z" />
    <glyph glyph-name="section" unicode="&#xa7;" 
d="M55 -13l78 15q3 -25 15 -46q14 -24 38 -37q25 -15 60 -15q36 0 61 15q23 13 37 37q16 28 16 61q0 32 -17 62q-21 36 -68 64q-15 9 -47 24q-40 19 -60 30q-57 33 -84 79q-24 42 -24 88q0 53 28 102q26 45 70 75q-47 30 -72 73q-26 46 -26 97q0 54 26 100q23 39 62 61
q44 26 106 26t106 -26q39 -23 62 -61q18 -31 23 -68l-78 -15q-3 25 -15 46q-14 24 -38 37q-25 15 -60 15q-36 0 -61 -15q-23 -13 -37 -37q-16 -28 -16 -61q0 -32 17 -62q21 -36 68 -64q15 -9 47 -24q40 -19 60 -30q57 -33 84 -79q24 -42 24 -88q0 -53 -28 -102
q-26 -45 -70 -75q47 -30 72 -73q26 -46 26 -97q0 -54 -26 -100q-23 -39 -62 -61q-44 -26 -106 -26t-106 26q-39 23 -62 61q-18 31 -23 68zM140 364q0 -30 15 -56q18 -32 59 -55q16 -10 46 -23q12 5 23 11q37 21 58 57q19 32 19 68q0 30 -15 56q-18 32 -59 55q-17 10 -46 23
q-12 -5 -23 -11q-37 -21 -58 -57q-19 -32 -19 -68z" />
    <glyph glyph-name="dieresis" unicode="&#xa8;" 
d="M288 685q0 20 8 34q7 13 20 20q14 8 34 8.5t34 -8.5q13 -7 20 -20q8 -14 8 -34t-8 -34q-7 -13 -20 -20q-14 -9 -34 -9t-34 9q-13 7 -20 20q-8 14 -8 34zM88 685q0 20 8 34q7 13 20 20q14 8 34 8.5t34 -8.5q13 -7 20 -20q8 -14 8 -34t-8 -34q-7 -13 -20 -20q-14 -9 -34 -9
t-34 9q-13 7 -20 20q-8 14 -8 34z" />
    <glyph glyph-name="copyright" unicode="&#xa9;" 
d="M28 218v294q0 75 31 127q26 45 71 72q50 29 120 29t120 -29q45 -26 71 -72q31 -53 31 -127v-294q0 -75 -31 -127q-26 -45 -71 -72q-50 -29 -120 -29t-120 29q-45 26 -71 72q-31 53 -31 127zM89 218q0 -58 24 -99q20 -34 53 -53q35 -20 84 -20.5t84 20.5q33 19 53 53
q24 41 24 99v294q0 58 -24 99q-20 34 -53 53q-35 21 -84 21t-84 -21q-33 -19 -53 -53q-24 -41 -24 -99v-294zM125 270v190q0 33 14 57q13 23 37 37q30 17 74 18q44 0 74 -18q24 -14 38 -37q9 -16 12 -35l-66 -15q-2 16 -14 28q-16 16 -44 16q-29 0 -44 -16q-13 -13 -14 -35
v-190q0 -22 14 -35q16 -16 44 -15q29 0 44 15q12 12 14 28l66 -15q-3 -18 -12 -34q-14 -24 -38 -38q-30 -17 -74 -17t-74 17q-24 14 -37 37q-14 24 -14 57z" />
    <glyph glyph-name="ordfeminine" unicode="&#xaa;" 
d="M90 473q0 31 14 54q15 26 44 44q45 26 117 26h59v25q0 11 -4 18q-6 10 -18 17q-20 12 -54 12q-30 0 -48 -11q-15 -9 -24 -25q-4 -6 -6 -12l-76 23q4 14 12 27q18 31 48 48q37 22 94 22q60 0 100 -23q28 -16 43 -42q13 -23 13 -54v-258h-80v46q-15 -21 -38 -34
q-30 -18 -71 -18q-42 0 -71 17q-25 14 -39 38q-15 26 -15 60zM117 220v51h266v-51h-266zM170 474q0 -10 5 -17q5 -9 16 -16q19 -11 50 -11q29 0 49 12q34 19 34 61v22h-59q-46 0 -71 -15q-13 -8 -19 -18q-5 -8 -5 -18z" />
    <glyph glyph-name="guillemotleft" unicode="&#xab;" 
d="M31 329v72q69 44 120 130q31 54 52 114l75 -27q-17 -40 -40 -78q-65 -113 -148 -175q83 -62 148 -175q22 -38 40 -78l-75 -27q-21 59 -52 114q-50 87 -120 130zM221 329v72q69 44 120 130q31 54 52 114l75 -27q-17 -40 -40 -78q-65 -113 -148 -175q83 -62 148 -175
q22 -38 40 -78l-75 -27q-21 59 -52 114q-50 87 -120 130z" />
    <glyph glyph-name="logicalnot" unicode="&#xac;" 
d="M60 329v72h380v-245h-80v173h-300z" />
    <glyph glyph-name="uni00AD" unicode="&#xad;" 
d="M60 329v72h380v-72h-380z" />
    <glyph glyph-name="registered" unicode="&#xae;" 
d="M28 218v294q0 75 31 127q26 45 71 72q50 29 120 29t120 -29q45 -26 71 -72q31 -53 31 -127v-294q0 -75 -31 -127q-26 -45 -71 -72q-50 -29 -120 -29t-120 29q-45 26 -71 72q-31 53 -31 127zM89 218q0 -58 24 -99q20 -34 53 -53q35 -20 84 -20.5t84 20.5q33 19 53 53
q24 41 24 99v294q0 58 -24 99q-20 34 -53 53q-35 21 -84 21t-84 -21q-33 -19 -53 -53q-24 -41 -24 -99v-294zM129 163v404h128q36 0 63 -15q24 -14 38 -39q17 -30 17 -72.5t-17 -71.5q-14 -25 -38 -39l-12 -6q18 -24 30 -47q37 -64 37 -114h-67q0 38 -28 86q-18 31 -47 66
h-36v-152h-68zM197 375h60q20 0 33 13q18 18 18 53t-18 52q-13 13 -33 13h-60v-131z" />
    <glyph glyph-name="macron" unicode="&#xaf;" 
d="M100 649v72h300v-72h-300z" />
    <glyph glyph-name="degree" unicode="&#xb0;" 
d="M129 654.5q0 38.5 16 66.5q14 25 38 39q28 16 67 16t67 -16q25 -14 38 -39q16 -28 16 -67t-16 -66q-14 -25 -38 -39q-28 -16 -67 -16t-67 16q-25 14 -38 39q-16 28 -16 66.5zM203 654.5q0 -21.5 12.5 -34.5t34.5 -13t34.5 13t12.5 34.5t-12.5 34t-34.5 12.5t-34.5 -12.5
t-12.5 -34z" />
    <glyph glyph-name="plusminus" unicode="&#xb1;" 
d="M60 329v72h150v173h80v-173h150v-72h-150v-173h-80v173h-150zM60 0v72h380v-72h-380z" />
    <glyph glyph-name="uni00B2" unicode="&#xb2;" 
d="M92 704q3 23 16 44q18 30 48 48q38 22 92 22q53 0 91 -21q31 -18 49 -49q19 -33 19 -73t-22 -78q-23 -40 -93 -92q-69 -51 -92 -90q-11 -19 -17 -45h221v-72h-308v1q0 96 30 149q27 46 104 100q63 45 83 77q14 25 14 50q0 20 -9 36q-9 15 -25 24q-19 11 -45 11
q-27 0 -46 -11q-15 -9 -24 -24q-7 -12 -8 -26z" />
    <glyph glyph-name="uni00B3" unicode="&#xb3;" 
d="M87 406l77 20q2 -13 8 -24q10 -17 26 -26q21 -12 51 -12t51 12q35 20 35 61q0 24 -12 46q-13 23 -36 35q-27 16 -79 16v72q48 0 74 15q21 12 32 32q10 17 10 35q0 22 -15 38q-20 20 -58 20q-37 0 -57 -20q-16 -16 -18 -38l-78 16q3 25 16 46q17 29 46 46q37 21 91 21.5
t91 -21.5q29 -17 46 -45q17 -29 16.5 -62.5t-17.5 -62.5q-18 -31 -50 -49q-6 -3 -12 -7q9 -4 17 -8q35 -20 54 -54q19 -33 19 -71q0 -39 -19 -72q-18 -31 -50 -50q-40 -23 -97 -23q-58 0 -96 23q-32 18 -51 50q-11 20 -15 41z" />
    <glyph glyph-name="acute" unicode="&#xb4;" 
d="M173 579l171 207l66 -52l-183 -198z" />
    <glyph glyph-name="uni00B5" unicode="&#xb5;" 
d="M60 -205v735h80v-310q0 -63 23 -104q15 -27 39 -40q21 -12 48 -12t48 12q23 13 39 40q23 40 23 104v310h80v-530h-80v76q-2 -3 -3 -6q-23 -40 -58 -60q-32 -18 -74 -18t-73 18q-7 4 -13 9q1 -73 1 -121v-103h-80z" />
    <glyph glyph-name="paragraph" unicode="&#xb6;" 
d="M56 533q0 71 28 120q22 39 59 60q36 21 85 22h80v-735h-80v332q-49 1 -85 22t-59 59q-28 49 -28 120zM136 533.5q0 -51.5 19 -84.5q13 -23 33 -34q18 -10 40 -11v259q-22 -1 -40 -11q-20 -12 -33 -34q-19 -33 -19 -84.5zM364 0v735h80v-735h-80z" />
    <glyph glyph-name="periodcentered" unicode="&#xb7;" 
d="M172 365q0 25 10 43q9 16 25 25q18 10 43 10t43 -10q16 -9 25 -25q10 -18 10 -43t-10 -43q-9 -16 -25 -25q-18 -10 -43 -10t-43 10q-16 9 -25 25q-10 18 -10 43z" />
    <glyph glyph-name="cedilla" unicode="&#xb8;" 
d="M150 -142h100q14 0 22 8q6 6 6 15.5t-6 15.5q-8 8 -22 7h-40v96h80v-29q38 -11 56 -42q12 -20 12 -48t-12 -48q-11 -20 -32 -32q-26 -15 -64 -15h-100v72z" />
    <glyph glyph-name="uni00B9" unicode="&#xb9;" 
d="M122 731l109 81h80v-514h-80v420l-61 -45z" />
    <glyph glyph-name="ordmasculine" unicode="&#xba;" 
d="M90 518v63q0 51 22 88q18 32 50 51q37 21 88 21t88 -21q32 -19 50 -51q21 -37 22 -88v-63q0 -51 -22 -88q-18 -32 -50 -51q-36 -21 -87.5 -21t-88.5 21q-32 19 -50 51q-21 37 -22 88zM117 220v51h266v-51h-266zM170 518q0 -30 12 -51q21 -37 68 -37q24 0 41 10t27 27
q12 21 12 51v63q0 30 -12 51q-22 37 -68 37q-24 0 -41 -10t-27 -27q-12 -21 -12 -51v-63z" />
    <glyph glyph-name="guillemotright" unicode="&#xbb;" 
d="M222 112q17 40 40 78q65 113 148 175q-83 62 -148 175q-22 38 -40 78l75 27q21 -59 52 -114q50 -87 120 -130v-72q-69 -44 -120 -130q-31 -54 -52 -114zM32 112q17 40 40 78q65 113 148 175q-83 62 -148 175q-22 38 -40 78l75 27q21 -59 52 -114q50 -87 120 -130v-72
q-69 -44 -120 -130q-31 -54 -52 -114z" />
    <glyph glyph-name="onequarter" unicode="&#xbc;" 
d="M125 -46v63l118 242h86v-242h42v-63h-42v-99h-70v99h-134zM193 17h66v132zM150 811l82 64h69v-404h-69v321l-39 -30zM60 338v54h380v-54h-380z" />
    <glyph glyph-name="onehalf" unicode="&#xbd;" 
d="M150 811l82 64h69v-404h-69v321l-39 -30zM126 174q3 18 13 35q14 24 37 38q30 17 72 17q41 0 71 -17q25 -14 39 -39q16 -27 15 -59q0 -32 -17 -62t-69 -70q-51 -40 -69 -70q-7 -13 -12 -29h165v-63h-242v1q0 77 24 118q20 35 78 78q47 35 61 59q11 19 11 38q0 22 -14 37
q-15 15 -41 15q-27 0 -41 -15q-12 -12 -13 -29zM60 338v54h380v-54h-380z" />
    <glyph glyph-name="threequarters" unicode="&#xbe;" 
d="M125 -46v63l118 242h86v-242h42v-63h-42v-99h-70v99h-134zM193 17h66v132zM122 556l67 18q2 -16 14 -28q16 -16 46.5 -16.5t46.5 16.5q14 14 14 35q-1 18 -9 33q-10 17 -28 28q-21 12 -60 12v63q36 0 56 11q16 9 25 25q7 12 7 25q0 15 -10 25q-14 14 -41 14
q-26 0 -39 -14q-11 -11 -12 -27l-68 14q2 19 12 37q13 23 36 36q29 17 71.5 17t71.5 -17q23 -13 36 -36t13 -49t-13 -49q-14 -24 -40 -40q-3 -2 -8 -3q6 -2 11 -6q28 -16 44 -43q15 -26 15 -56.5t-15 -56.5q-14 -24 -40 -39q-31 -18 -75 -18q-45 0 -77 17q-25 14 -39 40
q-9 15 -12 32zM60 338v54h380v-54h-380z" />
    <glyph glyph-name="questiondown" unicode="&#xbf;" 
d="M60 -35q0 58 32 112q15 27 55 74q28 34 40 54q23 40 23 104l80 1q0 -87 -31 -140q-15 -25 -52 -71q-32 -38 -45 -60q-22 -39 -22 -76q0 -30 14 -54q13 -22 35 -35q26 -15 64 -15q40 0 67 16q22 13 34 34t12 44v7l79 -10v-2q0 -40 -21 -77t-58 -57q-46 -27 -113 -27
q-64 0 -109 26q-38 22 -60 60q-24 41 -24 92zM180 467.5q0 22.5 9 38.5q8 14 22 23q16 9 39 9t39 -9q14 -8 22 -23q9 -16 9 -38.5t-9 -38.5q-8 -14 -22 -23q-16 -9 -39 -9t-39 9q-14 8 -22 23q-9 16 -9 38.5z" />
    <glyph glyph-name="Agrave" unicode="&#xc0;" 
d="M60 0v74q0 200 150 661h80q150 -461 150 -661v-74h-80v74q0 51 -9 119h-202q-9 -69 -9 -119v-74h-80zM160 265h180q-27 154 -90 379q-63 -225 -90 -379zM117 923l66 52l134 -164l-55 -43z" />
    <glyph glyph-name="Aacute" unicode="&#xc1;" 
d="M60 0v74q0 200 150 661h80q150 -461 150 -661v-74h-80v74q0 51 -9 119h-202q-9 -69 -9 -119v-74h-80zM160 265h180q-27 154 -90 379q-63 -225 -90 -379zM183 811l134 164l66 -52l-145 -155z" />
    <glyph glyph-name="Acircumflex" unicode="&#xc2;" 
d="M60 0v74q0 200 150 661h80q150 -461 150 -661v-74h-80v74q0 51 -9 119h-202q-9 -69 -9 -119v-74h-80zM160 265h180q-27 154 -90 379q-63 -225 -90 -379zM76 821l130 151h88l130 -151l-69 -49l-105 141l-105 -141z" />
    <glyph glyph-name="Atilde" unicode="&#xc3;" 
d="M60 0v74q0 200 150 661h80q150 -461 150 -661v-74h-80v74q0 51 -9 119h-202q-9 -69 -9 -119v-74h-80zM160 265h180q-27 154 -90 379q-63 -225 -90 -379zM67 818q19 46 36 76q26 45 53 61q17 10 36 9q18 0 35 -9q23 -13 54 -62q18 -28 27 -36q11 10 25 33q16 27 34 71
l66 -24q-19 -46 -36 -76q-26 -45 -53 -61q-17 -10 -36 -10q-18 0 -35 10q-23 13 -54 61q-18 28 -27 37q-11 -10 -25 -34q-16 -27 -34 -71z" />
    <glyph glyph-name="Adieresis" unicode="&#xc4;" 
d="M60 0v74q0 200 150 661h80q150 -461 150 -661v-74h-80v74q0 51 -9 119h-202q-9 -69 -9 -119v-74h-80zM160 265h180q-27 154 -90 379q-63 -225 -90 -379zM288 890q0 20 8 34q7 13 20 20q14 8 34 8.5t34 -8.5q13 -7 20 -20q8 -14 8 -34t-8 -34q-7 -13 -20 -20
q-14 -9 -34 -9t-34 9q-13 7 -20 20q-8 14 -8 34zM88 890q0 20 8 34q7 13 20 20q14 8 34 8.5t34 -8.5q13 -7 20 -20q8 -14 8 -34t-8 -34q-7 -13 -20 -20q-14 -9 -34 -9t-34 9q-13 7 -20 20q-8 14 -8 34z" />
    <glyph glyph-name="Aring" unicode="&#xc5;" 
d="M60 0v74q0 200 150 661h80q150 -461 150 -661v-74h-80v74q0 51 -9 119h-202q-9 -69 -9 -119v-74h-80zM160 265h180q-27 154 -90 379q-63 -225 -90 -379zM154 865.5q0 30.5 13 52.5q11 19 30 31q22 13 53 13t53 -13q19 -11 30 -31q13 -22 13 -52.5t-13 -52.5
q-11 -19 -30 -31q-22 -12 -53 -12t-53 12q-19 11 -30 31q-13 22 -13 52.5zM213 866q0 -17 10 -27.5t27 -10t27 10.5t10 27t-10 27t-27 10t-27 -10t-10 -27z" />
    <glyph glyph-name="AE" unicode="&#xc6;" 
d="M60 0v74q0 201 136 661h244v-72h-128v-230h110v-72h-110v-289h128v-72h-208v193h-84q-8 -67 -8 -119v-74h-80zM158 265h74v354q-51 -208 -74 -354z" />
    <glyph glyph-name="Ccedilla" unicode="&#xc7;" 
d="M150 -142h100q14 0 22 8q6 6 6 15.5t-6 15.5q-8 8 -22 7h-40v96h80v-29q38 -11 56 -42q12 -20 12 -48t-12 -48q-11 -20 -32 -32q-26 -15 -64 -15h-100v72zM52 195v345q0 66 27 114q23 40 64 63q45 26 107 26t107 -26q40 -23 63 -64q19 -34 25 -73l-78 -14q-3 28 -17 50
q-15 26 -39 40q-26 15 -61 15t-61 -15q-24 -14 -39 -39q-18 -32 -18 -77v-345q0 -45 18 -77q15 -25 39 -39q26 -15 61 -15t61 15q25 14 39 40q13 23 17 50l78 -14q-5 -40 -25 -73q-23 -41 -63 -64q-45 -26 -107 -26t-107 26q-40 23 -64 63q-27 47 -27 114z" />
    <glyph glyph-name="Egrave" unicode="&#xc8;" 
d="M90 0v735h350v-72h-270v-230h213v-72h-213v-289h270v-72h-350zM117 923l66 52l134 -164l-55 -43z" />
    <glyph glyph-name="Eacute" unicode="&#xc9;" 
d="M90 0v735h350v-72h-270v-230h213v-72h-213v-289h270v-72h-350zM183 811l134 164l66 -52l-145 -155z" />
    <glyph glyph-name="Ecircumflex" unicode="&#xca;" 
d="M90 0v735h350v-72h-270v-230h213v-72h-213v-289h270v-72h-350zM76 821l130 151h88l130 -151l-69 -49l-105 141l-105 -141z" />
    <glyph glyph-name="Edieresis" unicode="&#xcb;" 
d="M90 0v735h350v-72h-270v-230h213v-72h-213v-289h270v-72h-350zM288 890q0 20 8 34q7 13 20 20q14 8 34 8.5t34 -8.5q13 -7 20 -20q8 -14 8 -34t-8 -34q-7 -13 -20 -20q-14 -9 -34 -9t-34 9q-13 7 -20 20q-8 14 -8 34zM88 890q0 20 8 34q7 13 20 20q14 8 34 8.5t34 -8.5
q13 -7 20 -20q8 -14 8 -34t-8 -34q-7 -13 -20 -20q-14 -9 -34 -9t-34 9q-13 7 -20 20q-8 14 -8 34z" />
    <glyph glyph-name="Igrave" unicode="&#xcc;" 
d="M110 0v72h100v591h-100v72h280v-72h-100v-591h100v-72h-280zM117 923l66 52l134 -164l-55 -43z" />
    <glyph glyph-name="Iacute" unicode="&#xcd;" 
d="M110 0v72h100v591h-100v72h280v-72h-100v-591h100v-72h-280zM183 811l134 164l66 -52l-145 -155z" />
    <glyph glyph-name="Icircumflex" unicode="&#xce;" 
d="M110 0v72h100v591h-100v72h280v-72h-100v-591h100v-72h-280zM76 821l130 151h88l130 -151l-69 -49l-105 141l-105 -141z" />
    <glyph glyph-name="Idieresis" unicode="&#xcf;" 
d="M110 0v72h100v591h-100v72h280v-72h-100v-591h100v-72h-280zM288 890q0 20 8 34q7 13 20 20q14 8 34 8.5t34 -8.5q13 -7 20 -20q8 -14 8 -34t-8 -34q-7 -13 -20 -20q-14 -9 -34 -9t-34 9q-13 7 -20 20q-8 14 -8 34zM88 890q0 20 8 34q7 13 20 20q14 8 34 8.5t34 -8.5
q13 -7 20 -20q8 -14 8 -34t-8 -34q-7 -13 -20 -20q-14 -9 -34 -9t-34 9q-13 7 -20 20q-8 14 -8 34z" />
    <glyph glyph-name="Eth" unicode="&#xd0;" 
d="M18 346v72h42v317h166q63 0 110 -27q46 -26 75 -77q37 -65 37 -159v-209q0 -95 -37 -159q-29 -50 -75 -77q-48 -27 -110 -27h-166v346h-42zM140 72h86q37 0 65 16q30 17 49 51q28 49 28 124v209q0 75 -28 124q-20 34 -49 51q-29 16 -65 16h-86v-245h122v-72h-122v-274z
" />
    <glyph glyph-name="Ntilde" unicode="&#xd1;" 
d="M60 0v735h111l192 -601q-3 272 -3 307v294h80v-735h-111l-192 601q3 -279 3 -307v-294h-80zM67 818q19 46 36 76q26 45 53 61q17 10 36 9q18 0 35 -9q23 -13 54 -62q18 -28 27 -36q11 10 25 33q16 27 34 71l66 -24q-19 -46 -36 -76q-26 -45 -53 -61q-17 -10 -36 -10
q-18 0 -35 10q-23 13 -54 61q-18 28 -27 37q-11 -10 -25 -34q-16 -27 -34 -71z" />
    <glyph glyph-name="Ograve" unicode="&#xd2;" 
d="M117 923l66 52l134 -164l-55 -43zM52 195v345q0 66 27 113q23 40 64 64q45 26 107 26t107 -26q40 -23 64 -64q27 -47 27 -113v-345q0 -66 -27 -113q-23 -40 -64 -64q-45 -26 -107 -26t-107 26q-40 23 -64 64q-27 47 -27 113zM132 195q0 -45 18 -77q15 -25 39 -39
q26 -15 61 -15t61 15q25 14 39 39q18 31 18 77v345q0 45 -18 77q-15 25 -39 39q-26 15 -61 15t-61 -15q-25 -14 -39 -39q-18 -31 -18 -77v-345z" />
    <glyph glyph-name="Oacute" unicode="&#xd3;" 
d="M183 811l134 164l66 -52l-145 -155zM52 195v345q0 66 27 113q23 40 64 64q45 26 107 26t107 -26q40 -23 64 -64q27 -47 27 -113v-345q0 -66 -27 -113q-23 -40 -64 -64q-45 -26 -107 -26t-107 26q-40 23 -64 64q-27 47 -27 113zM132 195q0 -45 18 -77q15 -25 39 -39
q26 -15 61 -15t61 15q25 14 39 39q18 31 18 77v345q0 45 -18 77q-15 25 -39 39q-26 15 -61 15t-61 -15q-25 -14 -39 -39q-18 -31 -18 -77v-345z" />
    <glyph glyph-name="Ocircumflex" unicode="&#xd4;" 
d="M76 821l130 151h88l130 -151l-69 -49l-105 141l-105 -141zM52 195v345q0 66 27 113q23 40 64 64q45 26 107 26t107 -26q40 -23 64 -64q27 -47 27 -113v-345q0 -66 -27 -113q-23 -40 -64 -64q-45 -26 -107 -26t-107 26q-40 23 -64 64q-27 47 -27 113zM132 195
q0 -45 18 -77q15 -25 39 -39q26 -15 61 -15t61 15q25 14 39 39q18 31 18 77v345q0 45 -18 77q-15 25 -39 39q-26 15 -61 15t-61 -15q-25 -14 -39 -39q-18 -31 -18 -77v-345z" />
    <glyph glyph-name="Otilde" unicode="&#xd5;" 
d="M67 818q19 46 36 76q26 45 53 61q17 10 36 9q18 0 35 -9q23 -13 54 -62q18 -28 27 -36q11 10 25 33q16 27 34 71l66 -24q-19 -46 -36 -76q-26 -45 -53 -61q-17 -10 -36 -10q-18 0 -35 10q-23 13 -54 61q-18 28 -27 37q-11 -10 -25 -34q-16 -27 -34 -71zM52 195v345
q0 66 27 113q23 40 64 64q45 26 107 26t107 -26q40 -23 64 -64q27 -47 27 -113v-345q0 -66 -27 -113q-23 -40 -64 -64q-45 -26 -107 -26t-107 26q-40 23 -64 64q-27 47 -27 113zM132 195q0 -45 18 -77q15 -25 39 -39q26 -15 61 -15t61 15q25 14 39 39q18 31 18 77v345
q0 45 -18 77q-15 25 -39 39q-26 15 -61 15t-61 -15q-25 -14 -39 -39q-18 -31 -18 -77v-345z" />
    <glyph glyph-name="Odieresis" unicode="&#xd6;" 
d="M288 890q0 20 8 34q7 13 20 20q14 8 34 8.5t34 -8.5q13 -7 20 -20q8 -14 8 -34t-8 -34q-7 -13 -20 -20q-14 -9 -34 -9t-34 9q-13 7 -20 20q-8 14 -8 34zM88 890q0 20 8 34q7 13 20 20q14 8 34 8.5t34 -8.5q13 -7 20 -20q8 -14 8 -34t-8 -34q-7 -13 -20 -20q-14 -9 -34 -9
t-34 9q-13 7 -20 20q-8 14 -8 34zM52 195v345q0 66 27 113q23 40 64 64q45 26 107 26t107 -26q40 -23 64 -64q27 -47 27 -113v-345q0 -66 -27 -113q-23 -40 -64 -64q-45 -26 -107 -26t-107 26q-40 23 -64 64q-27 47 -27 113zM132 195q0 -45 18 -77q15 -25 39 -39
q26 -15 61 -15t61 15q25 14 39 39q18 31 18 77v345q0 45 -18 77q-15 25 -39 39q-26 15 -61 15t-61 -15q-25 -14 -39 -39q-18 -31 -18 -77v-345z" />
    <glyph glyph-name="multiply" unicode="&#xd7;" 
d="M32 200l164 165l-164 165l56 50l162 -161l162 161l56 -50l-164 -165l164 -165l-56 -50l-162 161l-162 -161z" />
    <glyph glyph-name="Oslash" unicode="&#xd8;" 
d="M51 -23l37 91l-9 14q-27 47 -27 113v345q0 66 27 113q23 40 64 64q45 26 107 26q57 0 99 -22l26 64l74 -27l-37 -91l9 -14q27 -47 27 -113v-345q0 -66 -27 -113q-23 -40 -64 -64q-45 -26 -107 -26q-57 0 -99 22l-26 -64zM132 195q0 -8 1 -15l188 470q-5 4 -10 6
q-26 15 -61 15t-61 -15q-25 -14 -39 -39q-18 -31 -18 -77v-345zM179 85q5 -4 10 -6q26 -15 61 -15t61 15q25 14 39 39q18 31 18 77v345q0 8 -1 15z" />
    <glyph glyph-name="Ugrave" unicode="&#xd9;" 
d="M117 923l66 52l134 -164l-55 -43zM60 195v540h80v-540q0 -47 19 -80q14 -25 37 -38t54 -13t54 13.5t37 37.5q19 32 19 80v540h80v-540q0 -68 -28 -116q-23 -40 -62 -63q-42 -24 -100 -24t-100 24q-39 23 -62 63q-28 48 -28 116z" />
    <glyph glyph-name="Uacute" unicode="&#xda;" 
d="M183 811l134 164l66 -52l-145 -155zM60 195v540h80v-540q0 -47 19 -80q14 -25 37 -38t54 -13t54 13.5t37 37.5q19 32 19 80v540h80v-540q0 -68 -28 -116q-23 -40 -62 -63q-42 -24 -100 -24t-100 24q-39 23 -62 63q-28 48 -28 116z" />
    <glyph glyph-name="Ucircumflex" unicode="&#xdb;" 
d="M76 821l130 151h88l130 -151l-69 -49l-105 141l-105 -141zM60 195v540h80v-540q0 -47 19 -80q14 -25 37 -38t54 -13t54 13.5t37 37.5q19 32 19 80v540h80v-540q0 -68 -28 -116q-23 -40 -62 -63q-42 -24 -100 -24t-100 24q-39 23 -62 63q-28 48 -28 116z" />
    <glyph glyph-name="Udieresis" unicode="&#xdc;" 
d="M288 890q0 20 8 34q7 13 20 20q14 8 34 8.5t34 -8.5q13 -7 20 -20q8 -14 8 -34t-8 -34q-7 -13 -20 -20q-14 -9 -34 -9t-34 9q-13 7 -20 20q-8 14 -8 34zM88 890q0 20 8 34q7 13 20 20q14 8 34 8.5t34 -8.5q13 -7 20 -20q8 -14 8 -34t-8 -34q-7 -13 -20 -20q-14 -9 -34 -9
t-34 9q-13 7 -20 20q-8 14 -8 34zM60 195v540h80v-540q0 -47 19 -80q14 -25 37 -38t54 -13t54 13.5t37 37.5q19 32 19 80v540h80v-540q0 -68 -28 -116q-23 -40 -62 -63q-42 -24 -100 -24t-100 24q-39 23 -62 63q-28 48 -28 116z" />
    <glyph glyph-name="Yacute" unicode="&#xdd;" 
d="M60 691v44h80v-44q0 -103 55 -209l55 -104l55 104q55 106 55 209v44h80v-44q0 -119 -65 -242l-85 -163v-286h-80v286l-85 163q-65 123 -65 242zM183 811l134 164l66 -52l-145 -155z" />
    <glyph glyph-name="Thorn" unicode="&#xde;" 
d="M75 0v735h80v-140h57q78 0 133 -31q47 -27 74 -74q29 -51 29 -122.5t-29 -122.5q-27 -47 -74 -74q-55 -32 -133 -31h-57v-140h-80zM155 212h57q50 0 86 20q31 18 50 50q20 35 20 85t-20 86q-18 32 -50 50q-36 21 -86 20h-57v-311z" />
    <glyph glyph-name="germandbls" unicode="&#xdf;" 
d="M60 0v530q0 81 31 135q22 39 57 59q33 19 78 19t79 -19q35 -20 57 -59q22 -37 28 -85l-77 -21q-4 41 -21 70q-13 22 -31 33q-15 9 -34 9t-35 -9q-18 -10 -30 -32q-22 -38 -22 -100v-16h309l-135 -239q38 -7 63 -22q36 -21 56 -55q19 -33 19 -70q0 -74 -42 -147
q-56 -97 -165 -160q-25 -15 -52 -26l-32 66q23 10 45 22q88 51 132 129q34 59 34 116q0 17 -9 33q-11 18 -31 30q-30 18 -98 18h-45l131 233h-180v-442h-80z" />
    <glyph glyph-name="agrave" unicode="&#xe0;" 
d="M52 149q0 46 19 78q20 35 60 58q55 32 138 32h91v46q0 31 -13 54q-12 21 -34 34q-27 15 -66 15q-40 0 -66 -16q-22 -12 -35 -34q-9 -16 -11 -34l-77 18q4 28 18 53q21 37 58 59q46 26 113 26q66 0 113 -27q38 -22 58 -57q22 -38 22 -91v-363h-80v74q-23 -38 -60 -59
q-40 -23 -94 -23q-49 0 -83 20q-31 18 -50 50q-21 37 -21 87zM132 149q0 -49 40 -71q24 -14 59 -14q40 0 69 17q27 15 42 42q18 31 18 75v47h-91q-56 0 -92 -20q-23 -13 -35 -34q-10 -18 -10 -42zM117 718l66 52l134 -164l-55 -43z" />
    <glyph glyph-name="aacute" unicode="&#xe1;" 
d="M52 149q0 46 19 78q20 35 60 58q55 32 138 32h91v46q0 31 -13 54q-12 21 -34 34q-27 15 -66 15q-40 0 -66 -16q-22 -12 -35 -34q-9 -16 -11 -34l-77 18q4 28 18 53q21 37 58 59q46 26 113 26q66 0 113 -27q38 -22 58 -57q22 -38 22 -91v-363h-80v74q-23 -38 -60 -59
q-40 -23 -94 -23q-49 0 -83 20q-31 18 -50 50q-21 37 -21 87zM132 149q0 -49 40 -71q24 -14 59 -14q40 0 69 17q27 15 42 42q18 31 18 75v47h-91q-56 0 -92 -20q-23 -13 -35 -34q-10 -18 -10 -42zM183 606l134 164l66 -52l-145 -155z" />
    <glyph glyph-name="acircumflex" unicode="&#xe2;" 
d="M76 616l130 151h88l130 -151l-69 -49l-105 141l-105 -141zM52 149q0 46 19 78q20 35 60 58q55 32 138 32h91v46q0 31 -13 54q-12 21 -34 34q-27 15 -66 15q-40 0 -66 -16q-22 -12 -35 -34q-9 -16 -11 -34l-77 18q4 28 18 53q21 37 58 59q46 26 113 26q66 0 113 -27
q38 -22 58 -57q22 -38 22 -91v-363h-80v74q-23 -38 -60 -59q-40 -23 -94 -23q-49 0 -83 20q-31 18 -50 50q-21 37 -21 87zM132 149q0 -49 40 -71q24 -14 59 -14q40 0 69 17q27 15 42 42q18 31 18 75v47h-91q-56 0 -92 -20q-23 -13 -35 -34q-10 -18 -10 -42z" />
    <glyph glyph-name="atilde" unicode="&#xe3;" 
d="M52 149q0 46 19 78q20 35 60 58q55 32 138 32h91v46q0 31 -13 54q-12 21 -34 34q-27 15 -66 15q-40 0 -66 -16q-22 -12 -35 -34q-9 -16 -11 -34l-77 18q4 28 18 53q21 37 58 59q46 26 113 26q66 0 113 -27q38 -22 58 -57q22 -38 22 -91v-363h-80v74q-23 -38 -60 -59
q-40 -23 -94 -23q-49 0 -83 20q-31 18 -50 50q-21 37 -21 87zM132 149q0 -49 40 -71q24 -14 59 -14q40 0 69 17q27 15 42 42q18 31 18 75v47h-91q-56 0 -92 -20q-23 -13 -35 -34q-10 -18 -10 -42zM67 613q19 46 36 76q26 45 53 61q17 10 36 9q18 0 35 -9q23 -13 54 -62
q18 -28 27 -36q11 10 25 33q16 27 34 71l66 -24q-19 -46 -36 -76q-26 -45 -53 -61q-17 -10 -36 -10q-18 0 -35 10q-23 13 -54 61q-18 28 -27 37q-11 -10 -25 -34q-16 -27 -34 -71z" />
    <glyph glyph-name="adieresis" unicode="&#xe4;" 
d="M288 685q0 20 8 34q7 13 20 20q14 8 34 8.5t34 -8.5q13 -7 20 -20q8 -14 8 -34t-8 -34q-7 -13 -20 -20q-14 -9 -34 -9t-34 9q-13 7 -20 20q-8 14 -8 34zM88 685q0 20 8 34q7 13 20 20q14 8 34 8.5t34 -8.5q13 -7 20 -20q8 -14 8 -34t-8 -34q-7 -13 -20 -20q-14 -9 -34 -9
t-34 9q-13 7 -20 20q-8 14 -8 34zM52 149q0 46 19 78q20 35 60 58q55 32 138 32h91v46q0 31 -13 54q-12 21 -34 34q-27 15 -66 15q-40 0 -66 -16q-22 -12 -35 -34q-9 -16 -11 -34l-77 18q4 28 18 53q21 37 58 59q46 26 113 26q66 0 113 -27q38 -22 58 -57q22 -38 22 -91
v-363h-80v74q-23 -38 -60 -59q-40 -23 -94 -23q-49 0 -83 20q-31 18 -50 50q-21 37 -21 87zM132 149q0 -49 40 -71q24 -14 59 -14q40 0 69 17q27 15 42 42q18 31 18 75v47h-91q-56 0 -92 -20q-23 -13 -35 -34q-10 -18 -10 -42z" />
    <glyph glyph-name="aring" unicode="&#xe5;" 
d="M154 660.5q0 30.5 13 52.5q11 19 30 31q22 13 53 13t53 -13q19 -11 30 -31q13 -22 13 -52.5t-13 -52.5q-11 -19 -30 -31q-22 -12 -53 -12t-53 12q-19 11 -30 31q-13 22 -13 52.5zM213 661q0 -17 10 -27.5t27 -10t27 10.5t10 27t-10 27t-27 10t-27 -10t-10 -27zM52 149
q0 46 19 78q20 35 60 58q55 32 138 32h91v46q0 31 -13 54q-12 21 -34 34q-27 15 -66 15q-40 0 -66 -16q-22 -12 -35 -34q-9 -16 -11 -34l-77 18q4 28 18 53q21 37 58 59q46 26 113 26q66 0 113 -27q38 -22 58 -57q22 -38 22 -91v-363h-80v74q-23 -38 -60 -59
q-40 -23 -94 -23q-49 0 -83 20q-31 18 -50 50q-21 37 -21 87zM132 149q0 -49 40 -71q24 -14 59 -14q40 0 69 17q27 15 42 42q18 31 18 75v47h-91q-56 0 -92 -20q-23 -13 -35 -34q-10 -18 -10 -42z" />
    <glyph glyph-name="ae" unicode="&#xe6;" 
d="M44 142q0 56 23 95q21 36 56 56q37 21 87 24v81q0 40 -18 58q-10 10 -23.5 10t-23.5 -10q-18 -18 -18 -55v-2l-80 1v4q0 44 20 78q15 27 40 41q26 15 61.5 15t60.5 -15q11 -7 21 -16q9 9 21 16q26 15 62 15t62 -15t41 -42q20 -34 20 -83v-169h-166v-97q0 -39 18 -57
q11 -11 27.5 -11t27.5 11q18 18 18 54v2l80 -1v-4q0 -43 -19 -76q-16 -27 -42 -42q-27 -16 -64.5 -16t-64.5 16q-11 7 -21 15q-10 -9 -21 -16q-26 -15 -62 -15q-34 0 -59 15q-26 15 -42 43q-22 37 -22 92zM124 141q0 -48 20 -67q10 -10 23 -10q14 0 25 10q18 18 18 58v113
q-49 -4 -72 -44q-14 -24 -14 -60zM290 301h86v97q0 40 -18 58q-10 10 -25 10t-25 -10q-18 -18 -18 -58v-97z" />
    <glyph glyph-name="ccedilla" unicode="&#xe7;" 
d="M150 -142h100q14 0 22 8q6 6 6 15.5t-6 15.5q-8 8 -22 7h-40v96h80v-29q38 -11 56 -42q12 -20 12 -48t-12 -48q-11 -20 -32 -32q-26 -15 -64 -15h-100v72zM52 220v90q0 80 32 136q25 44 67 67q43 25 100.5 25t100.5 -25q42 -24 67 -67q19 -32 26 -71l-76 -22
q-5 31 -20 56q-16 28 -42 43q-24 14 -56 14q-31 0 -55 -14q-25 -15 -41 -42q-23 -40 -23 -100v-90q0 -60 23 -100q16 -28 41 -42q24 -14 55 -14q32 0 56 14q26 15 42 43q14 25 20 56l76 -22q-7 -38 -26 -71q-25 -44 -67 -67q-43 -25 -101 -25t-100 25q-42 24 -67 67
q-32 56 -32 136z" />
    <glyph glyph-name="egrave" unicode="&#xe8;" 
d="M52 220v90q0 81 32 136q25 44 67 68t99 24t99 -24q41 -24 67 -68q32 -55 32 -136v-81h-316v-9q0 -58 23 -97q17 -29 42 -44t60 -15t60 15q27 15 44 44q10 16 15 36l73 -29q-7 -23 -19 -43q-26 -44 -68 -69q-36 -20 -82 -25q-11 -1 -23 -1q-61 0 -105 26q-42 25 -68 68
q-32 55 -32 134zM132 301h236v9q0 61 -23 100q-16 28 -41 43q-23 13 -54 13t-54 -13q-25 -14 -41 -43q-23 -40 -23 -100v-9zM117 718l66 52l134 -164l-55 -43z" />
    <glyph glyph-name="eacute" unicode="&#xe9;" 
d="M52 220v90q0 81 32 136q25 44 67 68t99 24t99 -24q41 -24 67 -68q32 -55 32 -136v-81h-316v-9q0 -58 23 -97q17 -29 42 -44t60 -15t60 15q27 15 44 44q10 16 15 36l73 -29q-7 -23 -19 -43q-26 -44 -68 -69q-36 -20 -82 -25q-11 -1 -23 -1q-61 0 -105 26q-42 25 -68 68
q-32 55 -32 134zM132 301h236v9q0 61 -23 100q-16 28 -41 43q-23 13 -54 13t-54 -13q-25 -14 -41 -43q-23 -40 -23 -100v-9zM183 606l134 164l66 -52l-145 -155z" />
    <glyph glyph-name="ecircumflex" unicode="&#xea;" 
d="M52 220v90q0 81 32 136q25 44 67 68t99 24t99 -24q41 -24 67 -68q32 -55 32 -136v-81h-316v-9q0 -58 23 -97q17 -29 42 -44t60 -15t60 15q27 15 44 44q10 16 15 36l73 -29q-7 -23 -19 -43q-26 -44 -68 -69q-36 -20 -82 -25q-11 -1 -23 -1q-61 0 -105 26q-42 25 -68 68
q-32 55 -32 134zM132 301h236v9q0 61 -23 100q-16 28 -41 43q-23 13 -54 13t-54 -13q-25 -14 -41 -43q-23 -40 -23 -100v-9zM76 616l130 151h88l130 -151l-69 -49l-105 141l-105 -141z" />
    <glyph glyph-name="edieresis" unicode="&#xeb;" 
d="M52 220v90q0 81 32 136q25 44 67 68t99 24t99 -24q41 -24 67 -68q32 -55 32 -136v-81h-316v-9q0 -58 23 -97q17 -29 42 -44t60 -15t60 15q27 15 44 44q10 16 15 36l73 -29q-7 -23 -19 -43q-26 -44 -68 -69q-36 -20 -82 -25q-11 -1 -23 -1q-61 0 -105 26q-42 25 -68 68
q-32 55 -32 134zM132 301h236v9q0 61 -23 100q-16 28 -41 43q-23 13 -54 13t-54 -13q-25 -14 -41 -43q-23 -40 -23 -100v-9zM288 685q0 20 8 34q7 13 20 20q14 8 34 8.5t34 -8.5q13 -7 20 -20q8 -14 8 -34t-8 -34q-7 -13 -20 -20q-14 -9 -34 -9t-34 9q-13 7 -20 20
q-8 14 -8 34zM88 685q0 20 8 34q7 13 20 20q14 8 34 8.5t34 -8.5q13 -7 20 -20q8 -14 8 -34t-8 -34q-7 -13 -20 -20q-14 -9 -34 -9t-34 9q-13 7 -20 20q-8 14 -8 34z" />
    <glyph glyph-name="igrave" unicode="&#xec;" 
d="M75 0v72h142v386h-128v72h208v-458h128v-72h-350zM117 718l66 52l134 -164l-55 -43z" />
    <glyph glyph-name="iacute" unicode="&#xed;" 
d="M75 0v72h142v386h-128v72h208v-458h128v-72h-350zM183 606l134 164l66 -52l-145 -155z" />
    <glyph glyph-name="icircumflex" unicode="&#xee;" 
d="M75 0v72h142v386h-128v72h208v-458h128v-72h-350zM76 616l130 151h88l130 -151l-69 -49l-105 141l-105 -141z" />
    <glyph glyph-name="idieresis" unicode="&#xef;" 
d="M75 0v72h142v386h-128v72h208v-458h128v-72h-350zM288 685q0 20 8 34q7 13 20 20q14 8 34 8.5t34 -8.5q13 -7 20 -20q8 -14 8 -34t-8 -34q-7 -13 -20 -20q-14 -9 -34 -9t-34 9q-13 7 -20 20q-8 14 -8 34zM88 685q0 20 8 34q7 13 20 20q14 8 34 8.5t34 -8.5q13 -7 20 -20
q8 -14 8 -34t-8 -34q-7 -13 -20 -20q-14 -9 -34 -9t-34 9q-13 7 -20 20q-8 14 -8 34z" />
    <glyph glyph-name="eth" unicode="&#xf0;" 
d="M52 220v1q0 81 32 136q25 44 67 68t99 24q50 0 89 -19q-16 51 -42 93l-189 -48l-20 69l160 41q-31 31 -68 53q-30 17 -63 28l22 69q46 -13 87 -37q62 -36 108 -91l77 19l20 -69l-54 -14q71 -126 71 -321v-2q0 -81 -32 -136q-19 -33 -47 -55q-9 -7 -20 -13
q-42 -24 -99 -24t-99 24q-41 24 -67 68q-32 55 -32 136zM132 220q0 -61 23 -100q16 -28 41 -43q23 -13 54 -13t54 13q25 14 41 43q23 40 23 100v2q0 60 -23 99q-16 28 -41 43q-23 13 -54 13t-54 -13q-25 -14 -41 -43q-23 -40 -23 -100v-1z" />
    <glyph glyph-name="ntilde" unicode="&#xf1;" 
d="M60 0v530h80v-76q2 3 3 6q23 40 58 60q32 18 74 18t73 -18q35 -20 58 -60q34 -59 34 -150v-310h-80v310q0 63 -23 104q-15 27 -39 40q-21 12 -48 12t-48 -12q-23 -13 -39 -40q-23 -40 -23 -104v-310h-80zM67 613q19 46 36 76q26 45 53 61q17 10 36 9q18 0 35 -9
q23 -13 54 -62q18 -28 27 -36q11 10 25 33q16 27 34 71l66 -24q-19 -46 -36 -76q-26 -45 -53 -61q-17 -10 -36 -10q-18 0 -35 10q-23 13 -54 61q-18 28 -27 37q-11 -10 -25 -34q-16 -27 -34 -71z" />
    <glyph glyph-name="ograve" unicode="&#xf2;" 
d="M117 718l66 52l134 -164l-55 -43zM52 220v90q0 81 32 136q25 44 67 68t99 24t99 -24q41 -24 67 -68q32 -55 32 -136v-90q0 -81 -32 -136q-19 -33 -47 -55q-9 -7 -20 -13q-42 -24 -99 -24t-99 24q-41 24 -67 68q-32 55 -32 136zM132 220q0 -61 23 -100q16 -28 41 -43
q23 -13 54 -13t54 13q25 14 41 43q23 40 23 100v90q0 61 -23 100q-16 28 -41 43q-23 13 -54 13t-54 -13q-25 -14 -41 -43q-23 -40 -23 -100v-90z" />
    <glyph glyph-name="oacute" unicode="&#xf3;" 
d="M183 606l134 164l66 -52l-145 -155zM52 220v90q0 81 32 136q25 44 67 68t99 24t99 -24q41 -24 67 -68q32 -55 32 -136v-90q0 -81 -32 -136q-19 -33 -47 -55q-9 -7 -20 -13q-42 -24 -99 -24t-99 24q-41 24 -67 68q-32 55 -32 136zM132 220q0 -61 23 -100q16 -28 41 -43
q23 -13 54 -13t54 13q25 14 41 43q23 40 23 100v90q0 61 -23 100q-16 28 -41 43q-23 13 -54 13t-54 -13q-25 -14 -41 -43q-23 -40 -23 -100v-90z" />
    <glyph glyph-name="ocircumflex" unicode="&#xf4;" 
d="M76 616l130 151h88l130 -151l-69 -49l-105 141l-105 -141zM52 220v90q0 81 32 136q25 44 67 68t99 24t99 -24q41 -24 67 -68q32 -55 32 -136v-90q0 -81 -32 -136q-19 -33 -47 -55q-9 -7 -20 -13q-42 -24 -99 -24t-99 24q-41 24 -67 68q-32 55 -32 136zM132 220
q0 -61 23 -100q16 -28 41 -43q23 -13 54 -13t54 13q25 14 41 43q23 40 23 100v90q0 61 -23 100q-16 28 -41 43q-23 13 -54 13t-54 -13q-25 -14 -41 -43q-23 -40 -23 -100v-90z" />
    <glyph glyph-name="otilde" unicode="&#xf5;" 
d="M67 613q19 46 36 76q26 45 53 61q17 10 36 9q18 0 35 -9q23 -13 54 -62q18 -28 27 -36q11 10 25 33q16 27 34 71l66 -24q-19 -46 -36 -76q-26 -45 -53 -61q-17 -10 -36 -10q-18 0 -35 10q-23 13 -54 61q-18 28 -27 37q-11 -10 -25 -34q-16 -27 -34 -71zM52 220v90
q0 81 32 136q25 44 67 68t99 24t99 -24q41 -24 67 -68q32 -55 32 -136v-90q0 -81 -32 -136q-19 -33 -47 -55q-9 -7 -20 -13q-42 -24 -99 -24t-99 24q-41 24 -67 68q-32 55 -32 136zM132 220q0 -61 23 -100q16 -28 41 -43q23 -13 54 -13t54 13q25 14 41 43q23 40 23 100v90
q0 61 -23 100q-16 28 -41 43q-23 13 -54 13t-54 -13q-25 -14 -41 -43q-23 -40 -23 -100v-90z" />
    <glyph glyph-name="odieresis" unicode="&#xf6;" 
d="M288 685q0 20 8 34q7 13 20 20q14 8 34 8.5t34 -8.5q13 -7 20 -20q8 -14 8 -34t-8 -34q-7 -13 -20 -20q-14 -9 -34 -9t-34 9q-13 7 -20 20q-8 14 -8 34zM88 685q0 20 8 34q7 13 20 20q14 8 34 8.5t34 -8.5q13 -7 20 -20q8 -14 8 -34t-8 -34q-7 -13 -20 -20q-14 -9 -34 -9
t-34 9q-13 7 -20 20q-8 14 -8 34zM52 220v90q0 81 32 136q25 44 67 68t99 24t99 -24q41 -24 67 -68q32 -55 32 -136v-90q0 -81 -32 -136q-19 -33 -47 -55q-9 -7 -20 -13q-42 -24 -99 -24t-99 24q-41 24 -67 68q-32 55 -32 136zM132 220q0 -61 23 -100q16 -28 41 -43
q23 -13 54 -13t54 13q25 14 41 43q23 40 23 100v90q0 61 -23 100q-16 28 -41 43q-23 13 -54 13t-54 -13q-25 -14 -41 -43q-23 -40 -23 -100v-90z" />
    <glyph glyph-name="divide" unicode="&#xf7;" 
d="M60 329v72h380v-72h-380zM179.5 175q0.5 36 28.5 53q17 10 42 10t42 -10q29 -17 28.5 -53t-28.5 -53q-17 -10 -42 -10t-42 10q-29 17 -28.5 53zM179.5 555q0.5 36 28.5 53q17 10 42 10t42 -10q29 -17 28.5 -53t-28.5 -53q-17 -10 -42 -10t-42 10q-29 17 -28.5 53z" />
    <glyph glyph-name="oslash" unicode="&#xf8;" 
d="M52 220v90q0 81 32 136q25 44 67 68t99 24q54 0 95 -22l32 58l70 -35l-42 -76q6 -8 11 -17q32 -55 32 -136v-90q0 -81 -32 -136q-19 -33 -47 -55q-9 -7 -20 -13q-42 -24 -99 -24q-54 0 -95 22l-32 -58l-70 35l42 76q-6 8 -11 17q-32 55 -32 136zM132 220q0 -39 10 -70
l166 300q-2 1 -4 3q-23 13 -54 13t-54 -13q-25 -14 -41 -43q-23 -40 -23 -100v-90zM192 80q2 -1 4 -3q23 -13 54 -13t54 13q25 14 41 43q23 40 23 100v90q0 40 -10 70z" />
    <glyph glyph-name="ugrave" unicode="&#xf9;" 
d="M60 220v310h80v-310q0 -63 23 -104q15 -27 39 -40q21 -12 48 -12t48 12q23 13 39 40q23 40 23 104v310h80v-530h-80v76q-2 -3 -3 -6q-23 -40 -58 -60q-32 -18 -74 -18t-73 18q-35 20 -58 60q-34 59 -34 150zM117 718l66 52l134 -164l-55 -43z" />
    <glyph glyph-name="uacute" unicode="&#xfa;" 
d="M60 220v310h80v-310q0 -63 23 -104q15 -27 39 -40q21 -12 48 -12t48 12q23 13 39 40q23 40 23 104v310h80v-530h-80v76q-2 -3 -3 -6q-23 -40 -58 -60q-32 -18 -74 -18t-73 18q-35 20 -58 60q-34 59 -34 150zM183 606l134 164l66 -52l-145 -155z" />
    <glyph glyph-name="ucircumflex" unicode="&#xfb;" 
d="M76 616l130 151h88l130 -151l-69 -49l-105 141l-105 -141zM60 220v310h80v-310q0 -63 23 -104q15 -27 39 -40q21 -12 48 -12t48 12q23 13 39 40q23 40 23 104v310h80v-530h-80v76q-2 -3 -3 -6q-23 -40 -58 -60q-32 -18 -74 -18t-73 18q-35 20 -58 60q-34 59 -34 150z" />
    <glyph glyph-name="udieresis" unicode="&#xfc;" 
d="M288 685q0 20 8 34q7 13 20 20q14 8 34 8.5t34 -8.5q13 -7 20 -20q8 -14 8 -34t-8 -34q-7 -13 -20 -20q-14 -9 -34 -9t-34 9q-13 7 -20 20q-8 14 -8 34zM88 685q0 20 8 34q7 13 20 20q14 8 34 8.5t34 -8.5q13 -7 20 -20q8 -14 8 -34t-8 -34q-7 -13 -20 -20q-14 -9 -34 -9
t-34 9q-13 7 -20 20q-8 14 -8 34zM60 220v310h80v-310q0 -63 23 -104q15 -27 39 -40q21 -12 48 -12t48 12q23 13 39 40q23 40 23 104v310h80v-530h-80v76q-2 -3 -3 -6q-23 -40 -58 -60q-32 -18 -74 -18t-73 18q-35 20 -58 60q-34 59 -34 150z" />
    <glyph glyph-name="yacute" unicode="&#xfd;" 
d="M60 493v37h80v-37q0 -52 30 -140l79 -235l81 235q30 86 30 140v37h80v-37q0 -65 -34 -164l-158 -456q-8 -22 -8 -71v-7h-80v7q0 59 12 95l38 108l-116 324q-34 96 -34 164zM183 606l134 164l66 -52l-145 -155z" />
    <glyph glyph-name="thorn" unicode="&#xfe;" 
d="M60 -205v940h80v-281q2 3 3 6q23 40 58 60q32 18 74 18q45 0 79 -20q37 -21 61 -62q33 -58 33 -146v-90q0 -88 -33 -146q-24 -41 -61 -62q-34 -20 -79 -20q-42 0 -74 18q-35 20 -58 60q-1 3 -3 6v-281h-80zM140 220q0 -63 23 -104q15 -27 39 -40q21 -12 49 -12
q30 0 53 13q25 14 41 43q23 40 23 100v90q0 61 -23 100q-16 28 -41 43q-23 13 -53 13q-28 0 -49 -12q-23 -13 -39 -40q-23 -41 -23 -104v-90z" />
    <glyph glyph-name="ydieresis" unicode="&#xff;" 
d="M288 685q0 20 8 34q7 13 20 20q14 8 34 8.5t34 -8.5q13 -7 20 -20q8 -14 8 -34t-8 -34q-7 -13 -20 -20q-14 -9 -34 -9t-34 9q-13 7 -20 20q-8 14 -8 34zM88 685q0 20 8 34q7 13 20 20q14 8 34 8.5t34 -8.5q13 -7 20 -20q8 -14 8 -34t-8 -34q-7 -13 -20 -20q-14 -9 -34 -9
t-34 9q-13 7 -20 20q-8 14 -8 34zM60 493v37h80v-37q0 -52 30 -140l79 -235l81 235q30 86 30 140v37h80v-37q0 -65 -34 -164l-158 -456q-8 -22 -8 -71v-7h-80v7q0 59 12 95l38 108l-116 324q-34 96 -34 164z" />
    <glyph glyph-name="Amacron" unicode="&#x100;" 
d="M60 0v74q0 200 150 661h80q150 -461 150 -661v-74h-80v74q0 51 -9 119h-202q-9 -69 -9 -119v-74h-80zM160 265h180q-27 154 -90 379q-63 -225 -90 -379zM100 854v72h300v-72h-300z" />
    <glyph glyph-name="amacron" unicode="&#x101;" 
d="M52 149q0 46 19 78q20 35 60 58q55 32 138 32h91v46q0 31 -13 54q-12 21 -34 34q-27 15 -66 15q-40 0 -66 -16q-22 -12 -35 -34q-9 -16 -11 -34l-77 18q4 28 18 53q21 37 58 59q46 26 113 26q66 0 113 -27q38 -22 58 -57q22 -38 22 -91v-363h-80v74q-23 -38 -60 -59
q-40 -23 -94 -23q-49 0 -83 20q-31 18 -50 50q-21 37 -21 87zM132 149q0 -49 40 -71q24 -14 59 -14q40 0 69 17q27 15 42 42q18 31 18 75v47h-91q-56 0 -92 -20q-23 -13 -35 -34q-10 -18 -10 -42zM100 649v72h300v-72h-300z" />
    <glyph glyph-name="Abreve" unicode="&#x102;" 
d="M60 0v74q0 200 150 661h80q150 -461 150 -661v-74h-80v74q0 51 -9 119h-202q-9 -69 -9 -119v-74h-80zM160 265h180q-27 154 -90 379q-63 -225 -90 -379zM90 949h80q0 -30 12 -51q21 -37 68 -37t68 37q12 21 12 51h80q0 -51 -21 -88q-19 -32 -51 -51q-37 -21 -88 -21
t-88 21q-32 19 -51 51q-21 36 -21 88z" />
    <glyph glyph-name="abreve" unicode="&#x103;" 
d="M52 149q0 46 19 78q20 35 60 58q55 32 138 32h91v46q0 31 -13 54q-12 21 -34 34q-27 15 -66 15q-40 0 -66 -16q-22 -12 -35 -34q-9 -16 -11 -34l-77 18q4 28 18 53q21 37 58 59q46 26 113 26q66 0 113 -27q38 -22 58 -57q22 -38 22 -91v-363h-80v74q-23 -38 -60 -59
q-40 -23 -94 -23q-49 0 -83 20q-31 18 -50 50q-21 37 -21 87zM132 149q0 -49 40 -71q24 -14 59 -14q40 0 69 17q27 15 42 42q18 31 18 75v47h-91q-56 0 -92 -20q-23 -13 -35 -34q-10 -18 -10 -42zM90 744h80q0 -30 12 -51q21 -37 68 -37t68 37q12 21 12 51h80q0 -51 -21 -88
q-19 -32 -51 -51q-37 -21 -88 -21t-88 21q-32 19 -51 51q-21 36 -21 88z" />
    <glyph glyph-name="Aogonek" unicode="&#x104;" 
d="M60 0v74q0 200 150 661h80q150 -461 150 -661v-74h-80v74q0 51 -9 119h-202q-9 -69 -9 -119v-74h-80zM160 265h180q-27 154 -90 379q-63 -225 -90 -379zM279 -77q0 23 11 43q14 24 39 38q32 19 75 19v-31q-21 0 -35 -14q-12 -12 -12 -28t11 -28q17 -17 61 -17h60v-79h-60
q-70 0 -103 19q-23 13 -36 35q-11 20 -11 43z" />
    <glyph glyph-name="aogonek" unicode="&#x105;" 
d="M52 149q0 46 19 78q20 35 60 58q55 32 138 32h91v46q0 31 -13 54q-12 21 -34 34q-27 15 -66 15q-40 0 -66 -16q-22 -12 -35 -34q-9 -16 -11 -34l-77 18q4 28 18 53q21 37 58 59q46 26 113 26q66 0 113 -27q38 -22 58 -57q22 -38 22 -91v-363h-80v74q-23 -38 -60 -59
q-40 -23 -94 -23q-49 0 -83 20q-31 18 -50 50q-21 37 -21 87zM132 149q0 -49 40 -71q24 -14 59 -14q40 0 69 17q27 15 42 42q18 31 18 75v47h-91q-56 0 -92 -20q-23 -13 -35 -34q-10 -18 -10 -42zM279 -77q0 23 11 43q14 24 39 38q32 19 75 19v-31q-21 0 -35 -14
q-12 -12 -12 -28t11 -28q17 -17 61 -17h60v-79h-60q-70 0 -103 19q-23 13 -36 35q-11 20 -11 43z" />
    <glyph glyph-name="Cacute" unicode="&#x106;" 
d="M183 811l134 164l66 -52l-145 -155zM52 195v345q0 66 27 114q23 40 64 63q45 26 107 26t107 -26q40 -23 63 -64q19 -34 25 -73l-78 -14q-3 28 -17 50q-15 26 -39 40q-26 15 -61 15t-61 -15q-24 -14 -39 -39q-18 -32 -18 -77v-345q0 -45 18 -77q15 -25 39 -39
q26 -15 61 -15t61 15q25 14 39 40q13 23 17 50l78 -14q-5 -40 -25 -73q-23 -41 -63 -64q-45 -26 -107 -26t-107 26q-40 23 -64 63q-27 47 -27 114z" />
    <glyph glyph-name="cacute" unicode="&#x107;" 
d="M183 606l134 164l66 -52l-145 -155zM52 220v90q0 80 32 136q25 44 67 67q43 25 100.5 25t100.5 -25q42 -24 67 -67q19 -32 26 -71l-76 -22q-5 31 -20 56q-16 28 -42 43q-24 14 -56 14q-31 0 -55 -14q-25 -15 -41 -42q-23 -40 -23 -100v-90q0 -60 23 -100q16 -28 41 -42
q24 -14 55 -14q32 0 56 14q26 15 42 43q14 25 20 56l76 -22q-7 -38 -26 -71q-25 -44 -67 -67q-43 -25 -101 -25t-100 25q-42 24 -67 67q-32 56 -32 136z" />
    <glyph glyph-name="Ccircumflex" unicode="&#x108;" 
d="M76 821l130 151h88l130 -151l-69 -49l-105 141l-105 -141zM52 195v345q0 66 27 114q23 40 64 63q45 26 107 26t107 -26q40 -23 63 -64q19 -34 25 -73l-78 -14q-3 28 -17 50q-15 26 -39 40q-26 15 -61 15t-61 -15q-24 -14 -39 -39q-18 -32 -18 -77v-345q0 -45 18 -77
q15 -25 39 -39q26 -15 61 -15t61 15q25 14 39 40q13 23 17 50l78 -14q-5 -40 -25 -73q-23 -41 -63 -64q-45 -26 -107 -26t-107 26q-40 23 -64 63q-27 47 -27 114z" />
    <glyph glyph-name="ccircumflex" unicode="&#x109;" 
d="M76 616l130 151h88l130 -151l-69 -49l-105 141l-105 -141zM52 220v90q0 80 32 136q25 44 67 67q43 25 100.5 25t100.5 -25q42 -24 67 -67q19 -32 26 -71l-76 -22q-5 31 -20 56q-16 28 -42 43q-24 14 -56 14q-31 0 -55 -14q-25 -15 -41 -42q-23 -40 -23 -100v-90
q0 -60 23 -100q16 -28 41 -42q24 -14 55 -14q32 0 56 14q26 15 42 43q14 25 20 56l76 -22q-7 -38 -26 -71q-25 -44 -67 -67q-43 -25 -101 -25t-100 25q-42 24 -67 67q-32 56 -32 136z" />
    <glyph glyph-name="Cdotaccent" unicode="&#x10a;" 
d="M188 890q0 20 8 34q7 13 20 20q14 8 34 8.5t34 -8.5q13 -7 20 -20q8 -14 8 -34t-8 -34q-7 -13 -20 -20q-14 -9 -34 -9t-34 9q-13 7 -20 20q-8 14 -8 34zM52 195v345q0 66 27 114q23 40 64 63q45 26 107 26t107 -26q40 -23 63 -64q19 -34 25 -73l-78 -14q-3 28 -17 50
q-15 26 -39 40q-26 15 -61 15t-61 -15q-24 -14 -39 -39q-18 -32 -18 -77v-345q0 -45 18 -77q15 -25 39 -39q26 -15 61 -15t61 15q25 14 39 40q13 23 17 50l78 -14q-5 -40 -25 -73q-23 -41 -63 -64q-45 -26 -107 -26t-107 26q-40 23 -64 63q-27 47 -27 114z" />
    <glyph glyph-name="cdotaccent" unicode="&#x10b;" 
d="M188 685q0 20 8 34q7 13 20 20q14 8 34 8.5t34 -8.5q13 -7 20 -20q8 -14 8 -34t-8 -34q-7 -13 -20 -20q-14 -9 -34 -9t-34 9q-13 7 -20 20q-8 14 -8 34zM52 220v90q0 80 32 136q25 44 67 67q43 25 100.5 25t100.5 -25q42 -24 67 -67q19 -32 26 -71l-76 -22q-5 31 -20 56
q-16 28 -42 43q-24 14 -56 14q-31 0 -55 -14q-25 -15 -41 -42q-23 -40 -23 -100v-90q0 -60 23 -100q16 -28 41 -42q24 -14 55 -14q32 0 56 14q26 15 42 43q14 25 20 56l76 -22q-7 -38 -26 -71q-25 -44 -67 -67q-43 -25 -101 -25t-100 25q-42 24 -67 67q-32 56 -32 136z" />
    <glyph glyph-name="Ccaron" unicode="&#x10c;" 
d="M76 924l69 49l105 -141l105 141l69 -49l-130 -151h-88zM52 195v345q0 66 27 114q23 40 64 63q45 26 107 26t107 -26q40 -23 63 -64q19 -34 25 -73l-78 -14q-3 28 -17 50q-15 26 -39 40q-26 15 -61 15t-61 -15q-24 -14 -39 -39q-18 -32 -18 -77v-345q0 -45 18 -77
q15 -25 39 -39q26 -15 61 -15t61 15q25 14 39 40q13 23 17 50l78 -14q-5 -40 -25 -73q-23 -41 -63 -64q-45 -26 -107 -26t-107 26q-40 23 -64 63q-27 47 -27 114z" />
    <glyph glyph-name="ccaron" unicode="&#x10d;" 
d="M76 719l69 49l105 -141l105 141l69 -49l-130 -151h-88zM52 220v90q0 80 32 136q25 44 67 67q43 25 100.5 25t100.5 -25q42 -24 67 -67q19 -32 26 -71l-76 -22q-5 31 -20 56q-16 28 -42 43q-24 14 -56 14q-31 0 -55 -14q-25 -15 -41 -42q-23 -40 -23 -100v-90
q0 -60 23 -100q16 -28 41 -42q24 -14 55 -14q32 0 56 14q26 15 42 43q14 25 20 56l76 -22q-7 -38 -26 -71q-25 -44 -67 -67q-43 -25 -101 -25t-100 25q-42 24 -67 67q-32 56 -32 136z" />
    <glyph glyph-name="Dcaron" unicode="&#x10e;" 
d="M60 0v735h166q63 0 110 -27q46 -26 75 -77q37 -65 37 -159v-209q0 -95 -37 -159q-29 -50 -75 -77q-48 -28 -110 -27h-166zM140 72h86q37 0 65 16q30 17 49 51q28 49 28 124v209q0 75 -28 124q-20 34 -49 51q-29 16 -65 16h-86v-591zM76 924l69 49l105 -141l105 141
l69 -49l-130 -151h-88z" />
    <glyph glyph-name="dcaron" unicode="&#x10f;" 
d="M52 220v90q0 93 34 152q22 39 56 59q30 17 69 17q37 0 64 -16q32 -18 54 -56q3 -6 6 -11v280h80v-735h-80v75q-3 -6 -6 -11q-22 -38 -54 -56q-27 -16 -64 -16q-39 0 -69 17q-34 19 -56 59q-34 59 -34 152zM132 220q0 -65 24 -106q15 -26 37 -39q19 -11 44 -11q23 0 40 10
q20 12 34 36q24 42 24 110v90q0 68 -24 110q-14 25 -34 36q-17 10 -40 10q-25 0 -44 -11q-22 -13 -37 -39q-24 -41 -24 -106v-90zM437 583q31 34 41 80q-16 3 -27 14q-14 14 -14 38.5t14.5 39t38.5 14.5t38.5 -14.5t14.5 -38.5q0 -72 -32 -128q-13 -23 -32 -42z" />
    <glyph glyph-name="Dcroat" unicode="&#x110;" 
d="M18 346v72h42v317h166q63 0 110 -27q46 -26 75 -77q37 -65 37 -159v-209q0 -95 -37 -159q-29 -50 -75 -77q-48 -27 -110 -27h-166v346h-42zM140 72h86q37 0 65 16q30 17 49 51q28 49 28 124v209q0 75 -28 124q-20 34 -49 51q-29 16 -65 16h-86v-245h122v-72h-122v-274z
" />
    <glyph glyph-name="dcroat" unicode="&#x111;" 
d="M52 220v90q0 88 33 146q24 41 61 62q34 20 79 20q42 0 74 -18q35 -20 58 -60q2 -3 3 -6v132h-110v72h110v77h80v-77h42v-72h-42v-586h-80v76q-2 -3 -3 -6q-23 -40 -58 -60q-32 -18 -74 -18q-45 0 -79 20q-37 21 -61 62q-33 58 -33 146zM132 220q0 -61 23 -100
q16 -28 41 -43q23 -13 53 -13q28 0 49 12q23 13 39 40q23 41 23 104v90q0 63 -23 104q-15 27 -39 40q-21 12 -49 12q-30 0 -53 -13q-25 -14 -41 -43q-23 -40 -23 -100v-90z" />
    <glyph glyph-name="Emacron" unicode="&#x112;" 
d="M90 0v735h350v-72h-270v-230h213v-72h-213v-289h270v-72h-350zM100 854v72h300v-72h-300z" />
    <glyph glyph-name="emacron" unicode="&#x113;" 
d="M52 220v90q0 81 32 136q25 44 67 68t99 24t99 -24q41 -24 67 -68q32 -55 32 -136v-81h-316v-9q0 -58 23 -97q17 -29 42 -44t60 -15t60 15q27 15 44 44q10 16 15 36l73 -29q-7 -23 -19 -43q-26 -44 -68 -69q-36 -20 -82 -25q-11 -1 -23 -1q-61 0 -105 26q-42 25 -68 68
q-32 55 -32 134zM132 301h236v9q0 61 -23 100q-16 28 -41 43q-23 13 -54 13t-54 -13q-25 -14 -41 -43q-23 -40 -23 -100v-9zM100 649v72h300v-72h-300z" />
    <glyph glyph-name="Ebreve" unicode="&#x114;" 
d="M90 0v735h350v-72h-270v-230h213v-72h-213v-289h270v-72h-350zM90 949h80q0 -30 12 -51q21 -37 68 -37t68 37q12 21 12 51h80q0 -51 -21 -88q-19 -32 -51 -51q-37 -21 -88 -21t-88 21q-32 19 -51 51q-21 36 -21 88z" />
    <glyph glyph-name="ebreve" unicode="&#x115;" 
d="M52 220v90q0 81 32 136q25 44 67 68t99 24t99 -24q41 -24 67 -68q32 -55 32 -136v-81h-316v-9q0 -58 23 -97q17 -29 42 -44t60 -15t60 15q27 15 44 44q10 16 15 36l73 -29q-7 -23 -19 -43q-26 -44 -68 -69q-36 -20 -82 -25q-11 -1 -23 -1q-61 0 -105 26q-42 25 -68 68
q-32 55 -32 134zM132 301h236v9q0 61 -23 100q-16 28 -41 43q-23 13 -54 13t-54 -13q-25 -14 -41 -43q-23 -40 -23 -100v-9zM90 744h80q0 -30 12 -51q21 -37 68 -37t68 37q12 21 12 51h80q0 -51 -21 -88q-19 -32 -51 -51q-37 -21 -88 -21t-88 21q-32 19 -51 51
q-21 36 -21 88z" />
    <glyph glyph-name="Edotaccent" unicode="&#x116;" 
d="M90 0v735h350v-72h-270v-230h213v-72h-213v-289h270v-72h-350zM188 890q0 20 8 34q7 13 20 20q14 8 34 8.5t34 -8.5q13 -7 20 -20q8 -14 8 -34t-8 -34q-7 -13 -20 -20q-14 -9 -34 -9t-34 9q-13 7 -20 20q-8 14 -8 34z" />
    <glyph glyph-name="edotaccent" unicode="&#x117;" 
d="M52 220v90q0 81 32 136q25 44 67 68t99 24t99 -24q41 -24 67 -68q32 -55 32 -136v-81h-316v-9q0 -58 23 -97q17 -29 42 -44t60 -15t60 15q27 15 44 44q10 16 15 36l73 -29q-7 -23 -19 -43q-26 -44 -68 -69q-36 -20 -82 -25q-11 -1 -23 -1q-61 0 -105 26q-42 25 -68 68
q-32 55 -32 134zM132 301h236v9q0 61 -23 100q-16 28 -41 43q-23 13 -54 13t-54 -13q-25 -14 -41 -43q-23 -40 -23 -100v-9zM188 685q0 20 8 34q7 13 20 20q14 8 34 8.5t34 -8.5q13 -7 20 -20q8 -14 8 -34t-8 -34q-7 -13 -20 -20q-14 -9 -34 -9t-34 9q-13 7 -20 20
q-8 14 -8 34z" />
    <glyph glyph-name="Eogonek" unicode="&#x118;" 
d="M90 0v735h350v-72h-270v-230h213v-72h-213v-289h270v-72h-350zM125 -77q0 23 11 43q14 24 39 38q32 19 75 19v-31q-21 0 -35 -14q-12 -12 -12 -28t11 -28q17 -17 61 -17h60v-79h-60q-70 0 -103 19q-23 13 -36 35q-11 20 -11 43z" />
    <glyph glyph-name="eogonek" unicode="&#x119;" 
d="M52 220v90q0 81 32 136q25 44 67 68t99 24t99 -24q41 -24 67 -68q32 -55 32 -136v-81h-316v-9q0 -58 23 -97q17 -29 42 -44t60 -15t60 15q27 15 44 44q10 16 15 36l73 -29q-7 -23 -19 -43q-26 -44 -68 -69q-36 -20 -82 -25q-11 -1 -23 -1q-61 0 -105 26q-42 25 -68 68
q-32 55 -32 134zM132 301h236v9q0 61 -23 100q-16 28 -41 43q-23 13 -54 13t-54 -13q-25 -14 -41 -43q-23 -40 -23 -100v-9zM125 -77q0 23 11 43q14 24 39 38q32 19 75 19v-31q-21 0 -35 -14q-12 -12 -12 -28t11 -28q17 -17 61 -17h60v-79h-60q-70 0 -103 19q-23 13 -36 35
q-11 20 -11 43z" />
    <glyph glyph-name="Ecaron" unicode="&#x11a;" 
d="M90 0v735h350v-72h-270v-230h213v-72h-213v-289h270v-72h-350zM76 924l69 49l105 -141l105 141l69 -49l-130 -151h-88z" />
    <glyph glyph-name="ecaron" unicode="&#x11b;" 
d="M52 220v90q0 81 32 136q25 44 67 68t99 24t99 -24q41 -24 67 -68q32 -55 32 -136v-81h-316v-9q0 -58 23 -97q17 -29 42 -44t60 -15t60 15q27 15 44 44q10 16 15 36l73 -29q-7 -23 -19 -43q-26 -44 -68 -69q-36 -20 -82 -25q-11 -1 -23 -1q-61 0 -105 26q-42 25 -68 68
q-32 55 -32 134zM132 301h236v9q0 61 -23 100q-16 28 -41 43q-23 13 -54 13t-54 -13q-25 -14 -41 -43q-23 -40 -23 -100v-9zM76 719l69 49l105 -141l105 141l69 -49l-130 -151h-88z" />
    <glyph glyph-name="Gcircumflex" unicode="&#x11c;" 
d="M76 821l130 151h88l130 -151l-69 -49l-105 141l-105 -141zM52 195v345q0 66 27 114q23 40 64 63q45 26 107 26t107 -26q40 -23 63 -64q19 -34 25 -73l-78 -14q-3 28 -17 50q-15 26 -39 40q-26 15 -61 15t-61 -15q-24 -14 -39 -39q-18 -32 -18 -77v-345q0 -45 18 -77
q15 -25 39 -39q26 -15 60 -15q32 0 55 13.5t37 37.5q19 32 19 80v133h-110v72h190v-205q0 -68 -28 -116q-23 -40 -62 -63q-42 -24 -101 -24q-62 0 -106 26q-40 23 -64 64q-27 47 -27 113z" />
    <glyph glyph-name="gcircumflex" unicode="&#x11d;" 
d="M43 -45q0 42 18 73q15 25 39 43q-9 9 -15 20q-13 23 -13 50t14 52q11 19 27 32q-24 19 -39 45q-22 39 -22 92.5t22 91.5q21 36 59 58q45 26 108 26q36 0 65 -8h157v-72l-59 2l4 -6q22 -39 22 -92t-22 -92q-21 -36 -59 -58q-45 -26 -108 -25q-39 0 -71 9q-8 -4 -13 -10
q-14 -14 -14 -32t13 -30q17 -17 63 -19h56q68 0 114 -27q34 -20 52 -50q18 -31 18 -74q0 -44 -20 -79t-60 -58q-52 -30 -129 -30t-128 30q-39 22 -59 57t-20 81zM123 -45q0 -25 11 -44q12 -20 34 -33q32 -19 82 -19t83 19q23 13 35 33q11 19 11 42q0 22 -10 38q-9 16 -27 26
q-27 16 -67 16h-55q-35 0 -60 -15q-18 -11 -28 -27q-9 -15 -9 -36zM132 362q0 -32 13 -55q12 -21 34 -34q25 -15 61.5 -14.5t62.5 14.5q22 13 34 34q13 23 13 55t-13 55q-12 21 -34 34t-50 15h-12q-36 0 -62 -15q-22 -13 -34 -34q-13 -23 -13 -55zM76 616l130 151h88
l130 -151l-69 -49l-105 141l-105 -141z" />
    <glyph glyph-name="Gbreve" unicode="&#x11e;" 
d="M52 195v345q0 66 27 114q23 40 64 63q45 26 107 26t107 -26q40 -23 63 -64q19 -34 25 -73l-78 -14q-3 28 -17 50q-15 26 -39 40q-26 15 -61 15t-61 -15q-24 -14 -39 -39q-18 -32 -18 -77v-345q0 -45 18 -77q15 -25 39 -39q26 -15 60 -15q32 0 55 13.5t37 37.5
q19 32 19 80v133h-110v72h190v-205q0 -68 -28 -116q-23 -40 -62 -63q-42 -24 -101 -24q-62 0 -106 26q-40 23 -64 64q-27 47 -27 113zM90 949h80q0 -30 12 -51q21 -37 68 -37t68 37q12 21 12 51h80q0 -51 -21 -88q-19 -32 -51 -51q-37 -21 -88 -21t-88 21q-32 19 -51 51
q-21 36 -21 88z" />
    <glyph glyph-name="gbreve" unicode="&#x11f;" 
d="M43 -45q0 42 18 73q15 25 39 43q-9 9 -15 20q-13 23 -13 50t14 52q11 19 27 32q-24 19 -39 45q-22 39 -22 92.5t22 91.5q21 36 59 58q45 26 108 26q36 0 65 -8h157v-72l-59 2l4 -6q22 -39 22 -92t-22 -92q-21 -36 -59 -58q-45 -26 -108 -25q-39 0 -71 9q-8 -4 -13 -10
q-14 -14 -14 -32t13 -30q17 -17 63 -19h56q68 0 114 -27q34 -20 52 -50q18 -31 18 -74q0 -44 -20 -79t-60 -58q-52 -30 -129 -30t-128 30q-39 22 -59 57t-20 81zM123 -45q0 -25 11 -44q12 -20 34 -33q32 -19 82 -19t83 19q23 13 35 33q11 19 11 42q0 22 -10 38q-9 16 -27 26
q-27 16 -67 16h-55q-35 0 -60 -15q-18 -11 -28 -27q-9 -15 -9 -36zM132 362q0 -32 13 -55q12 -21 34 -34q25 -15 61.5 -14.5t62.5 14.5q22 13 34 34q13 23 13 55t-13 55q-12 21 -34 34t-50 15h-12q-36 0 -62 -15q-22 -13 -34 -34q-13 -23 -13 -55zM90 744h80q0 -30 12 -51
q21 -37 68 -37t68 37q12 21 12 51h80q0 -51 -21 -88q-19 -32 -51 -51q-37 -21 -88 -21t-88 21q-32 19 -51 51q-21 36 -21 88z" />
    <glyph glyph-name="Gdotaccent" unicode="&#x120;" 
d="M52 195v345q0 66 27 114q23 40 64 63q45 26 107 26t107 -26q40 -23 63 -64q19 -34 25 -73l-78 -14q-3 28 -17 50q-15 26 -39 40q-26 15 -61 15t-61 -15q-24 -14 -39 -39q-18 -32 -18 -77v-345q0 -45 18 -77q15 -25 39 -39q26 -15 60 -15q32 0 55 13.5t37 37.5
q19 32 19 80v133h-110v72h190v-205q0 -68 -28 -116q-23 -40 -62 -63q-42 -24 -101 -24q-62 0 -106 26q-40 23 -64 64q-27 47 -27 113zM188 890q0 20 8 34q7 13 20 20q14 8 34 8.5t34 -8.5q13 -7 20 -20q8 -14 8 -34t-8 -34q-7 -13 -20 -20q-14 -9 -34 -9t-34 9q-13 7 -20 20
q-8 14 -8 34z" />
    <glyph glyph-name="gdotaccent" unicode="&#x121;" 
d="M43 -45q0 42 18 73q15 25 39 43q-9 9 -15 20q-13 23 -13 50t14 52q11 19 27 32q-24 19 -39 45q-22 39 -22 92.5t22 91.5q21 36 59 58q45 26 108 26q36 0 65 -8h157v-72l-59 2l4 -6q22 -39 22 -92t-22 -92q-21 -36 -59 -58q-45 -26 -108 -25q-39 0 -71 9q-8 -4 -13 -10
q-14 -14 -14 -32t13 -30q17 -17 63 -19h56q68 0 114 -27q34 -20 52 -50q18 -31 18 -74q0 -44 -20 -79t-60 -58q-52 -30 -129 -30t-128 30q-39 22 -59 57t-20 81zM123 -45q0 -25 11 -44q12 -20 34 -33q32 -19 82 -19t83 19q23 13 35 33q11 19 11 42q0 22 -10 38q-9 16 -27 26
q-27 16 -67 16h-55q-35 0 -60 -15q-18 -11 -28 -27q-9 -15 -9 -36zM132 362q0 -32 13 -55q12 -21 34 -34q25 -15 61.5 -14.5t62.5 14.5q22 13 34 34q13 23 13 55t-13 55q-12 21 -34 34t-50 15h-12q-36 0 -62 -15q-22 -13 -34 -34q-13 -23 -13 -55zM188 685q0 20 8 34
q7 13 20 20q14 8 34 8.5t34 -8.5q13 -7 20 -20q8 -14 8 -34t-8 -34q-7 -13 -20 -20q-14 -9 -34 -9t-34 9q-13 7 -20 20q-8 14 -8 34z" />
    <glyph glyph-name="Gcommaaccent" unicode="&#x122;" 
d="M52 195v345q0 66 27 114q23 40 64 63q45 26 107 26t107 -26q40 -23 63 -64q19 -34 25 -73l-78 -14q-3 28 -17 50q-15 26 -39 40q-26 15 -61 15t-61 -15q-24 -14 -39 -39q-18 -32 -18 -77v-345q0 -45 18 -77q15 -25 39 -39q26 -15 60 -15q32 0 55 13.5t37 37.5
q19 32 19 80v133h-110v72h190v-205q0 -68 -28 -116q-23 -40 -62 -63q-42 -24 -101 -24q-62 0 -106 26q-40 23 -64 64q-27 47 -27 113zM197 -73.5q0 24.5 14.5 39t38.5 14.5t38.5 -14.5t14.5 -38.5q0 -72 -32 -128q-13 -23 -32 -42l-42 37q31 34 41 81q-16 3 -27 13
q-14 14 -14 38.5z" />
    <glyph glyph-name="gcommaaccent" unicode="&#x123;" 
d="M43 -45q0 42 18 73q15 25 39 43q-9 9 -15 20q-13 23 -13 50t14 52q11 19 27 32q-24 19 -39 45q-22 39 -22 92.5t22 91.5q21 36 59 58q45 26 108 26q36 0 65 -8h157v-72l-59 2l4 -6q22 -39 22 -92t-22 -92q-21 -36 -59 -58q-45 -26 -108 -25q-39 0 -71 9q-8 -4 -13 -10
q-14 -14 -14 -32t13 -30q17 -17 63 -19h56q68 0 114 -27q34 -20 52 -50q18 -31 18 -74q0 -44 -20 -79t-60 -58q-52 -30 -129 -30t-128 30q-39 22 -59 57t-20 81zM123 -45q0 -25 11 -44q12 -20 34 -33q32 -19 82 -19t83 19q23 13 35 33q11 19 11 42q0 22 -10 38q-9 16 -27 26
q-27 16 -67 16h-55q-35 0 -60 -15q-18 -11 -28 -27q-9 -15 -9 -36zM132 362q0 -32 13 -55q12 -21 34 -34q25 -15 61.5 -14.5t62.5 14.5q22 13 34 34q13 23 13 55t-13 55q-12 21 -34 34t-50 15h-12q-36 0 -62 -15q-22 -13 -34 -34q-13 -23 -13 -55zM197 603q0 72 32 128
q13 23 32 42l42 -37q-31 -34 -41 -81q16 -3 27 -13q14 -14 14 -38.5t-14.5 -39t-38.5 -14.5t-38.5 14.5t-14.5 38.5z" />
    <glyph glyph-name="Hcircumflex" unicode="&#x124;" 
d="M60 0v735h80v-313h220v313h80v-735h-80v350h-220v-350h-80zM76 821l130 151h88l130 -151l-69 -49l-105 141l-105 -141z" />
    <glyph glyph-name="hcircumflex" unicode="&#x125;" 
d="M76 821l130 151h88l130 -151l-69 -49l-105 141l-105 -141zM60 0v735h80v-281q2 3 3 6q23 40 58 60q32 18 74 18t73 -18q35 -20 58 -60q34 -59 34 -150v-310h-80v310q0 63 -23 104q-15 27 -39 40q-21 12 -48 12t-48 -12q-23 -13 -39 -40q-23 -40 -23 -104v-310h-80z" />
    <glyph glyph-name="Hbar" unicode="&#x126;" 
d="M18 497v72h42v166h80v-166h220v166h80v-166h42v-72h-42v-497h-80v350h-220v-350h-80v497h-42zM140 422h220v75h-220v-75z" />
    <glyph glyph-name="hbar" unicode="&#x127;" 
d="M18 586v72h42v77h80v-77h110v-72h-110v-132q2 3 3 6q23 40 58 60q32 18 74 18t73 -18q35 -20 58 -60q34 -59 34 -150v-310h-80v310q0 63 -23 104q-15 27 -39 40q-21 12 -48 12t-48 -12q-23 -13 -39 -40q-23 -40 -23 -104v-310h-80v586h-42z" />
    <glyph glyph-name="Itilde" unicode="&#x128;" 
d="M110 0v72h100v591h-100v72h280v-72h-100v-591h100v-72h-280zM67 818q19 46 36 76q26 45 53 61q17 10 36 9q18 0 35 -9q23 -13 54 -62q18 -28 27 -36q11 10 25 33q16 27 34 71l66 -24q-19 -46 -36 -76q-26 -45 -53 -61q-17 -10 -36 -10q-18 0 -35 10q-23 13 -54 61
q-18 28 -27 37q-11 -10 -25 -34q-16 -27 -34 -71z" />
    <glyph glyph-name="itilde" unicode="&#x129;" 
d="M75 0v72h142v386h-128v72h208v-458h128v-72h-350zM67 613q19 46 36 76q26 45 53 61q17 10 36 9q18 0 35 -9q23 -13 54 -62q18 -28 27 -36q11 10 25 33q16 27 34 71l66 -24q-19 -46 -36 -76q-26 -45 -53 -61q-17 -10 -36 -10q-18 0 -35 10q-23 13 -54 61q-18 28 -27 37
q-11 -10 -25 -34q-16 -27 -34 -71z" />
    <glyph glyph-name="Imacron" unicode="&#x12a;" 
d="M110 0v72h100v591h-100v72h280v-72h-100v-591h100v-72h-280zM100 854v72h300v-72h-300z" />
    <glyph glyph-name="imacron" unicode="&#x12b;" 
d="M75 0v72h142v386h-128v72h208v-458h128v-72h-350zM100 649v72h300v-72h-300z" />
    <glyph glyph-name="Ibreve" unicode="&#x12c;" 
d="M110 0v72h100v591h-100v72h280v-72h-100v-591h100v-72h-280zM90 949h80q0 -30 12 -51q21 -37 68 -37t68 37q12 21 12 51h80q0 -51 -21 -88q-19 -32 -51 -51q-37 -21 -88 -21t-88 21q-32 19 -51 51q-21 36 -21 88z" />
    <glyph glyph-name="ibreve" unicode="&#x12d;" 
d="M75 0v72h142v386h-128v72h208v-458h128v-72h-350zM90 744h80q0 -30 12 -51q21 -37 68 -37t68 37q12 21 12 51h80q0 -51 -21 -88q-19 -32 -51 -51q-37 -21 -88 -21t-88 21q-32 19 -51 51q-21 36 -21 88z" />
    <glyph glyph-name="Iogonek" unicode="&#x12e;" 
d="M110 0v72h100v591h-100v72h280v-72h-100v-591h100v-72h-280zM125 -77q0 23 11 43q14 24 39 38q32 19 75 19v-31q-21 0 -35 -14q-12 -12 -12 -28t11 -28q17 -17 61 -17h60v-79h-60q-70 0 -103 19q-23 13 -36 35q-11 20 -11 43z" />
    <glyph glyph-name="iogonek" unicode="&#x12f;" 
d="M75 0v72h142v386h-128v72h208v-458h128v-72h-350zM188 685q0 20 8 34q7 13 20 20q14 8 34 8.5t34 -8.5q13 -7 20 -20q8 -14 8 -34t-8 -34q-7 -13 -20 -20q-14 -9 -34 -9t-34 9q-13 7 -20 20q-8 14 -8 34zM125 -77q0 23 11 43q14 24 39 38q32 19 75 19v-31q-21 0 -35 -14
q-12 -12 -12 -28t11 -28q17 -17 61 -17h60v-79h-60q-70 0 -103 19q-23 13 -36 35q-11 20 -11 43z" />
    <glyph glyph-name="Idotaccent" unicode="&#x130;" 
d="M110 0v72h100v591h-100v72h280v-72h-100v-591h100v-72h-280zM188 890q0 20 8 34q7 13 20 20q14 8 34 8.5t34 -8.5q13 -7 20 -20q8 -14 8 -34t-8 -34q-7 -13 -20 -20q-14 -9 -34 -9t-34 9q-13 7 -20 20q-8 14 -8 34z" />
    <glyph glyph-name="dotlessi" unicode="&#x131;" 
d="M75 0v72h142v386h-128v72h208v-458h128v-72h-350z" />
    <glyph glyph-name="IJ" unicode="&#x132;" 
d="M60 0v735h80v-735h-80zM199 -8v72q71 0 105 19q25 14 39 40q17 29 17 86v526h80v-526q0 -85 -25 -129q-22 -37 -59 -59q-50 -29 -157 -29z" />
    <glyph glyph-name="ij" unicode="&#x133;" 
d="M68 685q0 20 8 34q7 13 20 20q14 8 34 8.5t34 -8.5q13 -7 20 -20q8 -14 8 -34t-8 -34q-7 -13 -20 -20q-14 -9 -34 -9t-34 9q-13 7 -20 20q-8 14 -8 34zM70 -70l76 24q5 -28 17 -50q13 -23 33 -35q18 -10 41 -10t41 10q20 11 32 34q20 34 20 87v540h80v-540
q0 -73 -29 -123q-22 -38 -58 -59t-85.5 -21t-85.5 21t-59 59q-16 29 -23 63zM90 0v530h80v-530h-80zM308 685q0 20 8 34q7 13 20 20q14 8 34 8.5t34 -8.5q13 -7 20 -20q8 -14 8 -34t-8 -34q-7 -13 -20 -20q-14 -9 -34 -9t-34 9q-13 7 -20 20q-8 14 -8 34z" />
    <glyph glyph-name="Jcircumflex" unicode="&#x134;" 
d="M181 821l130 151h88l130 -151l-69 -49l-105 141l-105 -141zM40 155l78 15q3 -30 18 -55q14 -25 37 -38t53.5 -13t52.5 13q23 13 37 38q19 32 19 80v468h-135v72h215v-540q0 -68 -28 -117q-23 -40 -62 -62q-42 -24 -99 -24t-99 24q-39 22 -62 62q-20 35 -25 77z" />
    <glyph glyph-name="jcircumflex" unicode="&#x135;" 
d="M126 616l130 151h88l130 -151l-69 -49l-105 141l-105 -141zM13 -70l76 24q5 -28 17 -50q13 -23 33 -35q18 -10 41 -10t41 10q20 11 32 34q20 34 20 87v468h-135v72h215v-540q0 -73 -29 -123q-22 -38 -58 -59t-85.5 -21t-85.5 21t-59 59q-16 29 -23 63z" />
    <glyph glyph-name="Kcommaaccent" unicode="&#x136;" 
d="M60 0v735h80v-340q115 126 176 232q40 70 40 108h84q0 -45 -48 -128q-41 -71 -102 -151q158 -341 158 -456h-80q0 102 -133 389q-43 -51 -95 -105v-284h-80zM197 -73.5q0 24.5 14.5 39t38.5 14.5t38.5 -14.5t14.5 -38.5q0 -72 -32 -128q-13 -23 -32 -42l-42 37
q31 34 41 81q-16 3 -27 13q-14 14 -14 38.5z" />
    <glyph glyph-name="kcommaaccent" unicode="&#x137;" 
d="M60 0v735h80v-438q158 118 204 198q12 21 12 35h84q0 -19 -17 -48q-38 -66 -131 -152q34 -54 62 -103q94 -163 94 -227h-80q0 52 -71 176q-27 48 -64 103l-93 -74v-205h-80zM197 -73.5q0 24.5 14.5 39t38.5 14.5t38.5 -14.5t14.5 -38.5q0 -72 -32 -128q-13 -23 -32 -42
l-42 37q31 34 41 81q-16 3 -27 13q-14 14 -14 38.5z" />
    <glyph glyph-name="kgreenlandic" unicode="&#x138;" 
d="M60 0v530h80v-233q158 118 204 198q12 21 12 35h84q0 -19 -17 -48q-38 -66 -131 -152q34 -54 62 -103q94 -163 94 -227h-80q0 52 -71 176q-27 48 -64 103l-93 -74v-205h-80z" />
    <glyph glyph-name="Lacute" unicode="&#x139;" 
d="M90 0v735h80v-663h278v-72h-358zM183 811l134 164l66 -52l-145 -155z" />
    <glyph glyph-name="lacute" unicode="&#x13a;" 
d="M75 0v72h142v591h-128v72h208v-663h128v-72h-350zM183 811l134 164l66 -52l-145 -155z" />
    <glyph glyph-name="Lcommaaccent" unicode="&#x13b;" 
d="M90 0v735h80v-663h278v-72h-358zM197 -73.5q0 24.5 14.5 39t38.5 14.5t38.5 -14.5t14.5 -38.5q0 -72 -32 -128q-13 -23 -32 -42l-42 37q31 34 41 81q-16 3 -27 13q-14 14 -14 38.5z" />
    <glyph glyph-name="lcommaaccent" unicode="&#x13c;" 
d="M75 0v72h142v591h-128v72h208v-663h128v-72h-350zM197 -73.5q0 24.5 14.5 39t38.5 14.5t38.5 -14.5t14.5 -38.5q0 -72 -32 -128q-13 -23 -32 -42l-42 37q31 34 41 81q-16 3 -27 13q-14 14 -14 38.5z" />
    <glyph glyph-name="Lcaron" unicode="&#x13d;" 
d="M90 0v735h80v-663h278v-72h-358zM339 715.5q0 24.5 14.5 39t38.5 14.5t38.5 -14.5t14.5 -38.5q0 -72 -32 -128q-13 -23 -32 -42l-42 37q31 34 41 81q-16 3 -27 13q-14 14 -14 38.5z" />
    <glyph glyph-name="lcaron" unicode="&#x13e;" 
d="M75 0v72h142v591h-128v72h208v-663h128v-72h-350zM335 700.5q0 24.5 14.5 39t38.5 14.5t38.5 -14.5t14.5 -38.5q0 -72 -32 -128q-13 -23 -32 -42l-42 37q31 34 41 81q-16 3 -27 13q-14 14 -14 38.5z" />
    <glyph glyph-name="Ldot" unicode="&#x13f;" 
d="M90 0v735h80v-663h278v-72h-358zM245 403q0 20 8 34q7 13 20 20q14 8 34 8.5t34 -8.5q13 -7 20 -20q8 -14 8 -34t-8 -34q-7 -13 -20 -20q-14 -9 -34 -9t-34 9q-13 7 -20 20q-8 14 -8 34z" />
    <glyph glyph-name="ldot" unicode="&#x140;" 
d="M44 0v72h142v591h-128v72h208v-663h128v-72h-350zM316 403q0 20 8 34q7 13 20 20q14 8 34 8.5t34 -8.5q13 -7 20 -20q8 -14 8 -34t-8 -34q-7 -13 -20 -20q-14 -9 -34 -9t-34 9q-13 7 -20 20q-8 14 -8 34z" />
    <glyph glyph-name="Lslash" unicode="&#x141;" 
d="M90 0v735h80v-663h278v-72h-358zM12 365l280 140l36 -64l-280 -140z" />
    <glyph glyph-name="lslash" unicode="&#x142;" 
d="M75 0v72h142v591h-128v72h208v-663h128v-72h-350zM96 344l280 140l36 -64l-280 -140z" />
    <glyph glyph-name="Nacute" unicode="&#x143;" 
d="M60 0v735h111l192 -601q-3 272 -3 307v294h80v-735h-111l-192 601q3 -279 3 -307v-294h-80zM183 811l134 164l66 -52l-145 -155z" />
    <glyph glyph-name="nacute" unicode="&#x144;" 
d="M60 0v530h80v-76q2 3 3 6q23 40 58 60q32 18 74 18t73 -18q35 -20 58 -60q34 -59 34 -150v-310h-80v310q0 63 -23 104q-15 27 -39 40q-21 12 -48 12t-48 -12q-23 -13 -39 -40q-23 -40 -23 -104v-310h-80zM183 606l134 164l66 -52l-145 -155z" />
    <glyph glyph-name="Ncommaaccent" unicode="&#x145;" 
d="M60 0v735h111l192 -601q-3 272 -3 307v294h80v-735h-111l-192 601q3 -279 3 -307v-294h-80zM197 -73.5q0 24.5 14.5 39t38.5 14.5t38.5 -14.5t14.5 -38.5q0 -72 -32 -128q-13 -23 -32 -42l-42 37q31 34 41 81q-16 3 -27 13q-14 14 -14 38.5z" />
    <glyph glyph-name="ncommaaccent" unicode="&#x146;" 
d="M197 -73.5q0 24.5 14.5 39t38.5 14.5t38.5 -14.5t14.5 -38.5q0 -72 -32 -128q-13 -23 -32 -42l-42 37q31 34 41 81q-16 3 -27 13q-14 14 -14 38.5zM60 0v530h80v-76q2 3 3 6q23 40 58 60q32 18 74 18t73 -18q35 -20 58 -60q34 -59 34 -150v-310h-80v310q0 63 -23 104
q-15 27 -39 40q-21 12 -48 12t-48 -12q-23 -13 -39 -40q-23 -40 -23 -104v-310h-80z" />
    <glyph glyph-name="Ncaron" unicode="&#x147;" 
d="M60 0v735h111l192 -601q-3 272 -3 307v294h80v-735h-111l-192 601q3 -279 3 -307v-294h-80zM76 924l69 49l105 -141l105 141l69 -49l-130 -151h-88z" />
    <glyph glyph-name="ncaron" unicode="&#x148;" 
d="M76 719l69 49l105 -141l105 141l69 -49l-130 -151h-88zM60 0v530h80v-76q2 3 3 6q23 40 58 60q32 18 74 18t73 -18q35 -20 58 -60q34 -59 34 -150v-310h-80v310q0 63 -23 104q-15 27 -39 40q-21 12 -48 12t-48 -12q-23 -13 -39 -40q-23 -40 -23 -104v-310h-80z" />
    <glyph glyph-name="napostrophe" unicode="&#x149;" 
d="M7 715.5q0 24.5 14.5 39t38.5 14.5t38.5 -14.5t14.5 -38.5q0 -72 -32 -128q-13 -23 -32 -42l-42 37q31 34 41 81q-16 3 -27 13q-14 14 -14 38.5zM60 0v530h80v-76q2 3 3 6q23 40 58 60q32 18 74 18t73 -18q35 -20 58 -60q34 -59 34 -150v-310h-80v310q0 63 -23 104
q-15 27 -39 40q-21 12 -48 12t-48 -12q-23 -13 -39 -40q-23 -40 -23 -104v-310h-80z" />
    <glyph glyph-name="Eng" unicode="&#x14a;" 
d="M60 0v735h80v-56q20 28 48 44q35 20 82.5 20t82.5 -20q36 -21 58 -59q29 -50 29 -124v-357q0 -61 -25 -104q-22 -39 -61 -61q-45 -26 -108 -26v72q35 0 61 15q23 13 37 37q16 28 16 67v357q0 46 -18 78q-15 25 -39 39t-57 14t-57 -14q-35 -20 -49 -62v-595h-80z" />
    <glyph glyph-name="eng" unicode="&#x14b;" 
d="M60 0v530h80v-76q2 3 3 6q23 40 58 60q32 18 74 18t73 -18q35 -20 58 -60q34 -59 34 -150v-310q0 -57 -24 -99q-23 -39 -64 -63q-50 -29 -122 -29v72q44 0 75 18q55 32 55 101v310q0 63 -23 104q-15 27 -39 40q-21 12 -48 12t-48 -12q-23 -13 -39 -40q-23 -40 -23 -104
v-310h-80z" />
    <glyph glyph-name="Omacron" unicode="&#x14c;" 
d="M100 854v72h300v-72h-300zM52 195v345q0 66 27 113q23 40 64 64q45 26 107 26t107 -26q40 -23 64 -64q27 -47 27 -113v-345q0 -66 -27 -113q-23 -40 -64 -64q-45 -26 -107 -26t-107 26q-40 23 -64 64q-27 47 -27 113zM132 195q0 -45 18 -77q15 -25 39 -39q26 -15 61 -15
t61 15q25 14 39 39q18 31 18 77v345q0 45 -18 77q-15 25 -39 39q-26 15 -61 15t-61 -15q-25 -14 -39 -39q-18 -31 -18 -77v-345z" />
    <glyph glyph-name="omacron" unicode="&#x14d;" 
d="M100 649v72h300v-72h-300zM52 220v90q0 81 32 136q25 44 67 68t99 24t99 -24q41 -24 67 -68q32 -55 32 -136v-90q0 -81 -32 -136q-19 -33 -47 -55q-9 -7 -20 -13q-42 -24 -99 -24t-99 24q-41 24 -67 68q-32 55 -32 136zM132 220q0 -61 23 -100q16 -28 41 -43
q23 -13 54 -13t54 13q25 14 41 43q23 40 23 100v90q0 61 -23 100q-16 28 -41 43q-23 13 -54 13t-54 -13q-25 -14 -41 -43q-23 -40 -23 -100v-90z" />
    <glyph glyph-name="Obreve" unicode="&#x14e;" 
d="M90 949h80q0 -30 12 -51q21 -37 68 -37t68 37q12 21 12 51h80q0 -51 -21 -88q-19 -32 -51 -51q-37 -21 -88 -21t-88 21q-32 19 -51 51q-21 36 -21 88zM52 195v345q0 66 27 113q23 40 64 64q45 26 107 26t107 -26q40 -23 64 -64q27 -47 27 -113v-345q0 -66 -27 -113
q-23 -40 -64 -64q-45 -26 -107 -26t-107 26q-40 23 -64 64q-27 47 -27 113zM132 195q0 -45 18 -77q15 -25 39 -39q26 -15 61 -15t61 15q25 14 39 39q18 31 18 77v345q0 45 -18 77q-15 25 -39 39q-26 15 -61 15t-61 -15q-25 -14 -39 -39q-18 -31 -18 -77v-345z" />
    <glyph glyph-name="obreve" unicode="&#x14f;" 
d="M90 744h80q0 -30 12 -51q21 -37 68 -37t68 37q12 21 12 51h80q0 -51 -21 -88q-19 -32 -51 -51q-37 -21 -88 -21t-88 21q-32 19 -51 51q-21 36 -21 88zM52 220v90q0 81 32 136q25 44 67 68t99 24t99 -24q41 -24 67 -68q32 -55 32 -136v-90q0 -81 -32 -136q-19 -33 -47 -55
q-9 -7 -20 -13q-42 -24 -99 -24t-99 24q-41 24 -67 68q-32 55 -32 136zM132 220q0 -61 23 -100q16 -28 41 -43q23 -13 54 -13t54 13q25 14 41 43q23 40 23 100v90q0 61 -23 100q-16 28 -41 43q-23 13 -54 13t-54 -13q-25 -14 -41 -43q-23 -40 -23 -100v-90z" />
    <glyph glyph-name="Ohungarumlaut" unicode="&#x150;" 
d="M268 811l134 164l66 -52l-145 -155zM98 811l134 164l66 -52l-145 -155zM52 195v345q0 66 27 113q23 40 64 64q45 26 107 26t107 -26q40 -23 64 -64q27 -47 27 -113v-345q0 -66 -27 -113q-23 -40 -64 -64q-45 -26 -107 -26t-107 26q-40 23 -64 64q-27 47 -27 113zM132 195
q0 -45 18 -77q15 -25 39 -39q26 -15 61 -15t61 15q25 14 39 39q18 31 18 77v345q0 45 -18 77q-15 25 -39 39q-26 15 -61 15t-61 -15q-25 -14 -39 -39q-18 -31 -18 -77v-345z" />
    <glyph glyph-name="ohungarumlaut" unicode="&#x151;" 
d="M268 606l134 164l66 -52l-145 -155zM98 606l134 164l66 -52l-145 -155zM52 220v90q0 81 32 136q25 44 67 68t99 24t99 -24q41 -24 67 -68q32 -55 32 -136v-90q0 -81 -32 -136q-19 -33 -47 -55q-9 -7 -20 -13q-42 -24 -99 -24t-99 24q-41 24 -67 68q-32 55 -32 136z
M132 220q0 -61 23 -100q16 -28 41 -43q23 -13 54 -13t54 13q25 14 41 43q23 40 23 100v90q0 61 -23 100q-16 28 -41 43q-23 13 -54 13t-54 -13q-25 -14 -41 -43q-23 -40 -23 -100v-90z" />
    <glyph glyph-name="OE" unicode="&#x152;" 
d="M60 195v345q0 64 26 109q22 39 61 61q43 25 103 25h190v-72h-110v-230h92v-72h-92v-289h110v-72h-190q-60 0 -103 25q-38 22 -61 61q-26 45 -26 109zM140 195q0 -43 17 -72q29 -51 93 -51v591q-64 0 -93 -51q-17 -30 -17 -72v-345z" />
    <glyph glyph-name="oe" unicode="&#x153;" 
d="M44 132v266q0 49 20 83q16 27 41 42q26 15 62 15t62 -15q11 -7 21 -16q9 9 21 16q26 15 62 15t62 -15t41 -42q20 -34 20 -83v-169h-166v-97q0 -39 18 -57q11 -11 27.5 -11t27.5 11q18 18 18 54v2l80 -1v-4q0 -43 -19 -76q-16 -27 -42 -42q-27 -16 -64.5 -16t-64.5 16
q-11 7 -21 15q-10 -9 -21 -16q-26 -15 -62 -15t-62 15t-41 42q-20 34 -20 83zM124 132q0 -40 18 -58q10 -10 25 -10t25 10q18 18 18 58v266q0 40 -18 58q-10 10 -25 10t-25 -10q-18 -18 -18 -58v-266zM290 301h86v97q0 40 -18 58q-10 10 -25 10t-25 -10q-18 -18 -18 -58v-97
z" />
    <glyph glyph-name="Racute" unicode="&#x154;" 
d="M60 0v735h191q60 0 105 -25q40 -23 64 -65q28 -49 28 -119.5t-28 -119.5q-24 -42 -64 -65q-18 -10 -39 -17q27 -40 50 -78q81 -141 81 -246h-80q0 90 -69 210q-29 51 -70 105h-89v-315h-80zM140 387h111q66 0 98 55q19 34 19 83.5t-19 82.5q-31 55 -98 55h-111v-276z
M183 811l134 164l66 -52l-145 -155z" />
    <glyph glyph-name="racute" unicode="&#x155;" 
d="M120 0v530h80v-99q7 20 17 36q22 38 53 56q25 15 58 15q35 0 65 -17q31 -18 49 -49q9 -15 13 -32l-75 -34q-3 12 -9 23q-11 19 -28 29q-14 8 -32 8q-24 0 -43 -11q-23 -13 -39 -41q-29 -50 -29 -133v-281h-80zM183 606l134 164l66 -52l-145 -155z" />
    <glyph glyph-name="Rcommaaccent" unicode="&#x156;" 
d="M60 0v735h191q60 0 105 -25q40 -23 64 -65q28 -49 28 -119.5t-28 -119.5q-24 -42 -64 -65q-18 -10 -39 -17q27 -40 50 -78q81 -141 81 -246h-80q0 90 -69 210q-29 51 -70 105h-89v-315h-80zM140 387h111q66 0 98 55q19 34 19 83.5t-19 82.5q-31 55 -98 55h-111v-276z
M197 -73.5q0 24.5 14.5 39t38.5 14.5t38.5 -14.5t14.5 -38.5q0 -72 -32 -128q-13 -23 -32 -42l-42 37q31 34 41 81q-16 3 -27 13q-14 14 -14 38.5z" />
    <glyph glyph-name="rcommaaccent" unicode="&#x157;" 
d="M120 0v530h80v-99q7 20 17 36q22 38 53 56q25 15 58 15q35 0 65 -17q31 -18 49 -49q9 -15 13 -32l-75 -34q-3 12 -9 23q-11 19 -28 29q-14 8 -32 8q-24 0 -43 -11q-23 -13 -39 -41q-29 -50 -29 -133v-281h-80zM197 -73.5q0 24.5 14.5 39t38.5 14.5t38.5 -14.5t14.5 -38.5
q0 -72 -32 -128q-13 -23 -32 -42l-42 37q31 34 41 81q-16 3 -27 13q-14 14 -14 38.5z" />
    <glyph glyph-name="Rcaron" unicode="&#x158;" 
d="M60 0v735h191q60 0 105 -25q40 -23 64 -65q28 -49 28 -119.5t-28 -119.5q-24 -42 -64 -65q-18 -10 -39 -17q27 -40 50 -78q81 -141 81 -246h-80q0 90 -69 210q-29 51 -70 105h-89v-315h-80zM140 387h111q66 0 98 55q19 34 19 83.5t-19 82.5q-31 55 -98 55h-111v-276z
M76 924l69 49l105 -141l105 141l69 -49l-130 -151h-88z" />
    <glyph glyph-name="rcaron" unicode="&#x159;" 
d="M120 0v530h80v-99q7 20 17 36q22 38 53 56q25 15 58 15q35 0 65 -17q31 -18 49 -49q9 -15 13 -32l-75 -34q-3 12 -9 23q-11 19 -28 29q-14 8 -32 8q-24 0 -43 -11q-23 -13 -39 -41q-29 -50 -29 -133v-281h-80zM76 719l69 49l105 -141l105 141l69 -49l-130 -151h-88z" />
    <glyph glyph-name="Sacute" unicode="&#x15a;" 
d="M183 811l134 164l66 -52l-145 -155zM55 153v2l79 11v-7q0 -24 12 -45q13 -22 35 -34q27 -16 66 -16q36 0 61 15q23 13 37 36q16 27 15 60q0 33 -18 65q-25 44 -107 89q-111 63 -146 125q-29 50 -29 105q0 54 25 97q22 39 62 61q44 26 106 26q66 0 113 -27q37 -22 58 -58
t21 -76v-2l-79 -11v7q0 24 -12 45q-13 22 -35 34q-27 16 -66 16q-36 0 -61 -15q-23 -13 -37 -36q-16 -27 -15 -60q0 -33 18 -65q25 -44 107 -89q111 -63 146 -125q29 -50 29 -105q0 -54 -25 -97q-22 -39 -62 -61q-44 -26 -106 -26q-66 0 -113 27q-37 22 -58 58t-21 76z" />
    <glyph glyph-name="sacute" unicode="&#x15b;" 
d="M183 606l134 164l66 -52l-145 -155zM57 110l75 24q3 -9 8 -18q13 -23 37 -36q28 -16 71 -16q47 0 77 17q19 11 28 27q8 14 8 32q0 19 -10 36q-10 18 -30 30q-24 14 -80 20q-70 8 -105 28q-36 21 -56 56q-21 36 -21 80q0 39 17 69q18 31 53 51q49 28 123 28q70 0 117 -27
q38 -22 60 -60q9 -15 14 -31l-75 -24q-3 9 -8 18q-13 23 -37 36q-28 16 -71 16q-47 0 -77 -17q-19 -11 -28 -27q-8 -14 -8 -32q0 -19 10 -36q10 -18 30 -30q24 -14 80 -20q70 -8 105 -28q36 -21 56 -56q21 -36 21 -80q0 -39 -17 -69q-18 -31 -53 -51q-49 -28 -123 -28
q-70 0 -117 27q-38 22 -60 60q-9 15 -14 31z" />
    <glyph glyph-name="Scircumflex" unicode="&#x15c;" 
d="M76 821l130 151h88l130 -151l-69 -49l-105 141l-105 -141zM55 153v2l79 11v-7q0 -24 12 -45q13 -22 35 -34q27 -16 66 -16q36 0 61 15q23 13 37 36q16 27 15 60q0 33 -18 65q-25 44 -107 89q-111 63 -146 125q-29 50 -29 105q0 54 25 97q22 39 62 61q44 26 106 26
q66 0 113 -27q37 -22 58 -58t21 -76v-2l-79 -11v7q0 24 -12 45q-13 22 -35 34q-27 16 -66 16q-36 0 -61 -15q-23 -13 -37 -36q-16 -27 -15 -60q0 -33 18 -65q25 -44 107 -89q111 -63 146 -125q29 -50 29 -105q0 -54 -25 -97q-22 -39 -62 -61q-44 -26 -106 -26q-66 0 -113 27
q-37 22 -58 58t-21 76z" />
    <glyph glyph-name="scircumflex" unicode="&#x15d;" 
d="M76 616l130 151h88l130 -151l-69 -49l-105 141l-105 -141zM57 110l75 24q3 -9 8 -18q13 -23 37 -36q28 -16 71 -16q47 0 77 17q19 11 28 27q8 14 8 32q0 19 -10 36q-10 18 -30 30q-24 14 -80 20q-70 8 -105 28q-36 21 -56 56q-21 36 -21 80q0 39 17 69q18 31 53 51
q49 28 123 28q70 0 117 -27q38 -22 60 -60q9 -15 14 -31l-75 -24q-3 9 -8 18q-13 23 -37 36q-28 16 -71 16q-47 0 -77 -17q-19 -11 -28 -27q-8 -14 -8 -32q0 -19 10 -36q10 -18 30 -30q24 -14 80 -20q70 -8 105 -28q36 -21 56 -56q21 -36 21 -80q0 -39 -17 -69
q-18 -31 -53 -51q-49 -28 -123 -28q-70 0 -117 27q-38 22 -60 60q-9 15 -14 31z" />
    <glyph glyph-name="Scedilla" unicode="&#x15e;" 
d="M150 -142h100q14 0 22 8q6 6 6 15.5t-6 15.5q-8 8 -22 7h-40v96h80v-29q38 -11 56 -42q12 -20 12 -48t-12 -48q-11 -20 -32 -32q-26 -15 -64 -15h-100v72zM55 153v2l79 11v-7q0 -24 12 -45q13 -22 35 -34q27 -16 66 -16q36 0 61 15q23 13 37 36q16 27 15 60q0 33 -18 65
q-25 44 -107 89q-111 63 -146 125q-29 50 -29 105q0 54 25 97q22 39 62 61q44 26 106 26q66 0 113 -27q37 -22 58 -58t21 -76v-2l-79 -11v7q0 24 -12 45q-13 22 -35 34q-27 16 -66 16q-36 0 -61 -15q-23 -13 -37 -36q-16 -27 -15 -60q0 -33 18 -65q25 -44 107 -89
q111 -63 146 -125q29 -50 29 -105q0 -54 -25 -97q-22 -39 -62 -61q-44 -26 -106 -26q-66 0 -113 27q-37 22 -58 58t-21 76z" />
    <glyph glyph-name="scedilla" unicode="&#x15f;" 
d="M150 -142h100q14 0 22 8q6 6 6 15.5t-6 15.5q-8 8 -22 7h-40v96h80v-29q38 -11 56 -42q12 -20 12 -48t-12 -48q-11 -20 -32 -32q-26 -15 -64 -15h-100v72zM57 110l75 24q3 -9 8 -18q13 -23 37 -36q28 -16 71 -16q47 0 77 17q19 11 28 27q8 14 8 32q0 19 -10 36
q-10 18 -30 30q-24 14 -80 20q-70 8 -105 28q-36 21 -56 56q-21 36 -21 80q0 39 17 69q18 31 53 51q49 28 123 28q70 0 117 -27q38 -22 60 -60q9 -15 14 -31l-75 -24q-3 9 -8 18q-13 23 -37 36q-28 16 -71 16q-47 0 -77 -17q-19 -11 -28 -27q-8 -14 -8 -32q0 -19 10 -36
q10 -18 30 -30q24 -14 80 -20q70 -8 105 -28q36 -21 56 -56q21 -36 21 -80q0 -39 -17 -69q-18 -31 -53 -51q-49 -28 -123 -28q-70 0 -117 27q-38 22 -60 60q-9 15 -14 31z" />
    <glyph glyph-name="Scaron" unicode="&#x160;" 
d="M76 924l69 49l105 -141l105 141l69 -49l-130 -151h-88zM55 153v2l79 11v-7q0 -24 12 -45q13 -22 35 -34q27 -16 66 -16q36 0 61 15q23 13 37 36q16 27 15 60q0 33 -18 65q-25 44 -107 89q-111 63 -146 125q-29 50 -29 105q0 54 25 97q22 39 62 61q44 26 106 26
q66 0 113 -27q37 -22 58 -58t21 -76v-2l-79 -11v7q0 24 -12 45q-13 22 -35 34q-27 16 -66 16q-36 0 -61 -15q-23 -13 -37 -36q-16 -27 -15 -60q0 -33 18 -65q25 -44 107 -89q111 -63 146 -125q29 -50 29 -105q0 -54 -25 -97q-22 -39 -62 -61q-44 -26 -106 -26q-66 0 -113 27
q-37 22 -58 58t-21 76z" />
    <glyph glyph-name="scaron" unicode="&#x161;" 
d="M76 719l69 49l105 -141l105 141l69 -49l-130 -151h-88zM57 110l75 24q3 -9 8 -18q13 -23 37 -36q28 -16 71 -16q47 0 77 17q19 11 28 27q8 14 8 32q0 19 -10 36q-10 18 -30 30q-24 14 -80 20q-70 8 -105 28q-36 21 -56 56q-21 36 -21 80q0 39 17 69q18 31 53 51
q49 28 123 28q70 0 117 -27q38 -22 60 -60q9 -15 14 -31l-75 -24q-3 9 -8 18q-13 23 -37 36q-28 16 -71 16q-47 0 -77 -17q-19 -11 -28 -27q-8 -14 -8 -32q0 -19 10 -36q10 -18 30 -30q24 -14 80 -20q70 -8 105 -28q36 -21 56 -56q21 -36 21 -80q0 -39 -17 -69
q-18 -31 -53 -51q-49 -28 -123 -28q-70 0 -117 27q-38 22 -60 60q-9 15 -14 31z" />
    <glyph glyph-name="Tcommaaccent" unicode="&#x162;" 
d="M60 663v72h380v-72h-150v-663h-80v663h-150zM150 -142h100q14 0 22 8q6 6 6 15.5t-6 15.5q-8 8 -22 7h-40v96h80v-29q38 -11 56 -42q12 -20 12 -48t-12 -48q-11 -20 -32 -32q-26 -15 -64 -15h-100v72z" />
    <glyph glyph-name="tcommaaccent" unicode="&#x163;" 
d="M51 458v72h109v205h80v-205h161v-72h-161v-264q0 -55 20 -90q12 -21 30 -31q15 -9 35.5 -9t35.5 9q8 5 16 12q30 30 34 87l78 -17q-5 -48 -27 -85.5t-57 -57.5q-34 -20 -79.5 -20t-79.5 20q-35 20 -57 57q-29 50 -29 125v264h-109zM204 -142h100q14 0 22 8q6 6 6 15.5
t-6 15.5q-8 8 -22 7h-40v96h80v-29q38 -11 56 -42q12 -20 12 -48t-12 -48q-11 -20 -32 -32q-26 -15 -64 -15h-100v72z" />
    <glyph glyph-name="Tcaron" unicode="&#x164;" 
d="M60 663v72h380v-72h-150v-663h-80v663h-150zM76 924l69 49l105 -141l105 141l69 -49l-130 -151h-88z" />
    <glyph glyph-name="tcaron" unicode="&#x165;" 
d="M51 458v72h109v205h80v-205h161v-72h-161v-264q0 -55 20 -90q12 -21 30 -31q15 -9 35.5 -9t35.5 9q8 5 16 12q30 30 34 87l78 -17q-5 -48 -27 -85.5t-57 -57.5q-34 -20 -79.5 -20t-79.5 20q-35 20 -57 57q-29 50 -29 125v264h-109zM335 700.5q0 24.5 14.5 39t38.5 14.5
t38.5 -14.5t14.5 -38.5q0 -72 -32 -128q-13 -23 -32 -42l-42 37q31 34 41 81q-16 3 -27 13q-14 14 -14 38.5z" />
    <glyph glyph-name="Tbar" unicode="&#x166;" 
d="M60 663v72h380v-72h-150v-296h112v-72h-112v-295h-80v295h-112v72h112v296h-150z" />
    <glyph glyph-name="tbar" unicode="&#x167;" 
d="M51 458v72h109v205h80v-205h161v-72h-161v-104h98v-72h-98v-88q0 -55 20 -90q12 -21 30 -31q15 -9 35.5 -9t35.5 9q8 5 16 12q30 30 34 87l78 -17q-5 -48 -27 -85.5t-57 -57.5q-34 -20 -79.5 -20t-79.5 20q-35 20 -57 57q-29 50 -29 125v88h-88v72h88v104h-109z" />
    <glyph glyph-name="Utilde" unicode="&#x168;" 
d="M67 818q19 46 36 76q26 45 53 61q17 10 36 9q18 0 35 -9q23 -13 54 -62q18 -28 27 -36q11 10 25 33q16 27 34 71l66 -24q-19 -46 -36 -76q-26 -45 -53 -61q-17 -10 -36 -10q-18 0 -35 10q-23 13 -54 61q-18 28 -27 37q-11 -10 -25 -34q-16 -27 -34 -71zM60 195v540h80
v-540q0 -47 19 -80q14 -25 37 -38t54 -13t54 13.5t37 37.5q19 32 19 80v540h80v-540q0 -68 -28 -116q-23 -40 -62 -63q-42 -24 -100 -24t-100 24q-39 23 -62 63q-28 48 -28 116z" />
    <glyph glyph-name="utilde" unicode="&#x169;" 
d="M60 220v310h80v-310q0 -63 23 -104q15 -27 39 -40q21 -12 48 -12t48 12q23 13 39 40q23 40 23 104v310h80v-530h-80v76q-2 -3 -3 -6q-23 -40 -58 -60q-32 -18 -74 -18t-73 18q-35 20 -58 60q-34 59 -34 150zM67 613q19 46 36 76q26 45 53 61q17 10 36 9q18 0 35 -9
q23 -13 54 -62q18 -28 27 -36q11 10 25 33q16 27 34 71l66 -24q-19 -46 -36 -76q-26 -45 -53 -61q-17 -10 -36 -10q-18 0 -35 10q-23 13 -54 61q-18 28 -27 37q-11 -10 -25 -34q-16 -27 -34 -71z" />
    <glyph glyph-name="Umacron" unicode="&#x16a;" 
d="M100 854v72h300v-72h-300zM60 195v540h80v-540q0 -47 19 -80q14 -25 37 -38t54 -13t54 13.5t37 37.5q19 32 19 80v540h80v-540q0 -68 -28 -116q-23 -40 -62 -63q-42 -24 -100 -24t-100 24q-39 23 -62 63q-28 48 -28 116z" />
    <glyph glyph-name="umacron" unicode="&#x16b;" 
d="M60 220v310h80v-310q0 -63 23 -104q15 -27 39 -40q21 -12 48 -12t48 12q23 13 39 40q23 40 23 104v310h80v-530h-80v76q-2 -3 -3 -6q-23 -40 -58 -60q-32 -18 -74 -18t-73 18q-35 20 -58 60q-34 59 -34 150zM100 649v72h300v-72h-300z" />
    <glyph glyph-name="Ubreve" unicode="&#x16c;" 
d="M90 949h80q0 -30 12 -51q21 -37 68 -37t68 37q12 21 12 51h80q0 -51 -21 -88q-19 -32 -51 -51q-37 -21 -88 -21t-88 21q-32 19 -51 51q-21 36 -21 88zM60 195v540h80v-540q0 -47 19 -80q14 -25 37 -38t54 -13t54 13.5t37 37.5q19 32 19 80v540h80v-540q0 -68 -28 -116
q-23 -40 -62 -63q-42 -24 -100 -24t-100 24q-39 23 -62 63q-28 48 -28 116z" />
    <glyph glyph-name="ubreve" unicode="&#x16d;" 
d="M60 220v310h80v-310q0 -63 23 -104q15 -27 39 -40q21 -12 48 -12t48 12q23 13 39 40q23 40 23 104v310h80v-530h-80v76q-2 -3 -3 -6q-23 -40 -58 -60q-32 -18 -74 -18t-73 18q-35 20 -58 60q-34 59 -34 150zM90 744h80q0 -30 12 -51q21 -37 68 -37t68 37q12 21 12 51h80
q0 -51 -21 -88q-19 -32 -51 -51q-37 -21 -88 -21t-88 21q-32 19 -51 51q-21 36 -21 88z" />
    <glyph glyph-name="Uring" unicode="&#x16e;" 
d="M154 865.5q0 30.5 13 52.5q11 19 30 31q22 13 53 13t53 -13q19 -11 30 -31q13 -22 13 -52.5t-13 -52.5q-11 -19 -30 -31q-22 -12 -53 -12t-53 12q-19 11 -30 31q-13 22 -13 52.5zM213 866q0 -17 10 -27.5t27 -10t27 10.5t10 27t-10 27t-27 10t-27 -10t-10 -27zM60 195
v540h80v-540q0 -47 19 -80q14 -25 37 -38t54 -13t54 13.5t37 37.5q19 32 19 80v540h80v-540q0 -68 -28 -116q-23 -40 -62 -63q-42 -24 -100 -24t-100 24q-39 23 -62 63q-28 48 -28 116z" />
    <glyph glyph-name="uring" unicode="&#x16f;" 
d="M154 660.5q0 30.5 13 52.5q11 19 30 31q22 13 53 13t53 -13q19 -11 30 -31q13 -22 13 -52.5t-13 -52.5q-11 -19 -30 -31q-22 -12 -53 -12t-53 12q-19 11 -30 31q-13 22 -13 52.5zM213 661q0 -17 10 -27.5t27 -10t27 10.5t10 27t-10 27t-27 10t-27 -10t-10 -27zM60 220
v310h80v-310q0 -63 23 -104q15 -27 39 -40q21 -12 48 -12t48 12q23 13 39 40q23 40 23 104v310h80v-530h-80v76q-2 -3 -3 -6q-23 -40 -58 -60q-32 -18 -74 -18t-73 18q-35 20 -58 60q-34 59 -34 150z" />
    <glyph glyph-name="Uhungarumlaut" unicode="&#x170;" 
d="M268 811l134 164l66 -52l-145 -155zM98 811l134 164l66 -52l-145 -155zM60 195v540h80v-540q0 -47 19 -80q14 -25 37 -38t54 -13t54 13.5t37 37.5q19 32 19 80v540h80v-540q0 -68 -28 -116q-23 -40 -62 -63q-42 -24 -100 -24t-100 24q-39 23 -62 63q-28 48 -28 116z" />
    <glyph glyph-name="uhungarumlaut" unicode="&#x171;" 
d="M268 606l134 164l66 -52l-145 -155zM98 606l134 164l66 -52l-145 -155zM60 220v310h80v-310q0 -63 23 -104q15 -27 39 -40q21 -12 48 -12t48 12q23 13 39 40q23 40 23 104v310h80v-530h-80v76q-2 -3 -3 -6q-23 -40 -58 -60q-32 -18 -74 -18t-73 18q-35 20 -58 60
q-34 59 -34 150z" />
    <glyph glyph-name="Uogonek" unicode="&#x172;" 
d="M125 -77q0 23 11 43q14 24 39 38q32 19 75 19v-31q-21 0 -35 -14q-12 -12 -12 -28t11 -28q17 -17 61 -17h60v-79h-60q-70 0 -103 19q-23 13 -36 35q-11 20 -11 43zM60 195v540h80v-540q0 -47 19 -80q14 -25 37 -38t54 -13t54 13.5t37 37.5q19 32 19 80v540h80v-540
q0 -68 -28 -116q-23 -40 -62 -63q-42 -24 -100 -24t-100 24q-39 23 -62 63q-28 48 -28 116z" />
    <glyph glyph-name="uogonek" unicode="&#x173;" 
d="M60 220v310h80v-310q0 -63 23 -104q15 -27 39 -40q21 -12 48 -12t48 12q23 13 39 40q23 40 23 104v310h80v-530h-80v76q-2 -3 -3 -6q-23 -40 -58 -60q-32 -18 -74 -18t-73 18q-35 20 -58 60q-34 59 -34 150zM279 -77q0 23 11 43q14 24 39 38q32 19 75 19v-31
q-21 0 -35 -14q-12 -12 -12 -28t11 -28q17 -17 61 -17h60v-79h-60q-70 0 -103 19q-23 13 -36 35q-11 20 -11 43z" />
    <glyph glyph-name="Wcircumflex" unicode="&#x174;" 
d="M60 551v184h80v-184q0 -134 24 -410l61 300h50l61 -300q24 276 24 410v184h80v-184q0 -167 -77 -551h-51l-62 313l-62 -313h-51q-77 384 -77 551zM76 821l130 151h88l130 -151l-69 -49l-105 141l-105 -141z" />
    <glyph glyph-name="wcircumflex" unicode="&#x175;" 
d="M60 398v132h80v-132q0 -96 24 -295l61 215h50l61 -215q24 199 24 295v132h80v-132q0 -121 -77 -398h-51l-62 226l-62 -226h-51q-77 278 -77 398zM76 616l130 151h88l130 -151l-69 -49l-105 141l-105 -141z" />
    <glyph glyph-name="Ycircumflex" unicode="&#x176;" 
d="M60 691v44h80v-44q0 -103 55 -209l55 -104l55 104q55 106 55 209v44h80v-44q0 -119 -65 -242l-85 -163v-286h-80v286l-85 163q-65 123 -65 242zM76 821l130 151h88l130 -151l-69 -49l-105 141l-105 -141z" />
    <glyph glyph-name="ycircumflex" unicode="&#x177;" 
d="M76 616l130 151h88l130 -151l-69 -49l-105 141l-105 -141zM60 493v37h80v-37q0 -52 30 -140l79 -235l81 235q30 86 30 140v37h80v-37q0 -65 -34 -164l-158 -456q-8 -22 -8 -71v-7h-80v7q0 59 12 95l38 108l-116 324q-34 96 -34 164z" />
    <glyph glyph-name="Ydieresis" unicode="&#x178;" 
d="M60 691v44h80v-44q0 -103 55 -209l55 -104l55 104q55 106 55 209v44h80v-44q0 -119 -65 -242l-85 -163v-286h-80v286l-85 163q-65 123 -65 242zM288 890q0 20 8 34q7 13 20 20q14 8 34 8.5t34 -8.5q13 -7 20 -20q8 -14 8 -34t-8 -34q-7 -13 -20 -20q-14 -9 -34 -9t-34 9
q-13 7 -20 20q-8 14 -8 34zM88 890q0 20 8 34q7 13 20 20q14 8 34 8.5t34 -8.5q13 -7 20 -20q8 -14 8 -34t-8 -34q-7 -13 -20 -20q-14 -9 -34 -9t-34 9q-13 7 -20 20q-8 14 -8 34z" />
    <glyph glyph-name="Zacute" unicode="&#x179;" 
d="M60 0v72l288 591h-288v72h380v-72l-288 -591h288v-72h-380zM183 811l134 164l66 -52l-145 -155z" />
    <glyph glyph-name="zacute" unicode="&#x17a;" 
d="M60 0v72l284 386h-284v72h380v-72l-284 -386h284v-72h-380zM183 606l134 164l66 -52l-145 -155z" />
    <glyph glyph-name="Zdotaccent" unicode="&#x17b;" 
d="M60 0v72l288 591h-288v72h380v-72l-288 -591h288v-72h-380zM188 890q0 20 8 34q7 13 20 20q14 8 34 8.5t34 -8.5q13 -7 20 -20q8 -14 8 -34t-8 -34q-7 -13 -20 -20q-14 -9 -34 -9t-34 9q-13 7 -20 20q-8 14 -8 34z" />
    <glyph glyph-name="zdotaccent" unicode="&#x17c;" 
d="M60 0v72l284 386h-284v72h380v-72l-284 -386h284v-72h-380zM188 685q0 20 8 34q7 13 20 20q14 8 34 8.5t34 -8.5q13 -7 20 -20q8 -14 8 -34t-8 -34q-7 -13 -20 -20q-14 -9 -34 -9t-34 9q-13 7 -20 20q-8 14 -8 34z" />
    <glyph glyph-name="Zcaron" unicode="&#x17d;" 
d="M60 0v72l288 591h-288v72h380v-72l-288 -591h288v-72h-380zM76 924l69 49l105 -141l105 141l69 -49l-130 -151h-88z" />
    <glyph glyph-name="zcaron" unicode="&#x17e;" 
d="M60 0v72l284 386h-284v72h380v-72l-284 -386h284v-72h-380zM76 719l69 49l105 -141l105 141l69 -49l-130 -151h-88z" />
    <glyph glyph-name="longs" unicode="&#x17f;" 
d="M147 0v540q0 73 29 123q22 38 58 59t84.5 21t84 -20.5t57.5 -59.5q21 -37 27 -83l-78 -16q-3 37 -19 63q-13 23 -32 34q-17 10 -39.5 10t-39.5 -10q-19 -11 -32 -33q-20 -34 -20 -88v-540h-80z" />
    <glyph glyph-name="uni0180" unicode="&#x180;" 
d="M18 586v72h42v77h80v-77h110v-72h-110v-132q2 3 3 6q23 40 58 60q32 18 74 18q45 0 79 -20q37 -21 61 -62q33 -58 33 -146v-90q0 -88 -33 -146q-24 -41 -61 -62q-34 -20 -79 -20q-42 0 -74 18q-35 20 -58 60q-2 3 -3 6v-76h-80v586h-42zM140 220q0 -63 23 -104
q15 -27 39 -40q21 -12 49 -12q30 0 53 13q25 14 41 43q23 40 23 100v90q0 61 -23 100q-16 28 -41 43q-23 13 -53 13q-28 0 -49 -12q-23 -13 -39 -40q-23 -40 -23 -104v-90z" />
    <glyph glyph-name="uni0181" unicode="&#x181;" 
d="M-37 565q0 79 27 125q14 25 33 36q17 9 37 9h175q56 0 97 -24q37 -21 60 -60q26 -46 26 -109q0 -56 -23 -96t-65 -61q63 -23 94 -78q24 -41 24 -99q0 -65 -27 -112q-25 -43 -67 -68q-49 -28 -119 -28h-175v670q-4 0 -7 -3q-18 -18 -18 -102h-72zM140 72h95q42 0 72 17
q27 15 43 43q18 32 18 77t-18 77q-16 28 -43 43q-30 17 -72 17h-95v-274zM140 418h95q58 0 86 48q17 30 17 75q0 44 -17 74q-28 48 -86 48h-95v-245z" />
    <glyph glyph-name="uni0182" unicode="&#x182;" 
d="M60 0v735h342v-72h-262v-223h102q63 0 108 -26q42 -25 68 -68q30 -52 30 -126t-30 -126q-25 -44 -68 -68q-46 -26 -108 -26h-182zM140 72h102q36 0 62.5 15.5t42.5 43.5q21 36 21 89t-21 90q-16 28 -42.5 43t-62.5 15h-102v-296z" />
    <glyph glyph-name="uni0183" unicode="&#x183;" 
d="M60 0v735h342v-72h-262v-209q2 3 3 6q23 40 58 60q32 18 74 18q45 0 79 -20q37 -21 61 -62q33 -58 33 -146v-90q0 -88 -33 -146q-24 -41 -61 -62q-34 -20 -79 -20q-42 0 -74 18q-35 20 -58 60q-2 3 -3 6v-76h-80zM140 220q0 -63 23 -104q15 -27 39 -40q21 -12 49 -12
q30 0 53 13q25 14 41 43q23 40 23 100v90q0 61 -23 100q-16 28 -41 43q-23 13 -53 13q-28 0 -49 -12q-23 -13 -39 -40q-23 -40 -23 -104v-90z" />
    <glyph glyph-name="uni0184" unicode="&#x184;" 
d="M-12 663l72 72h80v-295h102q63 0 108 -26q42 -25 68 -68q30 -52 30 -126t-30 -126q-25 -44 -68 -68q-46 -26 -108 -26h-182v591zM140 72h102q36 0 62.5 15.5t42.5 43.5q21 36 21 89t-21 90q-16 28 -42.5 43t-62.5 15h-102v-296z" />
    <glyph glyph-name="uni0185" unicode="&#x185;" 
d="M-12 663l72 72h80v-281q2 3 3 6q23 40 58 60q32 18 74 18q45 0 79 -20q37 -21 61 -62q33 -58 33 -146v-90q0 -88 -33 -146q-24 -41 -61 -62q-34 -20 -79 -20q-42 0 -74 18q-35 20 -58 60q-2 3 -3 6v-76h-80v591zM140 220q0 -63 23 -104q15 -27 39 -40q21 -12 49 -12
q30 0 53 13q25 14 41 43q23 40 23 100v90q0 61 -23 100q-16 28 -41 43q-23 13 -53 13q-28 0 -49 -12q-23 -13 -39 -40q-23 -40 -23 -104v-90z" />
    <glyph glyph-name="uni0186" unicode="&#x186;" 
d="M55 155l78 14q3 -28 17 -50q15 -26 39 -40q26 -15 61 -15t61 15q24 14 39 39q18 32 18 77v345q0 45 -18 77q-15 25 -39 39q-26 15 -61 15t-61 -15q-25 -14 -39 -40q-13 -23 -17 -50l-78 14q5 40 25 73q23 41 63 64q45 26 107 26t107 -26q40 -23 64 -63q27 -47 27 -114
v-345q0 -66 -27 -114q-23 -40 -64 -63q-45 -26 -107 -26t-107 26q-40 23 -63 64q-19 34 -25 73z" />
    <glyph glyph-name="uni0187" unicode="&#x187;" 
d="M52 195v345q0 66 27 114q23 40 64 63q45 26 107 26t107 -26q4 -2 8 -5v23q0 57 24 99q23 39 64 63q50 29 122 29v-72q-44 0 -75 -18q-55 -32 -55 -101v-155l-78 -14q-3 28 -17 50q-15 26 -39 40q-26 15 -61 15t-61 -15q-24 -14 -39 -39q-18 -32 -18 -77v-345
q0 -45 18 -77q15 -25 39 -39q26 -15 61 -15t61 15q25 14 39 40q13 23 17 50l78 -14q-5 -40 -25 -73q-23 -41 -63 -64q-45 -26 -107 -26t-107 26q-40 23 -64 63q-27 47 -27 114z" />
    <glyph glyph-name="uni0188" unicode="&#x188;" 
d="M52 220v90q0 80 32 136q25 44 67 67q43 25 100.5 25t100.5 -25q7 -4 13 -8v25q0 57 24 99q23 39 64 63q50 29 122 29v-72q-44 0 -75 -18q-55 -32 -55 -101v-155l-76 -22q-5 31 -20 56q-16 28 -42 43q-24 14 -56 14q-31 0 -55 -14q-25 -15 -41 -42q-23 -40 -23 -100v-90
q0 -60 23 -100q16 -28 41 -42q24 -14 55 -14q32 0 56 14q26 15 42 43q14 25 20 56l76 -22q-7 -38 -26 -71q-25 -44 -67 -67q-43 -25 -101 -25t-100 25q-42 24 -67 67q-32 56 -32 136z" />
    <glyph glyph-name="uni0189" unicode="&#x189;" 
d="M18 346v72h42v317h166q63 0 110 -27q46 -26 75 -77q37 -65 37 -159v-209q0 -95 -37 -159q-29 -50 -75 -77q-48 -27 -110 -27h-166v346h-42zM140 72h86q37 0 65 16q30 17 49 51q28 49 28 124v209q0 75 -28 124q-20 34 -49 51q-29 16 -65 16h-86v-245h122v-72h-122v-274z
" />
    <glyph glyph-name="uni018A" unicode="&#x18a;" 
d="M-37 565q0 79 27 125q14 25 33 36q17 9 37 9h166q63 0 110 -27q46 -26 75 -77q37 -65 37 -159v-209q0 -95 -37 -159q-29 -50 -75 -77q-48 -27 -110 -27h-166v670q-4 0 -7 -3q-18 -18 -18 -102h-72zM140 72h86q37 0 65 16q30 17 49 51q28 49 28 124v209q0 75 -28 124
q-20 34 -49 51q-29 16 -65 16h-86v-591z" />
    <glyph glyph-name="uni018B" unicode="&#x18b;" 
d="M52 220.5q0 73.5 30 125.5q25 44 67 68q46 27 109 26h102v223h-262v72h342v-735h-182q-63 0 -109 27q-42 24 -67 68q-30 52 -30 125.5zM132 220q0 -53 21 -89q34 -59 105 -59h102v296h-102q-71 0 -105 -59q-21 -36 -21 -89z" />
    <glyph glyph-name="uni018C" unicode="&#x18c;" 
d="M52 220v90q0 88 33 146q24 41 61 62q34 20 79 20q42 0 74 -18q35 -20 58 -60q2 -3 3 -6v209h-262v72h342v-735h-80v76q-2 -3 -3 -6q-23 -40 -58 -60q-32 -18 -74 -18q-45 0 -79 20q-37 21 -61 62q-33 58 -33 146zM132 220q0 -61 23 -100q16 -28 41 -43q23 -13 53 -13
q28 0 49 12q23 13 39 40q23 41 23 104v90q0 63 -23 104q-15 27 -39 40q-21 12 -49 12q-30 0 -53 -13q-25 -14 -41 -43q-23 -40 -23 -100v-90z" />
    <glyph glyph-name="uni018D" unicode="&#x18d;" 
d="M52 232v87q0 76 30 128q25 43 66 66q43 25 102 25t102 -25q41 -24 66 -66q30 -52 30 -128v-87q0 -61 -25 -104q-23 -41 -66 -64q1 -1 2 -1q27 -16 43 -44q19 -34 19 -76q0 -46 -21 -83q-19 -32 -50 -51q-39 -22 -91 -22q-81 0 -171 49v72q92 -49 161 -49h1q32 0 54 13
q16 10 26 26q11 20 11 43q0 34 -20 54q-13 13 -36 19q-10 3 -30 6q-80 13 -119 36q-40 23 -61 60q-23 40 -23 116zM132 232q0 -53 16 -80q14 -24 39 -38q23 -13 84 -25q13 -2 25 -5q4 2 8 5q25 14 41 41q23 40 23 102v87q0 55 -21 92q-16 27 -41 41q-24 14 -56 14t-56 -14
q-25 -14 -41 -41q-21 -37 -21 -92v-87z" />
    <glyph glyph-name="uni018E" unicode="&#x18e;" 
d="M60 0v72h270v230h-213v72h213v289h-270v72h350v-735h-350z" />
    <glyph glyph-name="uni018F" unicode="&#x18f;" 
d="M51 605q7 23 19 43q26 44 68 69q44 26 105 26t105 -26q42 -25 68 -68q32 -55 32 -134v-295q0 -81 -32 -136q-25 -44 -67 -68t-99 -24t-99 24q-41 24 -67 68q-32 55 -32 136v184h316v111q0 58 -23 97q-17 29 -42 44t-60 15t-60 -15q-27 -15 -44 -44q-10 -16 -15 -36z
M132 220q0 -61 23 -100q16 -28 41 -43q23 -13 54 -13t54 13q25 14 41 43q23 40 23 100v112h-236v-112z" />
    <glyph glyph-name="uni0190" unicode="&#x190;" 
d="M44 205q0 60 25 104q23 40 64 63q11 6 22 11q-47 22 -72 66q-23 40 -23 96q0 64 26 110q23 40 63 63q44 25 105.5 25t106.5 -25q40 -23 62 -63q8 -14 14 -30l-74 -27q-13 39 -47 58q-26 15 -61 15q-34 0 -60 -14q-24 -14 -38 -39q-17 -30 -17 -74t18 -75q30 -51 92 -51
h57v-72h-57q-73 0 -106 -58q-20 -34 -20 -82t19 -81q16 -28 44 -44q30 -17 70 -17q44 0 74 18q26 15 41 41q5 8 8 16l73 -29q-5 -13 -12 -25q-24 -41 -65 -65q-49 -28 -119 -28q-68 0 -117 28q-43 25 -68 68q-28 49 -28 117z" />
    <glyph glyph-name="uni0191" unicode="&#x191;" 
d="M-40 -119q44 0 75 18q55 32 55 101v735h350v-72h-270v-230h213v-72h-213v-361q0 -57 -24 -99q-23 -39 -64 -63q-50 -29 -122 -29v72z" />
    <glyph glyph-name="florin" unicode="&#x192;" 
d="M75 428v72h135v80q0 78 23 117q19 33 52 53q44 25 135 25v-72q-56 0 -83 -16q-21 -12 -32 -32q-15 -25 -15 -75v-80h135v-72h-135v-428q0 -78 -23 -117q-19 -33 -52 -53q-44 -25 -135 -25v72q56 0 83 16q21 12 32 32q15 25 15 75v428h-135z" />
    <glyph glyph-name="uni0193" unicode="&#x193;" 
d="M52 195v345q0 66 27 114q23 40 64 63q45 26 107 26t107 -26q4 -2 8 -5v23q0 57 24 99q23 39 64 63q50 29 122 29v-72q-44 0 -75 -18q-55 -32 -55 -101v-155l-78 -14q-3 28 -17 50q-15 26 -39 40q-26 15 -61 15t-61 -15q-24 -14 -39 -39q-18 -32 -18 -77v-345
q0 -45 18 -77q15 -25 39 -39q26 -15 60 -15q32 0 55 13.5t37 37.5q19 32 19 80v133h-110v72h190v-205q0 -68 -28 -116q-23 -40 -62 -63q-42 -24 -101 -24q-62 0 -106 26q-40 23 -64 64q-27 47 -27 113z" />
    <glyph glyph-name="uni0194" unicode="&#x194;" 
d="M52 735h80q71 -194 118 -351q47 157 118 351h80q-105 -284 -160 -486q59 -225 59 -355q0 -34 -11 -56q-11 -19 -31 -30q-23 -13 -55 -13t-55 13q-19 11 -31 30q-12 21 -11 56q-1 129 58 353q-55 205 -159 488zM229 -110q0 -14 7 -21q6 -6 14.5 -5.5t13.5 5.5q7 7 7 21
q0 81 -22 194q-19 -99 -19 -169q0 -1 -0.5 -12t-0.5 -13z" />
    <glyph glyph-name="uni0195" unicode="&#x195;" 
d="M52 0v735h80v-226q10 12 23 19q17 10 40 10t40 -10q20 -12 34 -35q21 -37 21 -95v-266q0 -41 18 -59q9 -9 21 -9t21 9q18 18 18 59v398h80v-398q0 -50 -20 -85q-15 -27 -40 -41t-59 -14t-59 14.5t-40 40.5q-20 34 -20 85v266q0 41 -18 59q-9 9 -21 9t-21 -9
q-18 -18 -18 -59v-398h-80z" />
    <glyph glyph-name="uni0196" unicode="&#x196;" 
d="M75 663v72h215v-580q0 -28 11 -47q21 -36 68 -36h65v-72h-65q-52 0 -89 21q-32 18 -50 50q-20 35 -20 84v508h-135z" />
    <glyph glyph-name="uni0197" unicode="&#x197;" 
d="M110 0v72h100v591h-100v72h280v-72h-100v-591h100v-72h-280zM119 346v72h262v-72h-262z" />
    <glyph glyph-name="uni0198" unicode="&#x198;" 
d="M60 0v544q0 57 24 99q23 39 64 63q50 29 122 29v-72q-44 0 -75 -18q-55 -32 -55 -101v-149q115 126 176 232q40 70 40 108h84q0 -45 -48 -128q-41 -71 -102 -151q158 -341 158 -456h-80q0 102 -133 389q-43 -51 -95 -105v-284h-80z" />
    <glyph glyph-name="uni0199" unicode="&#x199;" 
d="M60 0v544q0 57 24 99q23 39 64 63q50 29 122 29v-72q-44 0 -75 -18q-55 -32 -55 -101v-247q158 118 204 198q12 21 12 35h84q0 -19 -17 -48q-38 -66 -131 -152q34 -54 62 -103q94 -163 94 -227h-80q0 52 -71 176q-27 48 -64 103l-93 -74v-205h-80z" />
    <glyph glyph-name="uni019A" unicode="&#x19a;" 
d="M75 0v72h142v591h-128v72h208v-663h128v-72h-350zM123 346v72h262v-72h-262z" />
    <glyph glyph-name="uni019B" unicode="&#x19b;" 
d="M60 0v37q0 65 34 164l114 328l-36 104q-12 35 -12 95v7h80v-7q0 -49 8 -71l158 -456q34 -99 34 -164v-37h-80v37q0 54 -30 140l-80 231l-80 -231q-30 -86 -30 -140v-37h-80zM92 477l280 140l36 -64l-280 -140z" />
    <glyph glyph-name="uni019C" unicode="&#x19c;" 
d="M0 0l79 36q-5 9 -9 19q-18 44 -18 110v570h80v-570q0 -34 5 -57q3 -15 9 -25q4 -8 10 -13l43 19q6 14 9 34q2 18 2 42v1h27v-1q0 -33 -4 -60l135 60v570h80v-735h-80v154l-136 -57q-7 -37 -22 -63q-13 -23 -32 -34q-5 -3 -10 -4q-10 -4 -22 -4q-16 0 -29 6q-21 10 -37 36
zM160 67q5 -3 11 -3q9 0 16 7q4 4 8 10z" />
    <glyph glyph-name="uni019D" unicode="&#x19d;" 
d="M-70 -119q44 0 75 18q55 32 55 101v735h111l192 -601q-3 271 -3 307v294h80v-735h-111l-192 601q3 -279 3 -307v-294q0 -57 -24 -99q-23 -39 -64 -63q-50 -29 -122 -29v72z" />
    <glyph glyph-name="uni019E" unicode="&#x19e;" 
d="M60 0v530h80v-76q2 3 3 6q23 40 58 60q32 18 74 18t73 -18q35 -20 58 -60q34 -59 34 -150v-515h-80v515q0 63 -23 104q-15 27 -39 40q-21 12 -48 12t-48 -12q-23 -13 -39 -40q-23 -40 -23 -104v-310h-80z" />
    <glyph glyph-name="uni019F" unicode="&#x19f;" 
d="M52 195v345q0 66 27 113q23 40 64 64q45 26 107 26t107 -26q40 -23 64 -64q27 -47 27 -113v-345q0 -66 -27 -113q-23 -40 -64 -64q-45 -26 -107 -26t-107 26q-40 23 -64 64q-27 47 -27 113zM132 195q0 -45 18 -77q15 -25 39 -39q26 -15 61 -15t61 15q25 14 39 39
q18 31 18 77v137h-236v-137zM132 404h236v136q0 45 -18 77q-15 25 -39 39q-26 15 -61 15t-61 -15q-25 -14 -39 -39q-18 -31 -18 -77v-136z" />
    <glyph glyph-name="Ohorn" unicode="&#x1a0;" 
d="M354 711q28 7 50 21q22 12 33 29q-10 4 -18 11q-15 15 -14.5 39.5t15 39t39.5 14.5t39.5 -14.5t14.5 -39.5v-3q0 -38 -19 -70t-56 -54q-31 -18 -69 -28zM52 195v345q0 66 27 113q23 40 64 64q45 26 107 26t107 -26q40 -23 64 -64q27 -47 27 -113v-345q0 -66 -27 -113
q-23 -40 -64 -64q-45 -26 -107 -26t-107 26q-40 23 -64 64q-27 47 -27 113zM132 195q0 -45 18 -77q15 -25 39 -39q26 -15 61 -15t61 15q25 14 39 39q18 31 18 77v345q0 45 -18 77q-15 25 -39 39q-26 15 -61 15t-61 -15q-25 -14 -39 -39q-18 -31 -18 -77v-345z" />
    <glyph glyph-name="ohorn" unicode="&#x1a1;" 
d="M354 506q28 7 50 21q22 12 33 29q-10 4 -18 11q-15 15 -14.5 39.5t15 39t39.5 14.5t39.5 -14.5t14.5 -39.5v-3q0 -38 -19 -70t-56 -54q-31 -18 -69 -28zM52 220v90q0 81 32 136q25 44 67 68t99 24t99 -24q41 -24 67 -68q32 -55 32 -136v-90q0 -81 -32 -136
q-19 -33 -47 -55q-9 -7 -20 -13q-42 -24 -99 -24t-99 24q-41 24 -67 68q-32 55 -32 136zM132 220q0 -61 23 -100q16 -28 41 -43q23 -13 54 -13t54 13q25 14 41 43q23 40 23 100v90q0 61 -23 100q-16 28 -41 43q-23 13 -54 13t-54 -13q-25 -14 -41 -43q-23 -40 -23 -100v-90z
" />
    <glyph glyph-name="uni01A2" unicode="&#x1a2;" 
d="M44 132v471q0 48 19 82q16 27 42 42q28 16 66 16t66 -16q30 -17 46 -50q47 7 75 36q10 10 18 22h80v-940h-80v837l-4 -2q-31 -18 -74 -24v-474q0 -48 -19 -82q-16 -27 -42 -42q-28 -16 -66 -16t-66 16q-26 15 -42 42q-19 33 -19 82zM124 132q0 -38 18 -56q12 -12 29 -12
t29 12q18 18 18 56v471q0 38 -18 56q-12 12 -29 12t-29 -12q-18 -18 -18 -56v-471z" />
    <glyph glyph-name="uni01A3" unicode="&#x1a3;" 
d="M44 132v266q0 48 19 82q16 27 42 42q28 16 66 16t66 -16q30 -17 46 -50q47 7 75 36q10 10 18 22h80v-735h-80v632l-4 -2q-31 -18 -74 -24v-269q0 -48 -19 -82q-16 -27 -42 -42q-28 -16 -66 -16t-66 16q-26 15 -42 42q-19 33 -19 82zM124 132q0 -38 18 -56q12 -12 29 -12
t29 12q18 18 18 56v266q0 38 -18 56q-12 12 -29 12t-29 -12q-18 -18 -18 -56v-266z" />
    <glyph glyph-name="uni01A4" unicode="&#x1a4;" 
d="M-22 565q0 79 27 125q14 25 33 36q17 9 37 9h176q60 0 105 -25q40 -23 64 -65q28 -49 28 -119.5t-28 -119.5q-24 -42 -64 -65q-44 -25 -105 -26h-96v-315h-80v670q-4 0 -7 -3q-18 -18 -18 -102h-72zM155 387h96q66 0 98 55q19 34 19 83.5t-19 82.5q-31 55 -98 55h-96
v-276z" />
    <glyph glyph-name="uni01A5" unicode="&#x1a5;" 
d="M60 -205v720q0 81 32 137q25 43 66 67t97 24t98 -24q41 -24 66 -67q19 -33 26 -72l-76 -23q-5 33 -20 59q-16 28 -41 42q-23 13 -53 13t-52 -13q-24 -14 -40 -42q-23 -40 -23 -101v-61q2 3 3 6q23 40 58 60q32 18 74 18q45 0 79 -20q37 -21 61 -62q33 -58 33 -146v-90
q0 -88 -33 -146q-24 -41 -61 -62q-34 -20 -79 -20q-42 0 -74 18q-35 20 -58 60q-2 3 -3 6v-281h-80zM140 220q0 -63 23 -104q15 -27 39 -40q21 -12 49 -12q30 0 53 13q25 14 41 43q23 40 23 100v90q0 61 -23 100q-16 28 -41 43q-23 13 -53 13q-28 0 -49 -12q-23 -13 -39 -40
q-23 -40 -23 -104v-90z" />
    <glyph glyph-name="uni01A6" unicode="&#x1a6;" 
d="M60 0v735h80v-110h115q59 0 102 -25q39 -23 63 -64q28 -48 28 -117t-28 -118q-24 -41 -63 -63q-21 -12 -45 -19q140 -252 140 -424h-80q0 165 -140 408l-6 10h-86v-213h-80zM140 285h115q64 0 94 53q19 33 19 81t-19 81q-31 53 -94 53h-115v-268z" />
    <glyph glyph-name="uni01A7" unicode="&#x1a7;" 
d="M55 580v2q0 40 21 76q21 37 58 58q46 27 113 27q62 0 106 -26q39 -22 62 -61q25 -44 25 -97q0 -55 -29 -105q-35 -61 -146 -125q-82 -46 -107 -89q-18 -32 -18 -65t15 -60q13 -23 37 -36q26 -15 61 -15q39 0 66 16q22 13 35 34q12 21 12 45v7l79 -11v-2q0 -40 -21 -76
q-21 -37 -58 -58q-46 -27 -113 -27q-62 0 -106 26q-39 22 -62 61q-25 44 -25 97q0 55 29 105q35 61 146 125q82 46 107 89q18 32 18 65t-15 60q-13 23 -37 36q-26 15 -61 15q-39 0 -66 -16q-22 -13 -35 -34q-12 -21 -12 -45v-7z" />
    <glyph glyph-name="uni01A8" unicode="&#x1a8;" 
d="M55 420q5 16 14 31q22 38 60 60q46 27 117 27q75 0 124 -28q35 -20 53 -52q17 -29 17 -64q0 -38 -20 -73q-22 -38 -62 -61q-32 -19 -98 -34q-53 -12 -76 -25q-24 -14 -35 -33q-9 -16 -9 -33q0 -15 7 -28q9 -15 27 -25q30 -18 80 -18q44 0 71 16q23 13 37 36q5 9 8 18
l75 -24q-5 -16 -14 -31q-22 -38 -60 -60q-46 -27 -117 -27q-75 0 -124 28q-35 20 -53 52q-17 29 -17 64q0 38 20 73q22 38 62 61q32 19 98 34q53 12 76 25q24 14 35 33q9 16 9 33q0 15 -7 28q-9 15 -27 25q-30 18 -80 18q-44 0 -71 -16q-23 -13 -37 -36q-5 -9 -8 -18z" />
    <glyph glyph-name="uni01A9" unicode="&#x1a9;" 
d="M60 0v72l152 296l-152 295v72h380v-72h-297l152 -295l-152 -296h297v-72h-380z" />
    <glyph glyph-name="uni01AA" unicode="&#x1aa;" 
d="M75 632q0 32 13 55q12 21 34 34q25 14 60 14q36 0 61 -15q47 -27 47 -88v-632q0 -70 55 -101q31 -18 75 -18v-72q-72 0 -122 29q-41 24 -64 63q-24 42 -24 99v532q-13 -3 -29 -3q-35 0 -59 14q-21 12 -34 34q-13 23 -13 55zM151 632q0 -17 9 -26q8 -8 21 -8t22 8
q5 5 7 12v14q0 17 -9 27q-7 7 -20 7t-21 -8q-9 -9 -9 -26z" />
    <glyph glyph-name="uni01AB" unicode="&#x1ab;" 
d="M51 458v72h109v205h80v-205h161v-72h-161v-264q0 -55 20 -90q12 -21 30 -31q15 -9 35.5 -9t35.5 9q8 5 16 12q25 25 32 69v1q1 8 2 17l78 -17v-155q0 -57 -24 -99q-23 -39 -64 -63q-50 -29 -122 -29v72q44 0 75 18q55 32 55 101v14l-4 -2q-34 -20 -79.5 -20t-79.5 20
q-35 20 -57 57q-29 50 -29 125v264h-109z" />
    <glyph glyph-name="uni01AC" unicode="&#x1ac;" 
d="M60 565q0 79 27 125q14 25 33 36q16 9 37 9h283v-72h-150v-663h-80v670h-53q-4 0 -7 -3q-18 -18 -18 -102h-72z" />
    <glyph glyph-name="uni01AD" unicode="&#x1ad;" 
d="M51 458v72h109q0 57 24 99q23 39 64 63q50 29 122 29v-72q-44 0 -75 -18q-55 -32 -55 -101h161v-72h-161v-264q0 -55 20 -90q12 -21 30 -31q15 -9 35.5 -9t35.5 9q8 5 16 12q30 30 34 87l78 -17q-5 -48 -27 -85.5t-57 -57.5q-34 -20 -79.5 -20t-79.5 20q-35 20 -57 57
q-29 50 -29 125v264h-109z" />
    <glyph glyph-name="uni01AE" unicode="&#x1ae;" 
d="M60 663v72h380v-72h-150v-663q0 -47 14 -71q12 -20 32 -32q27 -16 84 -16v-72q-92 0 -136 25q-33 19 -52 52q-22 39 -22 114v663h-150z" />
    <glyph glyph-name="Uhorn" unicode="&#x1af;" 
d="M354 711q28 7 50 21q22 12 33 29q-10 4 -18 11q-15 15 -14.5 39.5t15 39t39.5 14.5t39.5 -14.5t14.5 -39.5v-3q0 -38 -19 -70t-56 -54q-31 -18 -69 -28zM60 195v540h80v-540q0 -47 19 -80q14 -25 37 -38t54 -13t54 13.5t37 37.5q19 32 19 80v540h80v-540q0 -68 -28 -116
q-23 -40 -62 -63q-42 -24 -100 -24t-100 24q-39 23 -62 63q-28 48 -28 116z" />
    <glyph glyph-name="uhorn" unicode="&#x1b0;" 
d="M354 506q28 7 50 21q22 12 33 29q-10 4 -18 11q-15 15 -14.5 39.5t15 39t39.5 14.5t39.5 -14.5t14.5 -39.5v-3q0 -38 -19 -70t-56 -54q-31 -18 -69 -28zM60 220v310h80v-310q0 -63 23 -104q15 -27 39 -40q21 -12 48 -12t48 12q23 13 39 40q23 40 23 104v310h80v-530h-80
v76q-2 -3 -3 -6q-23 -40 -58 -60q-32 -18 -74 -18t-73 18q-35 20 -58 60q-34 59 -34 150z" />
    <glyph glyph-name="uni01B1" unicode="&#x1b1;" 
d="M60 195v286q0 63 25 106q19 34 51 52q8 5 16 8v16h-92v72h152v-131h-3q-13 0 -24 -7q-15 -9 -26 -27q-19 -33 -19 -89v-286q0 -47 19 -80q14 -25 37 -38t54 -13t54 13.5t37 37.5q19 32 19 80v286q0 56 -19 89q-11 18 -26 27q-11 7 -24 7h-3v131h152v-72h-92v-16
q8 -3 16 -8q31 -18 51 -52q25 -43 25 -106v-286q0 -68 -28 -116q-23 -40 -62 -63q-42 -24 -100 -24t-100 24q-39 23 -62 63q-28 48 -28 116z" />
    <glyph glyph-name="uni01B2" unicode="&#x1b2;" 
d="M60 195v540h80v-540q0 -47 19 -80q14 -25 37 -38t54 -13t54 13.5t37 37.5q19 32 19 80v349q0 40 -16 69q-29 50 -94 50v72q61 0 104 -25q38 -22 61 -61q25 -44 25 -105v-349q0 -68 -28 -116q-23 -40 -62 -63q-42 -24 -100 -24t-100 24q-39 23 -62 63q-28 48 -28 116z" />
    <glyph glyph-name="uni01B3" unicode="&#x1b3;" 
d="M60 691v44h80v-44q0 -103 55 -209l49 -93q28 78 60 202q12 47 25 70q19 33 51 52q39 22 117 22v-72q-44 0 -68 -13q-20 -11 -31 -32q-9 -15 -17 -47q-48 -190 -91 -277v-294h-80v286l-85 163q-65 123 -65 242z" />
    <glyph glyph-name="uni01B4" unicode="&#x1b4;" 
d="M60 493v37h80v-37q0 -52 30 -140l79 -235l81 235q22 64 38 90q25 43 62 65q38 22 108 22v-72q-42 0 -64.5 -13t-37.5 -39q-10 -17 -30 -77l-158 -456q-8 -22 -8 -71v-7h-80v7q0 59 12 95l38 108l-116 324q-34 96 -34 164z" />
    <glyph glyph-name="uni01B5" unicode="&#x1b5;" 
d="M60 0v72l288 591h-288v72h380v-72l-288 -591h288v-72h-380zM119 346v72h262v-72h-262z" />
    <glyph glyph-name="uni01B6" unicode="&#x1b6;" 
d="M60 0v72l284 386h-284v72h380v-72l-284 -386h284v-72h-380zM119 240v72h262v-72h-262z" />
    <glyph glyph-name="uni01B7" unicode="&#x1b7;" 
d="M55 155l76 23q5 -28 18 -51q16 -27 41 -41q24 -14 54 -14q31 0 54 13q24 14 40 41q22 38 22 95.5t-22 95.5q-15 26 -38 39q-22 13 -50 13h-114v72l180 222h-256v72h352v-72l-180 -222h18q108 0 159 -88q31 -54 31 -131q0 -78 -31 -131q-25 -43 -65 -67q-42 -24 -99.5 -24
t-99.5 24q-41 23 -66 66q-17 30 -24 65z" />
    <glyph glyph-name="uni01B8" unicode="&#x1b8;" 
d="M60 222q0 77 31 131q24 42 63 64q41 24 96 24h18l-180 222v72h352v-72h-256l180 -222v-72h-114q-28 0 -50 -13q-23 -13 -38 -39q-22 -38 -22 -95.5t22 -95.5q16 -27 40 -41q23 -13 54 -13t54 14q25 14 41 41q13 23 18 51l76 -23q-7 -35 -24 -65q-25 -43 -66 -66
q-42 -24 -99.5 -24t-99.5 24q-41 23 -65 67q-31 53 -31 131z" />
    <glyph glyph-name="uni01B9" unicode="&#x1b9;" 
d="M60 17q0 77 31 131q24 42 63 64q41 24 96 24h18l-180 222v72h352v-72h-256l180 -222v-72h-114q-28 0 -50 -13q-23 -13 -38 -39q-22 -38 -22 -95.5t22 -95.5q16 -27 40 -41q23 -13 54 -13t54 14q25 14 41 41q13 23 18 51l76 -23q-7 -35 -24 -65q-25 -43 -66 -66
q-42 -24 -99.5 -24t-99.5 24q-41 23 -65 67q-31 53 -31 131z" />
    <glyph glyph-name="uni01BA" unicode="&#x1ba;" 
d="M60 -77q0 36 15.5 63t44.5 43q37 22 92 22h19q52 0 85 19q22 13 34 33q10 18 10 41v3q0 24 -11 44q-11 19 -33 31q-27 16 -66 16h-114v72l180 148h-256v72h352v-72l-180 -148h18q67 0 113 -27q36 -21 56 -55q21 -36 21 -79v-5q0 -45 -19 -78q-20 -35 -59 -57
q-52 -30 -131 -30h-19q-38 0 -58 -20q-14 -14 -14 -36t14 -36q20 -20 58 -20h228v-72h-228q-55 0 -92 22q-29 17 -44.5 43.5t-15.5 62.5z" />
    <glyph glyph-name="uni01BB" unicode="&#x1bb;" 
d="M55 580q5 40 25 74q23 40 63 64q44 25 105.5 25t105.5 -25q40 -23 63 -64q27 -47 27 -105q0 -60 -33 -117q-29 -51 -117 -125q-86 -73 -116 -127q-25 -43 -34 -108h296v-72h-380v1q0 137 43 212q35 61 129 137q80 65 107 110q25 44 25 89q0 39 -17 69q-14 25 -38 38
q-25 15 -61 15q-34 0 -59 -15q-24 -14 -39 -39q-13 -23 -17 -51zM30 346v72h440v-72h-440z" />
    <glyph glyph-name="uni01BC" unicode="&#x1bc;" 
d="M55 155l74 27q6 -33 22 -60q17 -30 43 -45q23 -13 53 -13t53 13q25 15 42 44q26 45 26 115q0 71 -26 115q-17 29 -41 43q-22 12 -50 12q-29 0 -51 -12q-25 -14 -42 -44q-11 -19 -17 -42l-71 32v395h351v-72h-271v-212q4 2 7 4q40 23 94 23t95 -23q41 -24 67 -69
q35 -61 35 -151q0 -89 -35 -149q-26 -46 -68 -70t-97.5 -24t-97.5 24t-68 70q-18 32 -27 69z" />
    <glyph glyph-name="uni01BD" unicode="&#x1bd;" 
d="M55 155l79 10v-4q0 -25 12 -46q13 -22 36 -35q28 -16 69 -16q40 0 68 16q23 13 36 35q13 23 13 54.5t-13 54.5q-13 22 -36 35q-28 16 -67 16q-41 0 -69 -16t-41 -45l-72 31v285h351v-72h-271v-131q43 21 102 20q68 0 114 -27q38 -22 60 -59q22 -39 22 -91.5t-22 -91.5
q-21 -37 -60 -59q-47 -27 -115 -27q-69 0 -116 27q-38 22 -59 59t-21 77z" />
    <glyph glyph-name="uni01BE" unicode="&#x1be;" 
d="M55 150v5l80 7q0 -3 -1 -6q0 -23 12 -43q12 -21 34 -33q27 -16 67 -16q42 0 70 16q21 12 32 31t11 44q0 28 -15 53q-13 22 -51 57q-43 39 -60 68q-7 13 -12 29h-77v72h65v96h80v-96h65v-72h-44q14 -22 49 -55q41 -38 57 -66q23 -39 23 -86q0 -46 -20 -81q-20 -34 -56 -55
q-47 -27 -116 -27t-115 26q-37 21 -58 58q-20 34 -20 74z" />
    <glyph glyph-name="uni01BF" unicode="&#x1bf;" 
d="M60 -205v735h80v-40q16 15 35 25q39 23 83 23q49 0 92 -25q41 -23 66 -67q32 -56 32 -129q0 -79 -46 -159q-62 -107 -262 -289v-74h-80zM140 -29q144 134 189 213q39 67 39 132q0 55 -23 94q-16 28 -40 42t-52 14q-29 0 -55 -15q-29 -17 -46 -47q-8 -13 -12 -28v-405z
" />
    <glyph glyph-name="uni01C0" unicode="&#x1c0;" 
d="M210 -168v1066h80v-1066h-80z" />
    <glyph glyph-name="uni01C1" unicode="&#x1c1;" 
d="M298 -168v1066h80v-1066h-80zM122 -168v1066h80v-1066h-80z" />
    <glyph glyph-name="uni01C2" unicode="&#x1c2;" 
d="M210 -168v1066h80v-1066h-80zM60 240v72h380v-72h-380zM60 418v72h380v-72h-380z" />
    <glyph glyph-name="uni01C3" unicode="&#x1c3;" 
d="M180 62.5q0 22.5 9 38.5q8 14 22 23q16 9 39 9t39 -9q14 -8 22 -23q9 -16 9 -38.5t-9 -38.5q-8 -14 -22 -23q-16 -9 -39 -9t-39 9q-14 8 -22 23q-9 16 -9 38.5zM210 260v475h80v-475h-80z" />
    <glyph glyph-name="uni01C4" unicode="&#x1c4;" 
d="M20 0v735h67v-1q35 -3 63 -22q34 -24 57 -71q32 -67 32 -169v-209q0 -102 -32 -169q-23 -47 -57 -71q-28 -20 -63 -22v-1h-67zM87 73q14 3 26 11q21 14 35 44q25 51 25 135v209q0 84 -25 135q-14 30 -35 44q-12 8 -26 11v-589zM262 933l48 32l63 -131l64 131l48 -32
l-84 -155h-55zM267 0v72l136 591h-136v72h213v-72l-136 -591h136v-72h-213z" />
    <glyph glyph-name="uni01C5" unicode="&#x1c5;" 
d="M20 0v735h67v-1q35 -3 63 -22q34 -24 57 -71q32 -67 32 -169v-209q0 -102 -32 -169q-23 -47 -57 -71q-28 -20 -63 -22v-1h-67zM87 73q14 3 26 11q21 14 35 44q25 51 25 135v209q0 84 -25 135q-14 30 -35 44q-12 8 -26 11v-589zM262 728l48 32l63 -131l64 131l48 -32
l-84 -155h-55zM267 0v72l133 386h-133v72h213v-72l-133 -386h133v-72h-213z" />
    <glyph glyph-name="uni01C6" unicode="&#x1c6;" 
d="M14 220v90q0 118 30 181q13 27 29 38q13 9 28 9q14 0 26 -8q15 -10 26 -35q7 -15 13 -34v274h67v-735h-67v69q-5 -19 -13 -34q-12 -25 -26 -35q-11 -8 -26 -8t-28 9q-17 12 -29 38q-30 62 -30 181zM80 220q0 -113 28 -146q8 -10 18 -10q9 0 15 8q25 30 25 148v90
q0 118 -25 148q-6 8 -15 8q-10 0 -18 -10q-28 -33 -28 -146v-90zM262 728l48 32l63 -131l64 131l48 -32l-84 -155h-55zM267 0v72l133 386h-133v72h213v-72l-133 -386h133v-72h-213z" />
    <glyph glyph-name="uni01C7" unicode="&#x1c7;" 
d="M45 0v735h67v-663h127v-72h-194zM251 155l63 22q3 -78 25 -104q7 -9 16 -9t15 8q23 28 24 123v468h-76v72h142v-540q0 -89 -26 -143q-15 -32 -37 -47q-18 -13 -42 -13t-43 13q-22 15 -37 47q-21 43 -24 103z" />
    <glyph glyph-name="uni01C8" unicode="&#x1c8;" 
d="M45 0v735h67v-663h127v-72h-194zM228 -70l61 28q4 -43 17 -70q8 -17 18 -24q8 -5 18 -5q9 0 16 5q10 7 17 22q17 36 18 104v468h-76v72h142v-540q0 -83 -25 -136q-17 -34 -42 -52q-22 -15 -50.5 -15t-50.5 15q-25 17 -41 52q-16 33 -22 76zM363 685q0 38 23 54q12 9 29 9
q32 0 45 -29q7 -14 7 -34q0 -38 -24 -54q-11 -9 -28 -9q-32 0 -45 29q-7 14 -7 34z" />
    <glyph glyph-name="uni01C9" unicode="&#x1c9;" 
d="M17 0v72h81v591h-72v72h138v-663h72v-72h-219zM228 -70l61 28q4 -43 17 -70q8 -17 18 -24q8 -5 18 -5q9 0 16 5q10 7 17 22q17 36 18 104v468h-76v72h142v-540q0 -83 -25 -136q-17 -34 -42 -52q-22 -15 -50.5 -15t-50.5 15q-25 17 -41 52q-16 33 -22 76zM363 685
q0 38 23 54q12 9 29 9q32 0 45 -29q7 -14 7 -34q0 -38 -24 -54q-11 -9 -28 -9q-32 0 -45 29q-7 14 -7 34z" />
    <glyph glyph-name="uni01CA" unicode="&#x1ca;" 
d="M20 0v735h62l101 -561q-2 23 -5 47q-12 117 -12 220v294h67v-735h-62l-100 561l4 -47q12 -117 12 -220v-294h-67zM251 155l63 22q3 -78 25 -104q7 -9 16 -9t15 8q23 28 24 123v468h-76v72h142v-540q0 -89 -26 -143q-15 -32 -37 -47q-18 -13 -42 -13t-43 13q-22 15 -37 47
q-21 43 -24 103z" />
    <glyph glyph-name="uni01CB" unicode="&#x1cb;" 
d="M20 0v735h62l101 -561q-2 23 -5 47q-12 117 -12 220v294h67v-735h-62l-100 561l4 -47q12 -117 12 -220v-294h-67zM228 -70l61 28q4 -43 17 -70q8 -17 18 -24q8 -5 18 -5q9 0 16 5q10 7 17 22q17 36 18 104v468h-76v72h142v-540q0 -83 -25 -136q-17 -34 -42 -52
q-22 -15 -50.5 -15t-50.5 15q-25 17 -41 52q-16 33 -22 76zM363 685q0 38 23 54q12 9 29 9q32 0 45 -29q7 -14 7 -34q0 -38 -24 -54q-11 -9 -28 -9q-32 0 -45 29q-7 14 -7 34z" />
    <glyph glyph-name="uni01CC" unicode="&#x1cc;" 
d="M20 0v530h67v-69q5 19 13 34q12 25 26 35q11 8 25 8t25 -8q15 -10 27 -35q30 -62 30 -185v-310h-67v310q0 118 -25 148q-6 8 -14 8t-15 -8q-25 -30 -25 -148v-310h-67zM228 -70l61 28q4 -43 17 -70q8 -17 18 -24q8 -5 18 -5q9 0 16 5q10 7 17 22q17 36 18 104v468h-76v72
h142v-540q0 -83 -25 -136q-17 -34 -42 -52q-22 -15 -50.5 -15t-50.5 15q-25 17 -41 52q-16 33 -22 76zM363 685q0 38 23 54q12 9 29 9q32 0 45 -29q7 -14 7 -34q0 -38 -24 -54q-11 -9 -28 -9q-32 0 -45 29q-7 14 -7 34z" />
    <glyph glyph-name="uni01CD" unicode="&#x1cd;" 
d="M60 0v74q0 200 150 661h80q150 -461 150 -661v-74h-80v74q0 51 -9 119h-202q-9 -69 -9 -119v-74h-80zM160 265h180q-27 154 -90 379q-63 -225 -90 -379zM76 924l69 49l105 -141l105 141l69 -49l-130 -151h-88z" />
    <glyph glyph-name="uni01CE" unicode="&#x1ce;" 
d="M76 719l69 49l105 -141l105 141l69 -49l-130 -151h-88zM52 149q0 46 19 78q20 35 60 58q55 32 138 32h91v46q0 31 -13 54q-12 21 -34 34q-27 15 -66 15q-40 0 -66 -16q-22 -12 -35 -34q-9 -16 -11 -34l-77 18q4 28 18 53q21 37 58 59q46 26 113 26q66 0 113 -27
q38 -22 58 -57q22 -38 22 -91v-363h-80v74q-23 -38 -60 -59q-40 -23 -94 -23q-49 0 -83 20q-31 18 -50 50q-21 37 -21 87zM132 149q0 -49 40 -71q24 -14 59 -14q40 0 69 17q27 15 42 42q18 31 18 75v47h-91q-56 0 -92 -20q-23 -13 -35 -34q-10 -18 -10 -42z" />
    <glyph glyph-name="uni01CF" unicode="&#x1cf;" 
d="M110 0v72h100v591h-100v72h280v-72h-100v-591h100v-72h-280zM76 924l69 49l105 -141l105 141l69 -49l-130 -151h-88z" />
    <glyph glyph-name="uni01D0" unicode="&#x1d0;" 
d="M75 0v72h142v386h-128v72h208v-458h128v-72h-350zM76 719l69 49l105 -141l105 141l69 -49l-130 -151h-88z" />
    <glyph glyph-name="uni01D1" unicode="&#x1d1;" 
d="M76 924l69 49l105 -141l105 141l69 -49l-130 -151h-88zM52 195v345q0 66 27 113q23 40 64 64q45 26 107 26t107 -26q40 -23 64 -64q27 -47 27 -113v-345q0 -66 -27 -113q-23 -40 -64 -64q-45 -26 -107 -26t-107 26q-40 23 -64 64q-27 47 -27 113zM132 195q0 -45 18 -77
q15 -25 39 -39q26 -15 61 -15t61 15q25 14 39 39q18 31 18 77v345q0 45 -18 77q-15 25 -39 39q-26 15 -61 15t-61 -15q-25 -14 -39 -39q-18 -31 -18 -77v-345z" />
    <glyph glyph-name="uni01D2" unicode="&#x1d2;" 
d="M76 719l69 49l105 -141l105 141l69 -49l-130 -151h-88zM52 220v90q0 81 32 136q25 44 67 68t99 24t99 -24q41 -24 67 -68q32 -55 32 -136v-90q0 -81 -32 -136q-19 -33 -47 -55q-9 -7 -20 -13q-42 -24 -99 -24t-99 24q-41 24 -67 68q-32 55 -32 136zM132 220
q0 -61 23 -100q16 -28 41 -43q23 -13 54 -13t54 13q25 14 41 43q23 40 23 100v90q0 61 -23 100q-16 28 -41 43q-23 13 -54 13t-54 -13q-25 -14 -41 -43q-23 -40 -23 -100v-90z" />
    <glyph glyph-name="uni01D3" unicode="&#x1d3;" 
d="M76 924l69 49l105 -141l105 141l69 -49l-130 -151h-88zM60 195v540h80v-540q0 -47 19 -80q14 -25 37 -38t54 -13t54 13.5t37 37.5q19 32 19 80v540h80v-540q0 -68 -28 -116q-23 -40 -62 -63q-42 -24 -100 -24t-100 24q-39 23 -62 63q-28 48 -28 116z" />
    <glyph glyph-name="uni01D4" unicode="&#x1d4;" 
d="M76 719l69 49l105 -141l105 141l69 -49l-130 -151h-88zM60 220v310h80v-310q0 -63 23 -104q15 -27 39 -40q21 -12 48 -12t48 12q23 13 39 40q23 40 23 104v310h80v-530h-80v76q-2 -3 -3 -6q-23 -40 -58 -60q-32 -18 -74 -18t-73 18q-35 20 -58 60q-34 59 -34 150z" />
    <glyph glyph-name="uni01D5" unicode="&#x1d5;" 
d="M288 890q0 20 8 34q7 13 20 20q14 8 34 8.5t34 -8.5q13 -7 20 -20q8 -14 8 -34t-8 -34q-7 -13 -20 -20q-14 -9 -34 -9t-34 9q-13 7 -20 20q-8 14 -8 34zM88 890q0 20 8 34q7 13 20 20q14 8 34 8.5t34 -8.5q13 -7 20 -20q8 -14 8 -34t-8 -34q-7 -13 -20 -20q-14 -9 -34 -9
t-34 9q-13 7 -20 20q-8 14 -8 34zM60 195v540h80v-540q0 -47 19 -80q14 -25 37 -38t54 -13t54 13.5t37 37.5q19 32 19 80v540h80v-540q0 -68 -28 -116q-23 -40 -62 -63q-42 -24 -100 -24t-100 24q-39 23 -62 63q-28 48 -28 116zM100 1068v72h300v-72h-300z" />
    <glyph glyph-name="uni01D6" unicode="&#x1d6;" 
d="M288 685q0 20 8 34q7 13 20 20q14 8 34 8.5t34 -8.5q13 -7 20 -20q8 -14 8 -34t-8 -34q-7 -13 -20 -20q-14 -9 -34 -9t-34 9q-13 7 -20 20q-8 14 -8 34zM88 685q0 20 8 34q7 13 20 20q14 8 34 8.5t34 -8.5q13 -7 20 -20q8 -14 8 -34t-8 -34q-7 -13 -20 -20q-14 -9 -34 -9
t-34 9q-13 7 -20 20q-8 14 -8 34zM60 220v310h80v-310q0 -63 23 -104q15 -27 39 -40q21 -12 48 -12t48 12q23 13 39 40q23 40 23 104v310h80v-530h-80v76q-2 -3 -3 -6q-23 -40 -58 -60q-32 -18 -74 -18t-73 18q-35 20 -58 60q-34 59 -34 150zM100 863v72h300v-72h-300z" />
    <glyph glyph-name="uni01D7" unicode="&#x1d7;" 
d="M288 890q0 20 8 34q7 13 20 20q14 8 34 8.5t34 -8.5q13 -7 20 -20q8 -14 8 -34t-8 -34q-7 -13 -20 -20q-14 -9 -34 -9t-34 9q-13 7 -20 20q-8 14 -8 34zM88 890q0 20 8 34q7 13 20 20q14 8 34 8.5t34 -8.5q13 -7 20 -20q8 -14 8 -34t-8 -34q-7 -13 -20 -20q-14 -9 -34 -9
t-34 9q-13 7 -20 20q-8 14 -8 34zM60 195v540h80v-540q0 -47 19 -80q14 -25 37 -38t54 -13t54 13.5t37 37.5q19 32 19 80v540h80v-540q0 -68 -28 -116q-23 -40 -62 -63q-42 -24 -100 -24t-100 24q-39 23 -62 63q-28 48 -28 116zM183 1025l134 164l66 -52l-145 -155z" />
    <glyph glyph-name="uni01D8" unicode="&#x1d8;" 
d="M288 685q0 20 8 34q7 13 20 20q14 8 34 8.5t34 -8.5q13 -7 20 -20q8 -14 8 -34t-8 -34q-7 -13 -20 -20q-14 -9 -34 -9t-34 9q-13 7 -20 20q-8 14 -8 34zM88 685q0 20 8 34q7 13 20 20q14 8 34 8.5t34 -8.5q13 -7 20 -20q8 -14 8 -34t-8 -34q-7 -13 -20 -20q-14 -9 -34 -9
t-34 9q-13 7 -20 20q-8 14 -8 34zM183 820l134 164l66 -52l-145 -155zM60 220v310h80v-310q0 -63 23 -104q15 -27 39 -40q21 -12 48 -12t48 12q23 13 39 40q23 40 23 104v310h80v-530h-80v76q-2 -3 -3 -6q-23 -40 -58 -60q-32 -18 -74 -18t-73 18q-35 20 -58 60
q-34 59 -34 150z" />
    <glyph glyph-name="uni01D9" unicode="&#x1d9;" 
d="M288 890q0 20 8 34q7 13 20 20q14 8 34 8.5t34 -8.5q13 -7 20 -20q8 -14 8 -34t-8 -34q-7 -13 -20 -20q-14 -9 -34 -9t-34 9q-13 7 -20 20q-8 14 -8 34zM88 890q0 20 8 34q7 13 20 20q14 8 34 8.5t34 -8.5q13 -7 20 -20q8 -14 8 -34t-8 -34q-7 -13 -20 -20q-14 -9 -34 -9
t-34 9q-13 7 -20 20q-8 14 -8 34zM60 195v540h80v-540q0 -47 19 -80q14 -25 37 -38t54 -13t54 13.5t37 37.5q19 32 19 80v540h80v-540q0 -68 -28 -116q-23 -40 -62 -63q-42 -24 -100 -24t-100 24q-39 23 -62 63q-28 48 -28 116zM76 1138l69 49l105 -141l105 141l69 -49
l-130 -151h-88z" />
    <glyph glyph-name="uni01DA" unicode="&#x1da;" 
d="M288 685q0 20 8 34q7 13 20 20q14 8 34 8.5t34 -8.5q13 -7 20 -20q8 -14 8 -34t-8 -34q-7 -13 -20 -20q-14 -9 -34 -9t-34 9q-13 7 -20 20q-8 14 -8 34zM88 685q0 20 8 34q7 13 20 20q14 8 34 8.5t34 -8.5q13 -7 20 -20q8 -14 8 -34t-8 -34q-7 -13 -20 -20q-14 -9 -34 -9
t-34 9q-13 7 -20 20q-8 14 -8 34zM60 220v310h80v-310q0 -63 23 -104q15 -27 39 -40q21 -12 48 -12t48 12q23 13 39 40q23 40 23 104v310h80v-530h-80v76q-2 -3 -3 -6q-23 -40 -58 -60q-32 -18 -74 -18t-73 18q-35 20 -58 60q-34 59 -34 150zM76 933l69 49l105 -141l105 141
l69 -49l-130 -151h-88z" />
    <glyph glyph-name="uni01DB" unicode="&#x1db;" 
d="M288 890q0 20 8 34q7 13 20 20q14 8 34 8.5t34 -8.5q13 -7 20 -20q8 -14 8 -34t-8 -34q-7 -13 -20 -20q-14 -9 -34 -9t-34 9q-13 7 -20 20q-8 14 -8 34zM88 890q0 20 8 34q7 13 20 20q14 8 34 8.5t34 -8.5q13 -7 20 -20q8 -14 8 -34t-8 -34q-7 -13 -20 -20q-14 -9 -34 -9
t-34 9q-13 7 -20 20q-8 14 -8 34zM60 195v540h80v-540q0 -47 19 -80q14 -25 37 -38t54 -13t54 13.5t37 37.5q19 32 19 80v540h80v-540q0 -68 -28 -116q-23 -40 -62 -63q-42 -24 -100 -24t-100 24q-39 23 -62 63q-28 48 -28 116zM117 1137l66 52l134 -164l-55 -43z" />
    <glyph glyph-name="uni01DC" unicode="&#x1dc;" 
d="M288 685q0 20 8 34q7 13 20 20q14 8 34 8.5t34 -8.5q13 -7 20 -20q8 -14 8 -34t-8 -34q-7 -13 -20 -20q-14 -9 -34 -9t-34 9q-13 7 -20 20q-8 14 -8 34zM88 685q0 20 8 34q7 13 20 20q14 8 34 8.5t34 -8.5q13 -7 20 -20q8 -14 8 -34t-8 -34q-7 -13 -20 -20q-14 -9 -34 -9
t-34 9q-13 7 -20 20q-8 14 -8 34zM117 932l66 52l134 -164l-55 -43zM60 220v310h80v-310q0 -63 23 -104q15 -27 39 -40q21 -12 48 -12t48 12q23 13 39 40q23 40 23 104v310h80v-530h-80v76q-2 -3 -3 -6q-23 -40 -58 -60q-32 -18 -74 -18t-73 18q-35 20 -58 60
q-34 59 -34 150z" />
    <glyph glyph-name="uni01DD" unicode="&#x1dd;" 
d="M51 400q7 23 19 43q26 44 68 69q44 26 105 26t105 -26q42 -25 68 -68q32 -55 32 -134v-90q0 -81 -32 -136q-25 -44 -67 -68t-99 -24t-99 24q-41 24 -67 68q-32 55 -32 136v81h316v9q0 58 -23 97q-17 29 -42 44t-60 15t-60 -15q-27 -15 -44 -44q-10 -16 -15 -36zM132 220
q0 -61 23 -100q16 -28 41 -43q23 -13 54 -13t54 13q25 14 41 43q23 40 23 100v9h-236v-9z" />
    <glyph glyph-name="uni01DE" unicode="&#x1de;" 
d="M60 0v74q0 200 150 661h80q150 -461 150 -661v-74h-80v74q0 51 -9 119h-202q-9 -69 -9 -119v-74h-80zM160 265h180q-27 154 -90 379q-63 -225 -90 -379zM288 890q0 20 8 34q7 13 20 20q14 8 34 8.5t34 -8.5q13 -7 20 -20q8 -14 8 -34t-8 -34q-7 -13 -20 -20
q-14 -9 -34 -9t-34 9q-13 7 -20 20q-8 14 -8 34zM88 890q0 20 8 34q7 13 20 20q14 8 34 8.5t34 -8.5q13 -7 20 -20q8 -14 8 -34t-8 -34q-7 -13 -20 -20q-14 -9 -34 -9t-34 9q-13 7 -20 20q-8 14 -8 34zM100 1068v72h300v-72h-300z" />
    <glyph glyph-name="uni01DF" unicode="&#x1df;" 
d="M288 685q0 20 8 34q7 13 20 20q14 8 34 8.5t34 -8.5q13 -7 20 -20q8 -14 8 -34t-8 -34q-7 -13 -20 -20q-14 -9 -34 -9t-34 9q-13 7 -20 20q-8 14 -8 34zM88 685q0 20 8 34q7 13 20 20q14 8 34 8.5t34 -8.5q13 -7 20 -20q8 -14 8 -34t-8 -34q-7 -13 -20 -20q-14 -9 -34 -9
t-34 9q-13 7 -20 20q-8 14 -8 34zM52 149q0 46 19 78q20 35 60 58q55 32 138 32h91v46q0 31 -13 54q-12 21 -34 34q-27 15 -66 15q-40 0 -66 -16q-22 -12 -35 -34q-9 -16 -11 -34l-77 18q4 28 18 53q21 37 58 59q46 26 113 26q66 0 113 -27q38 -22 58 -57q22 -38 22 -91
v-363h-80v74q-23 -38 -60 -59q-40 -23 -94 -23q-49 0 -83 20q-31 18 -50 50q-21 37 -21 87zM132 149q0 -49 40 -71q24 -14 59 -14q40 0 69 17q27 15 42 42q18 31 18 75v47h-91q-56 0 -92 -20q-23 -13 -35 -34q-10 -18 -10 -42zM100 863v72h300v-72h-300z" />
    <glyph glyph-name="uni01E0" unicode="&#x1e0;" 
d="M60 0v74q0 200 150 661h80q150 -461 150 -661v-74h-80v74q0 51 -9 119h-202q-9 -69 -9 -119v-74h-80zM160 265h180q-27 154 -90 379q-63 -225 -90 -379zM188 890q0 20 8 34q7 13 20 20q14 8 34 8.5t34 -8.5q13 -7 20 -20q8 -14 8 -34t-8 -34q-7 -13 -20 -20
q-14 -9 -34 -9t-34 9q-13 7 -20 20q-8 14 -8 34zM100 1068v72h300v-72h-300z" />
    <glyph glyph-name="uni01E1" unicode="&#x1e1;" 
d="M52 149q0 46 19 78q20 35 60 58q55 32 138 32h91v46q0 31 -13 54q-12 21 -34 34q-27 15 -66 15q-40 0 -66 -16q-22 -12 -35 -34q-9 -16 -11 -34l-77 18q4 28 18 53q21 37 58 59q46 26 113 26q66 0 113 -27q38 -22 58 -57q22 -38 22 -91v-363h-80v74q-23 -38 -60 -59
q-40 -23 -94 -23q-49 0 -83 20q-31 18 -50 50q-21 37 -21 87zM132 149q0 -49 40 -71q24 -14 59 -14q40 0 69 17q27 15 42 42q18 31 18 75v47h-91q-56 0 -92 -20q-23 -13 -35 -34q-10 -18 -10 -42zM188 685q0 20 8 34q7 13 20 20q14 8 34 8.5t34 -8.5q13 -7 20 -20
q8 -14 8 -34t-8 -34q-7 -13 -20 -20q-14 -9 -34 -9t-34 9q-13 7 -20 20q-8 14 -8 34zM100 863v72h300v-72h-300z" />
    <glyph glyph-name="uni01E2" unicode="&#x1e2;" 
d="M60 0v74q0 201 136 661h244v-72h-128v-230h110v-72h-110v-289h128v-72h-208v193h-84q-8 -67 -8 -119v-74h-80zM158 265h74v354q-51 -208 -74 -354zM100 854v72h300v-72h-300z" />
    <glyph glyph-name="uni01E3" unicode="&#x1e3;" 
d="M44 142q0 56 23 95q21 36 56 56q37 21 87 24v81q0 40 -18 58q-10 10 -23.5 10t-23.5 -10q-18 -18 -18 -55v-2l-80 1v4q0 44 20 78q15 27 40 41q26 15 61.5 15t60.5 -15q11 -7 21 -16q9 9 21 16q26 15 62 15t62 -15t41 -42q20 -34 20 -83v-169h-166v-97q0 -39 18 -57
q11 -11 27.5 -11t27.5 11q18 18 18 54v2l80 -1v-4q0 -43 -19 -76q-16 -27 -42 -42q-27 -16 -64.5 -16t-64.5 16q-11 7 -21 15q-10 -9 -21 -16q-26 -15 -62 -15q-34 0 -59 15q-26 15 -42 43q-22 37 -22 92zM124 141q0 -48 20 -67q10 -10 23 -10q14 0 25 10q18 18 18 58v113
q-49 -4 -72 -44q-14 -24 -14 -60zM290 301h86v97q0 40 -18 58q-10 10 -25 10t-25 -10q-18 -18 -18 -58v-97zM100 649v72h300v-72h-300z" />
    <glyph glyph-name="uni01E4" unicode="&#x1e4;" 
d="M52 195v345q0 66 27 114q23 40 64 63q45 26 107 26t107 -26q40 -23 63 -64q19 -34 25 -73l-78 -14q-3 28 -17 50q-15 26 -39 40q-26 15 -61 15t-61 -15q-24 -14 -39 -39q-18 -32 -18 -77v-345q0 -45 18 -77q15 -25 39 -39q26 -15 60 -15q32 0 55 13.5t37 37.5
q13 22 17 51h-108v72h110v90h-110v72h190v-162h42v-72h-43q-5 -50 -27 -87q-23 -40 -62 -63q-42 -24 -101 -24q-62 0 -106 26q-40 23 -64 64q-27 47 -27 113z" />
    <glyph glyph-name="uni01E5" unicode="&#x1e5;" 
d="M18 -27h26q3 31 17 55q15 25 39 43q-9 9 -15 20q-13 23 -13 50t14 52q11 19 27 32q-24 19 -39 45q-22 39 -22 92.5t22 91.5q21 36 59 58q45 26 108 26q36 0 65 -8h157v-72l-59 2l4 -6q22 -39 22 -92t-22 -92q-21 -36 -59 -58q-45 -26 -108 -25q-39 0 -71 9q-8 -4 -13 -10
q-14 -14 -14 -32t13 -30q17 -17 63 -19h56q68 0 114 -27q34 -20 52 -50q14 -24 17 -55h24v-54h-27q-5 -24 -16 -44q-20 -35 -60 -58q-52 -30 -129 -30t-128 30q-39 22 -59 57q-12 20 -17 45h-28v54zM125 -27h251q-2 10 -7 18q-9 16 -27 26q-27 16 -67 16h-55q-35 0 -60 -15
q-18 -11 -28 -27q-5 -8 -7 -18zM130 -81l4 -8q12 -20 34 -33q32 -19 82 -19t83 19q23 13 35 33q1 4 3 8h-241zM132 362q0 -32 13 -55q12 -21 34 -34q25 -15 61.5 -14.5t62.5 14.5q22 13 34 34q13 23 13 55t-13 55q-12 21 -34 34t-50 15h-12q-36 0 -62 -15q-22 -13 -34 -34
q-13 -23 -13 -55z" />
    <glyph glyph-name="Gcaron" unicode="&#x1e6;" 
d="M52 195v345q0 66 27 114q23 40 64 63q45 26 107 26t107 -26q40 -23 63 -64q19 -34 25 -73l-78 -14q-3 28 -17 50q-15 26 -39 40q-26 15 -61 15t-61 -15q-24 -14 -39 -39q-18 -32 -18 -77v-345q0 -45 18 -77q15 -25 39 -39q26 -15 60 -15q32 0 55 13.5t37 37.5
q19 32 19 80v133h-110v72h190v-205q0 -68 -28 -116q-23 -40 -62 -63q-42 -24 -101 -24q-62 0 -106 26q-40 23 -64 64q-27 47 -27 113zM76 924l69 49l105 -141l105 141l69 -49l-130 -151h-88z" />
    <glyph glyph-name="gcaron" unicode="&#x1e7;" 
d="M43 -45q0 42 18 73q15 25 39 43q-9 9 -15 20q-13 23 -13 50t14 52q11 19 27 32q-24 19 -39 45q-22 39 -22 92.5t22 91.5q21 36 59 58q45 26 108 26q36 0 65 -8h157v-72l-59 2l4 -6q22 -39 22 -92t-22 -92q-21 -36 -59 -58q-45 -26 -108 -25q-39 0 -71 9q-8 -4 -13 -10
q-14 -14 -14 -32t13 -30q17 -17 63 -19h56q68 0 114 -27q34 -20 52 -50q18 -31 18 -74q0 -44 -20 -79t-60 -58q-52 -30 -129 -30t-128 30q-39 22 -59 57t-20 81zM123 -45q0 -25 11 -44q12 -20 34 -33q32 -19 82 -19t83 19q23 13 35 33q11 19 11 42q0 22 -10 38q-9 16 -27 26
q-27 16 -67 16h-55q-35 0 -60 -15q-18 -11 -28 -27q-9 -15 -9 -36zM132 362q0 -32 13 -55q12 -21 34 -34q25 -15 61.5 -14.5t62.5 14.5q22 13 34 34q13 23 13 55t-13 55q-12 21 -34 34t-50 15h-12q-36 0 -62 -15q-22 -13 -34 -34q-13 -23 -13 -55zM76 719l69 49l105 -141
l105 141l69 -49l-130 -151h-88z" />
    <glyph glyph-name="uni01E8" unicode="&#x1e8;" 
d="M60 0v735h80v-340q115 126 176 232q40 70 40 108h84q0 -45 -48 -128q-41 -71 -102 -151q158 -341 158 -456h-80q0 102 -133 389q-43 -51 -95 -105v-284h-80zM76 924l69 49l105 -141l105 141l69 -49l-130 -151h-88z" />
    <glyph glyph-name="uni01E9" unicode="&#x1e9;" 
d="M60 0v735h80v-438q158 118 204 198q12 21 12 35h84q0 -19 -17 -48q-38 -66 -131 -152q34 -54 62 -103q94 -163 94 -227h-80q0 52 -71 176q-27 48 -64 103l-93 -74v-205h-80zM76 924l69 49l105 -141l105 141l69 -49l-130 -151h-88z" />
    <glyph glyph-name="uni01EA" unicode="&#x1ea;" 
d="M125 -77q0 23 11 43q14 24 39 38q32 19 75 19v-31q-21 0 -35 -14q-12 -12 -12 -28t11 -28q17 -17 61 -17h60v-79h-60q-70 0 -103 19q-23 13 -36 35q-11 20 -11 43zM52 195v345q0 66 27 113q23 40 64 64q45 26 107 26t107 -26q40 -23 64 -64q27 -47 27 -113v-345
q0 -66 -27 -113q-23 -40 -64 -64q-45 -26 -107 -26t-107 26q-40 23 -64 64q-27 47 -27 113zM132 195q0 -45 18 -77q15 -25 39 -39q26 -15 61 -15t61 15q25 14 39 39q18 31 18 77v345q0 45 -18 77q-15 25 -39 39q-26 15 -61 15t-61 -15q-25 -14 -39 -39q-18 -31 -18 -77v-345
z" />
    <glyph glyph-name="uni01EB" unicode="&#x1eb;" 
d="M125 -77q0 23 11 43q14 24 39 38q32 19 75 19v-31q-21 0 -35 -14q-12 -12 -12 -28t11 -28q17 -17 61 -17h60v-79h-60q-70 0 -103 19q-23 13 -36 35q-11 20 -11 43zM52 220v90q0 81 32 136q25 44 67 68t99 24t99 -24q41 -24 67 -68q32 -55 32 -136v-90q0 -81 -32 -136
q-19 -33 -47 -55q-9 -7 -20 -13q-42 -24 -99 -24t-99 24q-41 24 -67 68q-32 55 -32 136zM132 220q0 -61 23 -100q16 -28 41 -43q23 -13 54 -13t54 13q25 14 41 43q23 40 23 100v90q0 61 -23 100q-16 28 -41 43q-23 13 -54 13t-54 -13q-25 -14 -41 -43q-23 -40 -23 -100v-90z
" />
    <glyph glyph-name="uni01EC" unicode="&#x1ec;" 
d="M125 -77q0 23 11 43q14 24 39 38q32 19 75 19v-31q-21 0 -35 -14q-12 -12 -12 -28t11 -28q17 -17 61 -17h60v-79h-60q-70 0 -103 19q-23 13 -36 35q-11 20 -11 43zM52 195v345q0 66 27 113q23 40 64 64q45 26 107 26t107 -26q40 -23 64 -64q27 -47 27 -113v-345
q0 -66 -27 -113q-23 -40 -64 -64q-45 -26 -107 -26t-107 26q-40 23 -64 64q-27 47 -27 113zM132 195q0 -45 18 -77q15 -25 39 -39q26 -15 61 -15t61 15q25 14 39 39q18 31 18 77v345q0 45 -18 77q-15 25 -39 39q-26 15 -61 15t-61 -15q-25 -14 -39 -39q-18 -31 -18 -77v-345
zM100 854v72h300v-72h-300z" />
    <glyph glyph-name="uni01ED" unicode="&#x1ed;" 
d="M125 -77q0 23 11 43q14 24 39 38q32 19 75 19v-31q-21 0 -35 -14q-12 -12 -12 -28t11 -28q17 -17 61 -17h60v-79h-60q-70 0 -103 19q-23 13 -36 35q-11 20 -11 43zM52 220v90q0 81 32 136q25 44 67 68t99 24t99 -24q41 -24 67 -68q32 -55 32 -136v-90q0 -81 -32 -136
q-19 -33 -47 -55q-9 -7 -20 -13q-42 -24 -99 -24t-99 24q-41 24 -67 68q-32 55 -32 136zM132 220q0 -61 23 -100q16 -28 41 -43q23 -13 54 -13t54 13q25 14 41 43q23 40 23 100v90q0 61 -23 100q-16 28 -41 43q-23 13 -54 13t-54 -13q-25 -14 -41 -43q-23 -40 -23 -100v-90z
M100 649v72h300v-72h-300z" />
    <glyph glyph-name="uni01EE" unicode="&#x1ee;" 
d="M55 155l76 23q5 -28 18 -51q16 -27 41 -41q24 -14 54 -14q31 0 54 13q24 14 40 41q22 38 22 95.5t-22 95.5q-15 26 -38 39q-22 13 -50 13h-114v72l180 222h-256v72h352v-72l-180 -222h18q108 0 159 -88q31 -54 31 -131q0 -78 -31 -131q-25 -43 -65 -67q-42 -24 -99.5 -24
t-99.5 24q-41 23 -66 66q-17 30 -24 65zM76 924l69 49l105 -141l105 141l69 -49l-130 -151h-88z" />
    <glyph glyph-name="uni01EF" unicode="&#x1ef;" 
d="M55 -50l76 23q5 -28 18 -51q16 -27 41 -41q24 -14 54 -14q31 0 54 13q24 14 40 41q22 38 22 95.5t-22 95.5q-15 26 -38 39q-22 13 -50 13h-114v72l180 222h-256v72h352v-72l-180 -222h18q108 0 159 -88q31 -54 31 -131q0 -78 -31 -131q-25 -43 -65 -67q-42 -24 -99.5 -24
t-99.5 24q-41 23 -66 66q-17 30 -24 65zM76 719l69 49l105 -141l105 141l69 -49l-130 -151h-88z" />
    <glyph glyph-name="uni01F0" unicode="&#x1f0;" 
d="M126 719l69 49l105 -141l105 141l69 -49l-130 -151h-88zM13 -70l76 24q5 -28 17 -50q13 -23 33 -35q18 -10 41 -10t41 10q20 11 32 34q20 34 20 87v468h-135v72h215v-540q0 -73 -29 -123q-22 -38 -58 -59t-85.5 -21t-85.5 21t-59 59q-16 29 -23 63z" />
    <glyph glyph-name="uni01F1" unicode="&#x1f1;" 
d="M20 0v735h67v-1q35 -3 63 -22q34 -24 57 -71q32 -67 32 -169v-209q0 -102 -32 -169q-23 -47 -57 -71q-28 -20 -63 -22v-1h-67zM87 73q14 3 26 11q21 14 35 44q25 51 25 135v209q0 84 -25 135q-14 30 -35 44q-12 8 -26 11v-589zM267 0v72l136 591h-136v72h213v-72
l-136 -591h136v-72h-213z" />
    <glyph glyph-name="uni01F2" unicode="&#x1f2;" 
d="M20 0v735h67v-1q35 -3 63 -22q34 -24 57 -71q32 -67 32 -169v-209q0 -102 -32 -169q-23 -47 -57 -71q-28 -20 -63 -22v-1h-67zM87 73q14 3 26 11q21 14 35 44q25 51 25 135v209q0 84 -25 135q-14 30 -35 44q-12 8 -26 11v-589zM267 0v72l133 386h-133v72h213v-72
l-133 -386h133v-72h-213z" />
    <glyph glyph-name="uni01F3" unicode="&#x1f3;" 
d="M14 220v90q0 118 30 181q13 27 29 38q13 9 28 9q14 0 26 -8q15 -10 26 -35q7 -15 13 -34v274h67v-735h-67v69q-5 -19 -13 -34q-12 -25 -26 -35q-11 -8 -26 -8t-28 9q-17 12 -29 38q-30 62 -30 181zM80 220q0 -113 28 -146q8 -10 18 -10q9 0 15 8q25 30 25 148v90
q0 118 -25 148q-6 8 -15 8q-10 0 -18 -10q-28 -33 -28 -146v-90zM267 0v72l133 386h-133v72h213v-72l-133 -386h133v-72h-213z" />
    <glyph glyph-name="uni01F4" unicode="&#x1f4;" 
d="M52 195v345q0 66 27 114q23 40 64 63q45 26 107 26t107 -26q40 -23 63 -64q19 -34 25 -73l-78 -14q-3 28 -17 50q-15 26 -39 40q-26 15 -61 15t-61 -15q-24 -14 -39 -39q-18 -32 -18 -77v-345q0 -45 18 -77q15 -25 39 -39q26 -15 60 -15q32 0 55 13.5t37 37.5
q19 32 19 80v133h-110v72h190v-205q0 -68 -28 -116q-23 -40 -62 -63q-42 -24 -101 -24q-62 0 -106 26q-40 23 -64 64q-27 47 -27 113zM183 811l134 164l66 -52l-145 -155z" />
    <glyph glyph-name="uni01F5" unicode="&#x1f5;" 
d="M43 -45q0 42 18 73q15 25 39 43q-9 9 -15 20q-13 23 -13 50t14 52q11 19 27 32q-24 19 -39 45q-22 39 -22 92.5t22 91.5q21 36 59 58q45 26 108 26q36 0 65 -8h157v-72l-59 2l4 -6q22 -39 22 -92t-22 -92q-21 -36 -59 -58q-45 -26 -108 -25q-39 0 -71 9q-8 -4 -13 -10
q-14 -14 -14 -32t13 -30q17 -17 63 -19h56q68 0 114 -27q34 -20 52 -50q18 -31 18 -74q0 -44 -20 -79t-60 -58q-52 -30 -129 -30t-128 30q-39 22 -59 57t-20 81zM123 -45q0 -25 11 -44q12 -20 34 -33q32 -19 82 -19t83 19q23 13 35 33q11 19 11 42q0 22 -10 38q-9 16 -27 26
q-27 16 -67 16h-55q-35 0 -60 -15q-18 -11 -28 -27q-9 -15 -9 -36zM132 362q0 -32 13 -55q12 -21 34 -34q25 -15 61.5 -14.5t62.5 14.5q22 13 34 34q13 23 13 55t-13 55q-12 21 -34 34t-50 15h-12q-36 0 -62 -15q-22 -13 -34 -34q-13 -23 -13 -55zM183 606l134 164l66 -52
l-145 -155z" />
    <glyph glyph-name="uni01F6" unicode="&#x1f6;" 
d="M52 0v735h80v-331h78v331h80v-603q0 -41 18 -59q9 -9 21 -9t21 9q18 18 18 59v398h80v-398q0 -50 -20 -85q-15 -27 -40 -41t-59 -14t-59 14.5t-40 40.5q-20 34 -20 85v200h-78v-332h-80z" />
    <glyph glyph-name="uni01F7" unicode="&#x1f7;" 
d="M60 0v735h80v-40q16 15 35 25q39 23 83 23q49 0 92 -25q41 -23 66 -67q32 -56 32 -129q0 -79 -46 -159q-62 -107 -262 -289v-74h-80zM140 176q144 134 189 213q39 67 39 132q0 55 -23 94q-16 28 -40 42t-52 14q-29 0 -55 -15q-29 -17 -46 -47q-8 -13 -12 -28v-405z" />
    <glyph glyph-name="uni01F8" unicode="&#x1f8;" 
d="M60 0v735h111l192 -601q-3 272 -3 307v294h80v-735h-111l-192 601q3 -279 3 -307v-294h-80zM117 923l66 52l134 -164l-55 -43z" />
    <glyph glyph-name="uni01F9" unicode="&#x1f9;" 
d="M60 0v530h80v-76q2 3 3 6q23 40 58 60q32 18 74 18t73 -18q35 -20 58 -60q34 -59 34 -150v-310h-80v310q0 63 -23 104q-15 27 -39 40q-21 12 -48 12t-48 -12q-23 -13 -39 -40q-23 -40 -23 -104v-310h-80zM117 718l66 52l134 -164l-55 -43z" />
    <glyph glyph-name="Aringacute" unicode="&#x1fa;" 
d="M60 0v74q0 200 150 661h80q150 -461 150 -661v-74h-80v74q0 51 -9 119h-202q-9 -69 -9 -119v-74h-80zM160 265h180q-27 154 -90 379q-63 -225 -90 -379zM154 865.5q0 30.5 13 52.5q11 19 30 31q22 13 53 13t53 -13q19 -11 30 -31q13 -22 13 -52.5t-13 -52.5
q-11 -19 -30 -31q-22 -12 -53 -12t-53 12q-19 11 -30 31q-13 22 -13 52.5zM213 866q0 -17 10 -27.5t27 -10t27 10.5t10 27t-10 27t-27 10t-27 -10t-10 -27zM183 1025l134 164l66 -52l-145 -155z" />
    <glyph glyph-name="aringacute" unicode="&#x1fb;" 
d="M154 660.5q0 30.5 13 52.5q11 19 30 31q22 13 53 13t53 -13q19 -11 30 -31q13 -22 13 -52.5t-13 -52.5q-11 -19 -30 -31q-22 -12 -53 -12t-53 12q-19 11 -30 31q-13 22 -13 52.5zM213 661q0 -17 10 -27.5t27 -10t27 10.5t10 27t-10 27t-27 10t-27 -10t-10 -27zM52 149
q0 46 19 78q20 35 60 58q55 32 138 32h91v46q0 31 -13 54q-12 21 -34 34q-27 15 -66 15q-40 0 -66 -16q-22 -12 -35 -34q-9 -16 -11 -34l-77 18q4 28 18 53q21 37 58 59q46 26 113 26q66 0 113 -27q38 -22 58 -57q22 -38 22 -91v-363h-80v74q-23 -38 -60 -59
q-40 -23 -94 -23q-49 0 -83 20q-31 18 -50 50q-21 37 -21 87zM132 149q0 -49 40 -71q24 -14 59 -14q40 0 69 17q27 15 42 42q18 31 18 75v47h-91q-56 0 -92 -20q-23 -13 -35 -34q-10 -18 -10 -42zM183 820l134 164l66 -52l-145 -155z" />
    <glyph glyph-name="AEacute" unicode="&#x1fc;" 
d="M60 0v74q0 201 136 661h244v-72h-128v-230h110v-72h-110v-289h128v-72h-208v193h-84q-8 -67 -8 -119v-74h-80zM158 265h74v354q-51 -208 -74 -354zM183 811l134 164l66 -52l-145 -155z" />
    <glyph glyph-name="aeacute" unicode="&#x1fd;" 
d="M44 142q0 56 23 95q21 36 56 56q37 21 87 24v81q0 40 -18 58q-10 10 -23.5 10t-23.5 -10q-18 -18 -18 -55v-2l-80 1v4q0 44 20 78q15 27 40 41q26 15 61.5 15t60.5 -15q11 -7 21 -16q9 9 21 16q26 15 62 15t62 -15t41 -42q20 -34 20 -83v-169h-166v-97q0 -39 18 -57
q11 -11 27.5 -11t27.5 11q18 18 18 54v2l80 -1v-4q0 -43 -19 -76q-16 -27 -42 -42q-27 -16 -64.5 -16t-64.5 16q-11 7 -21 15q-10 -9 -21 -16q-26 -15 -62 -15q-34 0 -59 15q-26 15 -42 43q-22 37 -22 92zM124 141q0 -48 20 -67q10 -10 23 -10q14 0 25 10q18 18 18 58v113
q-49 -4 -72 -44q-14 -24 -14 -60zM290 301h86v97q0 40 -18 58q-10 10 -25 10t-25 -10q-18 -18 -18 -58v-97zM183 606l134 164l66 -52l-145 -155z" />
    <glyph glyph-name="Oslashacute" unicode="&#x1fe;" 
d="M51 -23l37 91l-9 14q-27 47 -27 113v345q0 66 27 113q23 40 64 64q45 26 107 26q57 0 99 -22l26 64l74 -27l-37 -91l9 -14q27 -47 27 -113v-345q0 -66 -27 -113q-23 -40 -64 -64q-45 -26 -107 -26q-57 0 -99 22l-26 -64zM132 195q0 -8 1 -15l188 470q-5 4 -10 6
q-26 15 -61 15t-61 -15q-25 -14 -39 -39q-18 -31 -18 -77v-345zM179 85q5 -4 10 -6q26 -15 61 -15t61 15q25 14 39 39q18 31 18 77v345q0 8 -1 15zM183 811l134 164l66 -52l-145 -155z" />
    <glyph glyph-name="oslashacute" unicode="&#x1ff;" 
d="M52 220v90q0 81 32 136q25 44 67 68t99 24q54 0 95 -22l32 58l70 -35l-42 -76q6 -8 11 -17q32 -55 32 -136v-90q0 -81 -32 -136q-19 -33 -47 -55q-9 -7 -20 -13q-42 -24 -99 -24q-54 0 -95 22l-32 -58l-70 35l42 76q-6 8 -11 17q-32 55 -32 136zM132 220q0 -39 10 -70
l166 300q-2 1 -4 3q-23 13 -54 13t-54 -13q-25 -14 -41 -43q-23 -40 -23 -100v-90zM183 606l134 164l66 -52l-145 -155zM192 80q2 -1 4 -3q23 -13 54 -13t54 13q25 14 41 43q23 40 23 100v90q0 40 -10 70z" />
    <glyph glyph-name="uni0200" unicode="&#x200;" 
d="M60 0v74q0 200 150 661h80q150 -461 150 -661v-74h-80v74q0 51 -9 119h-202q-9 -69 -9 -119v-74h-80zM160 265h180q-27 154 -90 379q-63 -225 -90 -379zM202 923l66 52l134 -164l-55 -43zM32 923l66 52l134 -164l-55 -43z" />
    <glyph glyph-name="uni0201" unicode="&#x201;" 
d="M52 149q0 46 19 78q20 35 60 58q55 32 138 32h91v46q0 31 -13 54q-12 21 -34 34q-27 15 -66 15q-40 0 -66 -16q-22 -12 -35 -34q-9 -16 -11 -34l-77 18q4 28 18 53q21 37 58 59q46 26 113 26q66 0 113 -27q38 -22 58 -57q22 -38 22 -91v-363h-80v74q-23 -38 -60 -59
q-40 -23 -94 -23q-49 0 -83 20q-31 18 -50 50q-21 37 -21 87zM132 149q0 -49 40 -71q24 -14 59 -14q40 0 69 17q27 15 42 42q18 31 18 75v47h-91q-56 0 -92 -20q-23 -13 -35 -34q-10 -18 -10 -42zM202 718l66 52l134 -164l-55 -43zM32 718l66 52l134 -164l-55 -43z" />
    <glyph glyph-name="uni0202" unicode="&#x202;" 
d="M60 0v74q0 200 150 661h80q150 -461 150 -661v-74h-80v74q0 51 -9 119h-202q-9 -69 -9 -119v-74h-80zM160 265h180q-27 154 -90 379q-63 -225 -90 -379zM90 789q0 51 21 88q19 32 51 51q37 21 88 21t88 -21q32 -19 51 -51q21 -36 21 -88h-80q0 30 -12 51q-21 37 -68 37
t-68 -37q-12 -21 -12 -51h-80z" />
    <glyph glyph-name="uni0203" unicode="&#x203;" 
d="M52 149q0 46 19 78q20 35 60 58q55 32 138 32h91v46q0 31 -13 54q-12 21 -34 34q-27 15 -66 15q-40 0 -66 -16q-22 -12 -35 -34q-9 -16 -11 -34l-77 18q4 28 18 53q21 37 58 59q46 26 113 26q66 0 113 -27q38 -22 58 -57q22 -38 22 -91v-363h-80v74q-23 -38 -60 -59
q-40 -23 -94 -23q-49 0 -83 20q-31 18 -50 50q-21 37 -21 87zM132 149q0 -49 40 -71q24 -14 59 -14q40 0 69 17q27 15 42 42q18 31 18 75v47h-91q-56 0 -92 -20q-23 -13 -35 -34q-10 -18 -10 -42zM90 584q0 51 21 88q19 32 51 51q37 21 88 21t88 -21q32 -19 51 -51
q21 -36 21 -88h-80q0 30 -12 51q-21 37 -68 37t-68 -37q-12 -21 -12 -51h-80z" />
    <glyph glyph-name="uni0204" unicode="&#x204;" 
d="M90 0v735h350v-72h-270v-230h213v-72h-213v-289h270v-72h-350zM202 923l66 52l134 -164l-55 -43zM32 923l66 52l134 -164l-55 -43z" />
    <glyph glyph-name="uni0205" unicode="&#x205;" 
d="M52 220v90q0 81 32 136q25 44 67 68t99 24t99 -24q41 -24 67 -68q32 -55 32 -136v-81h-316v-9q0 -58 23 -97q17 -29 42 -44t60 -15t60 15q27 15 44 44q10 16 15 36l73 -29q-7 -23 -19 -43q-26 -44 -68 -69q-36 -20 -82 -25q-11 -1 -23 -1q-61 0 -105 26q-42 25 -68 68
q-32 55 -32 134zM132 301h236v9q0 61 -23 100q-16 28 -41 43q-23 13 -54 13t-54 -13q-25 -14 -41 -43q-23 -40 -23 -100v-9zM202 718l66 52l134 -164l-55 -43zM32 718l66 52l134 -164l-55 -43z" />
    <glyph glyph-name="uni0206" unicode="&#x206;" 
d="M90 0v735h350v-72h-270v-230h213v-72h-213v-289h270v-72h-350zM90 789q0 51 21 88q19 32 51 51q37 21 88 21t88 -21q32 -19 51 -51q21 -36 21 -88h-80q0 30 -12 51q-21 37 -68 37t-68 -37q-12 -21 -12 -51h-80z" />
    <glyph glyph-name="uni0207" unicode="&#x207;" 
d="M52 220v90q0 81 32 136q25 44 67 68t99 24t99 -24q41 -24 67 -68q32 -55 32 -136v-81h-316v-9q0 -58 23 -97q17 -29 42 -44t60 -15t60 15q27 15 44 44q10 16 15 36l73 -29q-7 -23 -19 -43q-26 -44 -68 -69q-36 -20 -82 -25q-11 -1 -23 -1q-61 0 -105 26q-42 25 -68 68
q-32 55 -32 134zM132 301h236v9q0 61 -23 100q-16 28 -41 43q-23 13 -54 13t-54 -13q-25 -14 -41 -43q-23 -40 -23 -100v-9zM90 584q0 51 21 88q19 32 51 51q37 21 88 21t88 -21q32 -19 51 -51q21 -36 21 -88h-80q0 30 -12 51q-21 37 -68 37t-68 -37q-12 -21 -12 -51h-80z
" />
    <glyph glyph-name="uni0208" unicode="&#x208;" 
d="M110 0v72h100v591h-100v72h280v-72h-100v-591h100v-72h-280zM202 923l66 52l134 -164l-55 -43zM32 923l66 52l134 -164l-55 -43z" />
    <glyph glyph-name="uni0209" unicode="&#x209;" 
d="M75 0v72h142v386h-128v72h208v-458h128v-72h-350zM202 718l66 52l134 -164l-55 -43zM32 718l66 52l134 -164l-55 -43z" />
    <glyph glyph-name="uni020A" unicode="&#x20a;" 
d="M110 0v72h100v591h-100v72h280v-72h-100v-591h100v-72h-280zM90 789q0 51 21 88q19 32 51 51q37 21 88 21t88 -21q32 -19 51 -51q21 -36 21 -88h-80q0 30 -12 51q-21 37 -68 37t-68 -37q-12 -21 -12 -51h-80z" />
    <glyph glyph-name="uni020B" unicode="&#x20b;" 
d="M75 0v72h142v386h-128v72h208v-458h128v-72h-350zM90 584q0 51 21 88q19 32 51 51q37 21 88 21t88 -21q32 -19 51 -51q21 -36 21 -88h-80q0 30 -12 51q-21 37 -68 37t-68 -37q-12 -21 -12 -51h-80z" />
    <glyph glyph-name="uni020C" unicode="&#x20c;" 
d="M202 923l66 52l134 -164l-55 -43zM32 923l66 52l134 -164l-55 -43zM52 195v345q0 66 27 113q23 40 64 64q45 26 107 26t107 -26q40 -23 64 -64q27 -47 27 -113v-345q0 -66 -27 -113q-23 -40 -64 -64q-45 -26 -107 -26t-107 26q-40 23 -64 64q-27 47 -27 113zM132 195
q0 -45 18 -77q15 -25 39 -39q26 -15 61 -15t61 15q25 14 39 39q18 31 18 77v345q0 45 -18 77q-15 25 -39 39q-26 15 -61 15t-61 -15q-25 -14 -39 -39q-18 -31 -18 -77v-345z" />
    <glyph glyph-name="uni020D" unicode="&#x20d;" 
d="M202 718l66 52l134 -164l-55 -43zM32 718l66 52l134 -164l-55 -43zM52 220v90q0 81 32 136q25 44 67 68t99 24t99 -24q41 -24 67 -68q32 -55 32 -136v-90q0 -81 -32 -136q-19 -33 -47 -55q-9 -7 -20 -13q-42 -24 -99 -24t-99 24q-41 24 -67 68q-32 55 -32 136zM132 220
q0 -61 23 -100q16 -28 41 -43q23 -13 54 -13t54 13q25 14 41 43q23 40 23 100v90q0 61 -23 100q-16 28 -41 43q-23 13 -54 13t-54 -13q-25 -14 -41 -43q-23 -40 -23 -100v-90z" />
    <glyph glyph-name="uni020E" unicode="&#x20e;" 
d="M90 789q0 51 21 88q19 32 51 51q37 21 88 21t88 -21q32 -19 51 -51q21 -36 21 -88h-80q0 30 -12 51q-21 37 -68 37t-68 -37q-12 -21 -12 -51h-80zM52 195v345q0 66 27 113q23 40 64 64q45 26 107 26t107 -26q40 -23 64 -64q27 -47 27 -113v-345q0 -66 -27 -113
q-23 -40 -64 -64q-45 -26 -107 -26t-107 26q-40 23 -64 64q-27 47 -27 113zM132 195q0 -45 18 -77q15 -25 39 -39q26 -15 61 -15t61 15q25 14 39 39q18 31 18 77v345q0 45 -18 77q-15 25 -39 39q-26 15 -61 15t-61 -15q-25 -14 -39 -39q-18 -31 -18 -77v-345z" />
    <glyph glyph-name="uni020F" unicode="&#x20f;" 
d="M90 584q0 51 21 88q19 32 51 51q37 21 88 21t88 -21q32 -19 51 -51q21 -36 21 -88h-80q0 30 -12 51q-21 37 -68 37t-68 -37q-12 -21 -12 -51h-80zM52 220v90q0 81 32 136q25 44 67 68t99 24t99 -24q41 -24 67 -68q32 -55 32 -136v-90q0 -81 -32 -136q-19 -33 -47 -55
q-9 -7 -20 -13q-42 -24 -99 -24t-99 24q-41 24 -67 68q-32 55 -32 136zM132 220q0 -61 23 -100q16 -28 41 -43q23 -13 54 -13t54 13q25 14 41 43q23 40 23 100v90q0 61 -23 100q-16 28 -41 43q-23 13 -54 13t-54 -13q-25 -14 -41 -43q-23 -40 -23 -100v-90z" />
    <glyph glyph-name="uni0210" unicode="&#x210;" 
d="M60 0v735h191q60 0 105 -25q40 -23 64 -65q28 -49 28 -119.5t-28 -119.5q-24 -42 -64 -65q-18 -10 -39 -17q27 -40 50 -78q81 -141 81 -246h-80q0 90 -69 210q-29 51 -70 105h-89v-315h-80zM140 387h111q66 0 98 55q19 34 19 83.5t-19 82.5q-31 55 -98 55h-111v-276z
M202 923l66 52l134 -164l-55 -43zM32 923l66 52l134 -164l-55 -43z" />
    <glyph glyph-name="uni0211" unicode="&#x211;" 
d="M120 0v530h80v-99q7 20 17 36q22 38 53 56q25 15 58 15q35 0 65 -17q31 -18 49 -49q9 -15 13 -32l-75 -34q-3 12 -9 23q-11 19 -28 29q-14 8 -32 8q-24 0 -43 -11q-23 -13 -39 -41q-29 -50 -29 -133v-281h-80zM202 718l66 52l134 -164l-55 -43zM32 718l66 52l134 -164
l-55 -43z" />
    <glyph glyph-name="uni0212" unicode="&#x212;" 
d="M60 0v735h191q60 0 105 -25q40 -23 64 -65q28 -49 28 -119.5t-28 -119.5q-24 -42 -64 -65q-18 -10 -39 -17q27 -40 50 -78q81 -141 81 -246h-80q0 90 -69 210q-29 51 -70 105h-89v-315h-80zM140 387h111q66 0 98 55q19 34 19 83.5t-19 82.5q-31 55 -98 55h-111v-276z
M90 789q0 51 21 88q19 32 51 51q37 21 88 21t88 -21q32 -19 51 -51q21 -36 21 -88h-80q0 30 -12 51q-21 37 -68 37t-68 -37q-12 -21 -12 -51h-80z" />
    <glyph glyph-name="uni0213" unicode="&#x213;" 
d="M120 0v530h80v-99q7 20 17 36q22 38 53 56q25 15 58 15q35 0 65 -17q31 -18 49 -49q9 -15 13 -32l-75 -34q-3 12 -9 23q-11 19 -28 29q-14 8 -32 8q-24 0 -43 -11q-23 -13 -39 -41q-29 -50 -29 -133v-281h-80zM90 584q0 51 21 88q19 32 51 51q37 21 88 21t88 -21
q32 -19 51 -51q21 -36 21 -88h-80q0 30 -12 51q-21 37 -68 37t-68 -37q-12 -21 -12 -51h-80z" />
    <glyph glyph-name="uni0214" unicode="&#x214;" 
d="M202 923l66 52l134 -164l-55 -43zM32 923l66 52l134 -164l-55 -43zM60 195v540h80v-540q0 -47 19 -80q14 -25 37 -38t54 -13t54 13.5t37 37.5q19 32 19 80v540h80v-540q0 -68 -28 -116q-23 -40 -62 -63q-42 -24 -100 -24t-100 24q-39 23 -62 63q-28 48 -28 116z" />
    <glyph glyph-name="uni0215" unicode="&#x215;" 
d="M60 220v310h80v-310q0 -63 23 -104q15 -27 39 -40q21 -12 48 -12t48 12q23 13 39 40q23 40 23 104v310h80v-530h-80v76q-2 -3 -3 -6q-23 -40 -58 -60q-32 -18 -74 -18t-73 18q-35 20 -58 60q-34 59 -34 150zM202 718l66 52l134 -164l-55 -43zM32 718l66 52l134 -164
l-55 -43z" />
    <glyph glyph-name="uni0216" unicode="&#x216;" 
d="M90 789q0 51 21 88q19 32 51 51q37 21 88 21t88 -21q32 -19 51 -51q21 -36 21 -88h-80q0 30 -12 51q-21 37 -68 37t-68 -37q-12 -21 -12 -51h-80zM60 195v540h80v-540q0 -47 19 -80q14 -25 37 -38t54 -13t54 13.5t37 37.5q19 32 19 80v540h80v-540q0 -68 -28 -116
q-23 -40 -62 -63q-42 -24 -100 -24t-100 24q-39 23 -62 63q-28 48 -28 116z" />
    <glyph glyph-name="uni0217" unicode="&#x217;" 
d="M60 220v310h80v-310q0 -63 23 -104q15 -27 39 -40q21 -12 48 -12t48 12q23 13 39 40q23 40 23 104v310h80v-530h-80v76q-2 -3 -3 -6q-23 -40 -58 -60q-32 -18 -74 -18t-73 18q-35 20 -58 60q-34 59 -34 150zM90 584q0 51 21 88q19 32 51 51q37 21 88 21t88 -21
q32 -19 51 -51q21 -36 21 -88h-80q0 30 -12 51q-21 37 -68 37t-68 -37q-12 -21 -12 -51h-80z" />
    <glyph glyph-name="Scommaaccent" unicode="&#x218;" 
d="M197 -73.5q0 24.5 14.5 39t38.5 14.5t38.5 -14.5t14.5 -38.5q0 -72 -32 -128q-13 -23 -32 -42l-42 37q31 34 41 81q-16 3 -27 13q-14 14 -14 38.5zM55 153v2l79 11v-7q0 -24 12 -45q13 -22 35 -34q27 -16 66 -16q36 0 61 15q23 13 37 36q16 27 15 60q0 33 -18 65
q-25 44 -107 89q-111 63 -146 125q-29 50 -29 105q0 54 25 97q22 39 62 61q44 26 106 26q66 0 113 -27q37 -22 58 -58t21 -76v-2l-79 -11v7q0 24 -12 45q-13 22 -35 34q-27 16 -66 16q-36 0 -61 -15q-23 -13 -37 -36q-16 -27 -15 -60q0 -33 18 -65q25 -44 107 -89
q111 -63 146 -125q29 -50 29 -105q0 -54 -25 -97q-22 -39 -62 -61q-44 -26 -106 -26q-66 0 -113 27q-37 22 -58 58t-21 76z" />
    <glyph glyph-name="scommaaccent" unicode="&#x219;" 
d="M197 -73.5q0 24.5 14.5 39t38.5 14.5t38.5 -14.5t14.5 -38.5q0 -72 -32 -128q-13 -23 -32 -42l-42 37q31 34 41 81q-16 3 -27 13q-14 14 -14 38.5zM57 110l75 24q3 -9 8 -18q13 -23 37 -36q28 -16 71 -16q47 0 77 17q19 11 28 27q8 14 8 32q0 19 -10 36q-10 18 -30 30
q-24 14 -80 20q-70 8 -105 28q-36 21 -56 56q-21 36 -21 80q0 39 17 69q18 31 53 51q49 28 123 28q70 0 117 -27q38 -22 60 -60q9 -15 14 -31l-75 -24q-3 9 -8 18q-13 23 -37 36q-28 16 -71 16q-47 0 -77 -17q-19 -11 -28 -27q-8 -14 -8 -32q0 -19 10 -36q10 -18 30 -30
q24 -14 80 -20q70 -8 105 -28q36 -21 56 -56q21 -36 21 -80q0 -39 -17 -69q-18 -31 -53 -51q-49 -28 -123 -28q-70 0 -117 27q-38 22 -60 60q-9 15 -14 31z" />
    <glyph glyph-name="uni021A" unicode="&#x21a;" 
d="M60 663v72h380v-72h-150v-663h-80v663h-150zM197 -73.5q0 24.5 14.5 39t38.5 14.5t38.5 -14.5t14.5 -38.5q0 -72 -32 -128q-13 -23 -32 -42l-42 37q31 34 41 81q-16 3 -27 13q-14 14 -14 38.5z" />
    <glyph glyph-name="uni021B" unicode="&#x21b;" 
d="M51 458v72h109v205h80v-205h161v-72h-161v-264q0 -55 20 -90q12 -21 30 -31q15 -9 35.5 -9t35.5 9q8 5 16 12q30 30 34 87l78 -17q-5 -48 -27 -85.5t-57 -57.5q-34 -20 -79.5 -20t-79.5 20q-35 20 -57 57q-29 50 -29 125v264h-109zM251 -73.5q0 24.5 14.5 39t38.5 14.5
t38.5 -14.5t14.5 -38.5q0 -72 -32 -128q-13 -23 -32 -42l-42 37q31 34 41 81q-16 3 -27 13q-14 14 -14 38.5z" />
    <glyph glyph-name="uni021C" unicode="&#x21c;" 
d="M52 64q114 10 203 62q60 34 86 80q20 35 20 72q0 53 -37 90q-5 -3 -11 -7q-84 -49 -197 -85l-24 69q122 38 183 73q45 26 67 64q19 32 18 68q0 38 -18 68q-14 25 -37 39q-25 14 -59 14q-33 0 -57 -14t-39 -39q-14 -24 -17 -53l-78 15q5 41 25 75q23 40 63 63
q43 25 103 25t104 -25q40 -23 62 -63q28 -48 28 -105q0 -50 -26 -96q-12 -20 -29 -38q18 -18 31 -41q25 -43 25 -95q0 -55 -29 -106q-36 -63 -112 -107q-107 -62 -240 -75z" />
    <glyph glyph-name="uni021D" unicode="&#x21d;" 
d="M52 -141q114 10 203 62q60 34 86 80q20 35 20 72q0 53 -37 90q-5 -3 -11 -7q-84 -49 -197 -85l-24 69q122 38 183 73q45 26 67 64q19 32 18 68q0 38 -18 68q-14 25 -37 39q-25 14 -59 14q-33 0 -57 -14t-39 -39q-14 -24 -17 -53l-78 15q5 41 25 75q23 40 63 63
q43 25 103 25t104 -25q40 -23 62 -63q28 -48 28 -105q0 -50 -26 -96q-12 -20 -29 -38q18 -18 31 -41q25 -43 25 -95q0 -55 -29 -106q-36 -63 -112 -107q-107 -62 -240 -75z" />
    <glyph glyph-name="uni021E" unicode="&#x21e;" 
d="M60 0v735h80v-313h220v313h80v-735h-80v350h-220v-350h-80zM76 924l69 49l105 -141l105 141l69 -49l-130 -151h-88z" />
    <glyph glyph-name="uni021F" unicode="&#x21f;" 
d="M60 0v735h80v-281q2 3 3 6q23 40 58 60q32 18 74 18t73 -18q35 -20 58 -60q34 -59 34 -150v-310h-80v310q0 63 -23 104q-15 27 -39 40q-21 12 -48 12t-48 -12q-23 -13 -39 -40q-23 -40 -23 -104v-310h-80zM76 924l69 49l105 -141l105 141l69 -49l-130 -151h-88z" />
    <glyph glyph-name="uni0220" unicode="&#x220;" 
d="M60 0v735h80v-76q2 3 3 6q23 40 58 60q32 18 74 18t73 -18q35 -20 58 -60q34 -59 34 -150v-720h-80v720q0 63 -23 104q-15 27 -39 40q-21 12 -48 12t-48 -12q-23 -13 -39 -40q-23 -40 -23 -104v-515h-80z" />
    <glyph glyph-name="uni0221" unicode="&#x221;" 
d="M52 220v90q0 101 35 162q20 35 50 52q24 14 55 14q29 0 51 -13q27 -16 46 -49q3 -4 5 -9v268h80v-529q17 4 35 4q34 0 60 -15q20 -11 31 -31q15 -27 16 -63q0 -35 -16 -61q-12 -21 -32 -33q-27 -15 -61 -15q-32 0 -57 15q-24 14 -38 38q-7 11 -11 26q-5 -6 -9 -13
q-8 -14 -17 -25l-8 -14q-35 -60 -50 -128l-74 14q10 46 28 89q-18 3 -34 12q-29 17 -50 52q-35 61 -35 162zM132 220q0 -74 24 -116q13 -22 30 -32q11 -5 22 -7q40 65 83 100q4 25 3 55v90q0 78 -24 121q-11 20 -27 28q-12 7 -27 7q-17 0 -30 -8q-17 -10 -30 -32
q-24 -42 -24 -116v-90zM374 112q0 -30 12 -43q9 -9 21 -8q13 0 22 9q11 11 10.5 31.5t-10.5 30.5t-26 10q-14 0 -29 -7v-23z" />
    <glyph glyph-name="uni0222" unicode="&#x222;" 
d="M52 195v32q0 66 27 113q22 39 61 62q-37 22 -57 57q-23 40 -23 94v182h80v-182q0 -43 17 -72q14 -24 37 -37q24 -14 56.5 -14t55.5 14q23 13 37 37q17 30 17 72v182h80v-182q0 -54 -23 -94q-20 -35 -57 -57q38 -23 61 -62q27 -47 27 -113v-32q0 -66 -27 -113
q-23 -40 -64 -64q-45 -26 -107 -26t-107 26q-40 23 -64 64q-27 47 -27 113zM132 195q0 -45 18 -77q15 -25 39 -39q26 -15 61 -15t61 15q25 14 39 39q18 31 18 77v32q0 45 -18 76q-15 25 -39 40q-26 15 -61 15t-61 -15q-25 -14 -39 -40q-18 -31 -18 -76v-32z" />
    <glyph glyph-name="uni0223" unicode="&#x223;" 
d="M52 220v69q0 81 32 136q23 39 59 63q-39 22 -60 58q-23 40 -23 94v95h80v-95q0 -43 17 -72q14 -24 37 -38q24 -14 56.5 -13.5t55.5 13.5t37 38q17 30 17 72v95h80v-95q0 -54 -23 -94q-21 -37 -60 -58q36 -23 59 -63q32 -55 32 -136v-69q0 -81 -32 -136q-19 -33 -47 -55
q-9 -7 -20 -13q-42 -24 -99 -24t-99 24q-41 24 -67 68q-32 55 -32 136zM132 220q0 -61 23 -100q16 -28 41 -43q23 -13 54 -13t54 13q25 14 41 43q23 40 23 100v69q0 61 -23 100q-16 28 -41 42q-23 14 -54 14t-54 -14q-25 -14 -41 -42q-23 -40 -23 -100v-69z" />
    <glyph glyph-name="uni0224" unicode="&#x224;" 
d="M60 0v72l288 591h-288v72h380v-72l-288 -591h118q44 0 78 -20q35 -20 59 -60q33 -58 33 -147h-80q0 71 -24 113q-13 23 -32 33q-15 9 -34 9h-210z" />
    <glyph glyph-name="uni0225" unicode="&#x225;" 
d="M60 0v72l284 386h-284v72h380v-72l-284 -386h114q44 0 78 -20q35 -20 59 -60q33 -58 33 -147h-80q0 71 -24 113q-13 23 -32 33q-15 9 -34 9h-210z" />
    <glyph glyph-name="uni0226" unicode="&#x226;" 
d="M60 0v74q0 200 150 661h80q150 -461 150 -661v-74h-80v74q0 51 -9 119h-202q-9 -69 -9 -119v-74h-80zM160 265h180q-27 154 -90 379q-63 -225 -90 -379zM188 890q0 20 8 34q7 13 20 20q14 8 34 8.5t34 -8.5q13 -7 20 -20q8 -14 8 -34t-8 -34q-7 -13 -20 -20
q-14 -9 -34 -9t-34 9q-13 7 -20 20q-8 14 -8 34z" />
    <glyph glyph-name="uni0227" unicode="&#x227;" 
d="M52 149q0 46 19 78q20 35 60 58q55 32 138 32h91v46q0 31 -13 54q-12 21 -34 34q-27 15 -66 15q-40 0 -66 -16q-22 -12 -35 -34q-9 -16 -11 -34l-77 18q4 28 18 53q21 37 58 59q46 26 113 26q66 0 113 -27q38 -22 58 -57q22 -38 22 -91v-363h-80v74q-23 -38 -60 -59
q-40 -23 -94 -23q-49 0 -83 20q-31 18 -50 50q-21 37 -21 87zM132 149q0 -49 40 -71q24 -14 59 -14q40 0 69 17q27 15 42 42q18 31 18 75v47h-91q-56 0 -92 -20q-23 -13 -35 -34q-10 -18 -10 -42zM188 685q0 20 8 34q7 13 20 20q14 8 34 8.5t34 -8.5q13 -7 20 -20
q8 -14 8 -34t-8 -34q-7 -13 -20 -20q-14 -9 -34 -9t-34 9q-13 7 -20 20q-8 14 -8 34z" />
    <glyph glyph-name="uni0228" unicode="&#x228;" 
d="M90 0v735h350v-72h-270v-230h213v-72h-213v-289h270v-72h-350zM150 -142h100q14 0 22 8q6 6 6 15.5t-6 15.5q-8 8 -22 7h-40v96h80v-29q38 -11 56 -42q12 -20 12 -48t-12 -48q-11 -20 -32 -32q-26 -15 -64 -15h-100v72z" />
    <glyph glyph-name="uni0229" unicode="&#x229;" 
d="M52 220v90q0 81 32 136q25 44 67 68t99 24t99 -24q41 -24 67 -68q32 -55 32 -136v-81h-316v-9q0 -58 23 -97q17 -29 42 -44t60 -15t60 15q27 15 44 44q10 16 15 36l73 -29q-7 -23 -19 -43q-26 -44 -68 -69q-36 -20 -82 -25q-11 -1 -23 -1q-61 0 -105 26q-42 25 -68 68
q-32 55 -32 134zM132 301h236v9q0 61 -23 100q-16 28 -41 43q-23 13 -54 13t-54 -13q-25 -14 -41 -43q-23 -40 -23 -100v-9zM150 -142h100q14 0 22 8q6 6 6 15.5t-6 15.5q-8 8 -22 7h-40v96h80v-29q38 -11 56 -42q12 -20 12 -48t-12 -48q-11 -20 -32 -32q-26 -15 -64 -15
h-100v72z" />
    <glyph glyph-name="uni022A" unicode="&#x22a;" 
d="M288 890q0 20 8 34q7 13 20 20q14 8 34 8.5t34 -8.5q13 -7 20 -20q8 -14 8 -34t-8 -34q-7 -13 -20 -20q-14 -9 -34 -9t-34 9q-13 7 -20 20q-8 14 -8 34zM88 890q0 20 8 34q7 13 20 20q14 8 34 8.5t34 -8.5q13 -7 20 -20q8 -14 8 -34t-8 -34q-7 -13 -20 -20q-14 -9 -34 -9
t-34 9q-13 7 -20 20q-8 14 -8 34zM52 195v345q0 66 27 113q23 40 64 64q45 26 107 26t107 -26q40 -23 64 -64q27 -47 27 -113v-345q0 -66 -27 -113q-23 -40 -64 -64q-45 -26 -107 -26t-107 26q-40 23 -64 64q-27 47 -27 113zM132 195q0 -45 18 -77q15 -25 39 -39
q26 -15 61 -15t61 15q25 14 39 39q18 31 18 77v345q0 45 -18 77q-15 25 -39 39q-26 15 -61 15t-61 -15q-25 -14 -39 -39q-18 -31 -18 -77v-345zM100 1068v72h300v-72h-300z" />
    <glyph glyph-name="uni022B" unicode="&#x22b;" 
d="M288 685q0 20 8 34q7 13 20 20q14 8 34 8.5t34 -8.5q13 -7 20 -20q8 -14 8 -34t-8 -34q-7 -13 -20 -20q-14 -9 -34 -9t-34 9q-13 7 -20 20q-8 14 -8 34zM88 685q0 20 8 34q7 13 20 20q14 8 34 8.5t34 -8.5q13 -7 20 -20q8 -14 8 -34t-8 -34q-7 -13 -20 -20q-14 -9 -34 -9
t-34 9q-13 7 -20 20q-8 14 -8 34zM52 220v90q0 81 32 136q25 44 67 68t99 24t99 -24q41 -24 67 -68q32 -55 32 -136v-90q0 -81 -32 -136q-19 -33 -47 -55q-9 -7 -20 -13q-42 -24 -99 -24t-99 24q-41 24 -67 68q-32 55 -32 136zM132 220q0 -61 23 -100q16 -28 41 -43
q23 -13 54 -13t54 13q25 14 41 43q23 40 23 100v90q0 61 -23 100q-16 28 -41 43q-23 13 -54 13t-54 -13q-25 -14 -41 -43q-23 -40 -23 -100v-90zM100 863v72h300v-72h-300z" />
    <glyph glyph-name="uni022C" unicode="&#x22c;" 
d="M67 818q19 46 36 76q26 45 53 61q17 10 36 9q18 0 35 -9q23 -13 54 -62q18 -28 27 -36q11 10 25 33q16 27 34 71l66 -24q-19 -46 -36 -76q-26 -45 -53 -61q-17 -10 -36 -10q-18 0 -35 10q-23 13 -54 61q-18 28 -27 37q-11 -10 -25 -34q-16 -27 -34 -71zM52 195v345
q0 66 27 113q23 40 64 64q45 26 107 26t107 -26q40 -23 64 -64q27 -47 27 -113v-345q0 -66 -27 -113q-23 -40 -64 -64q-45 -26 -107 -26t-107 26q-40 23 -64 64q-27 47 -27 113zM132 195q0 -45 18 -77q15 -25 39 -39q26 -15 61 -15t61 15q25 14 39 39q18 31 18 77v345
q0 45 -18 77q-15 25 -39 39q-26 15 -61 15t-61 -15q-25 -14 -39 -39q-18 -31 -18 -77v-345zM100 1068v72h300v-72h-300z" />
    <glyph glyph-name="uni022D" unicode="&#x22d;" 
d="M67 613q19 46 36 76q26 45 53 61q17 10 36 9q18 0 35 -9q23 -13 54 -62q18 -28 27 -36q11 10 25 33q16 27 34 71l66 -24q-19 -46 -36 -76q-26 -45 -53 -61q-17 -10 -36 -10q-18 0 -35 10q-23 13 -54 61q-18 28 -27 37q-11 -10 -25 -34q-16 -27 -34 -71zM52 220v90
q0 81 32 136q25 44 67 68t99 24t99 -24q41 -24 67 -68q32 -55 32 -136v-90q0 -81 -32 -136q-19 -33 -47 -55q-9 -7 -20 -13q-42 -24 -99 -24t-99 24q-41 24 -67 68q-32 55 -32 136zM132 220q0 -61 23 -100q16 -28 41 -43q23 -13 54 -13t54 13q25 14 41 43q23 40 23 100v90
q0 61 -23 100q-16 28 -41 43q-23 13 -54 13t-54 -13q-25 -14 -41 -43q-23 -40 -23 -100v-90zM100 863v72h300v-72h-300z" />
    <glyph glyph-name="uni022E" unicode="&#x22e;" 
d="M188 890q0 20 8 34q7 13 20 20q14 8 34 8.5t34 -8.5q13 -7 20 -20q8 -14 8 -34t-8 -34q-7 -13 -20 -20q-14 -9 -34 -9t-34 9q-13 7 -20 20q-8 14 -8 34zM52 195v345q0 66 27 113q23 40 64 64q45 26 107 26t107 -26q40 -23 64 -64q27 -47 27 -113v-345q0 -66 -27 -113
q-23 -40 -64 -64q-45 -26 -107 -26t-107 26q-40 23 -64 64q-27 47 -27 113zM132 195q0 -45 18 -77q15 -25 39 -39q26 -15 61 -15t61 15q25 14 39 39q18 31 18 77v345q0 45 -18 77q-15 25 -39 39q-26 15 -61 15t-61 -15q-25 -14 -39 -39q-18 -31 -18 -77v-345z" />
    <glyph glyph-name="uni022F" unicode="&#x22f;" 
d="M188 685q0 20 8 34q7 13 20 20q14 8 34 8.5t34 -8.5q13 -7 20 -20q8 -14 8 -34t-8 -34q-7 -13 -20 -20q-14 -9 -34 -9t-34 9q-13 7 -20 20q-8 14 -8 34zM52 220v90q0 81 32 136q25 44 67 68t99 24t99 -24q41 -24 67 -68q32 -55 32 -136v-90q0 -81 -32 -136
q-19 -33 -47 -55q-9 -7 -20 -13q-42 -24 -99 -24t-99 24q-41 24 -67 68q-32 55 -32 136zM132 220q0 -61 23 -100q16 -28 41 -43q23 -13 54 -13t54 13q25 14 41 43q23 40 23 100v90q0 61 -23 100q-16 28 -41 43q-23 13 -54 13t-54 -13q-25 -14 -41 -43q-23 -40 -23 -100v-90z
" />
    <glyph glyph-name="uni0230" unicode="&#x230;" 
d="M188 890q0 20 8 34q7 13 20 20q14 8 34 8.5t34 -8.5q13 -7 20 -20q8 -14 8 -34t-8 -34q-7 -13 -20 -20q-14 -9 -34 -9t-34 9q-13 7 -20 20q-8 14 -8 34zM52 195v345q0 66 27 113q23 40 64 64q45 26 107 26t107 -26q40 -23 64 -64q27 -47 27 -113v-345q0 -66 -27 -113
q-23 -40 -64 -64q-45 -26 -107 -26t-107 26q-40 23 -64 64q-27 47 -27 113zM132 195q0 -45 18 -77q15 -25 39 -39q26 -15 61 -15t61 15q25 14 39 39q18 31 18 77v345q0 45 -18 77q-15 25 -39 39q-26 15 -61 15t-61 -15q-25 -14 -39 -39q-18 -31 -18 -77v-345zM100 1068v72
h300v-72h-300z" />
    <glyph glyph-name="uni0231" unicode="&#x231;" 
d="M188 685q0 20 8 34q7 13 20 20q14 8 34 8.5t34 -8.5q13 -7 20 -20q8 -14 8 -34t-8 -34q-7 -13 -20 -20q-14 -9 -34 -9t-34 9q-13 7 -20 20q-8 14 -8 34zM52 220v90q0 81 32 136q25 44 67 68t99 24t99 -24q41 -24 67 -68q32 -55 32 -136v-90q0 -81 -32 -136
q-19 -33 -47 -55q-9 -7 -20 -13q-42 -24 -99 -24t-99 24q-41 24 -67 68q-32 55 -32 136zM132 220q0 -61 23 -100q16 -28 41 -43q23 -13 54 -13t54 13q25 14 41 43q23 40 23 100v90q0 61 -23 100q-16 28 -41 43q-23 13 -54 13t-54 -13q-25 -14 -41 -43q-23 -40 -23 -100v-90z
M100 863v72h300v-72h-300z" />
    <glyph glyph-name="uni0232" unicode="&#x232;" 
d="M60 691v44h80v-44q0 -103 55 -209l55 -104l55 104q55 106 55 209v44h80v-44q0 -119 -65 -242l-85 -163v-286h-80v286l-85 163q-65 123 -65 242zM100 854v72h300v-72h-300z" />
    <glyph glyph-name="uni0233" unicode="&#x233;" 
d="M60 493v37h80v-37q0 -52 30 -140l79 -235l81 235q30 86 30 140v37h80v-37q0 -65 -34 -164l-158 -456q-8 -22 -8 -71v-7h-80v7q0 59 12 95l38 108l-116 324q-34 96 -34 164zM100 649v72h300v-72h-300z" />
    <glyph glyph-name="uni0234" unicode="&#x234;" 
d="M40 -53q17 64 51 121q52 91 119 140v455h-135v72h215v-487q26 7 53 7q42 0 73 -18q25 -14 38 -39q19 -32 19 -74t-18 -74q-14 -25 -39 -39q-33 -19 -74 -19q-35 0 -64 16q-28 16 -45 46q-12 21 -18 56q-28 -31 -53 -75q-28 -50 -44 -107zM290 145q0 -49 18 -67
q14 -14 33 -14q22 0 36 14q16 16 16 45.5t-15 44.5t-40 15q-22 0 -48 -13v-25z" />
    <glyph glyph-name="uni0235" unicode="&#x235;" 
d="M60 0v530h80v-63q2 5 5 9q19 34 47 49q22 13 50 13t50 -13q27 -16 47 -49q35 -61 35 -166v-103q16 3 34 3q36 0 61 -15q20 -11 31 -31q15 -27 16 -63q0 -35 -15 -61q-12 -21 -33 -33q-27 -15 -61 -15q-32 0 -57 15q-24 14 -38 38q-8 15 -13 36q-25 -27 -46 -65
q-23 -40 -36 -85l-73 19q31 108 110 187q20 20 40 35v138q0 78 -24 121q-11 20 -27 28q-12 7 -26 7t-26 -7q-15 -9 -26 -28q-25 -43 -25 -121v-310h-80zM374 112q0 -30 12 -43q9 -9 21 -8q13 0 22 9q11 11 10.5 31.5t-10.5 30.5t-27 10q-13 0 -28 -6v-24z" />
    <glyph glyph-name="uni0236" unicode="&#x236;" 
d="M22 -57q17 79 58 150q38 66 80 105v260h-109v72h109v205h80v-205h161v-72h-161v-212q27 9 55 9q39 0 70 -18q25 -15 39 -40q19 -32 19 -73.5t-18 -73.5q-14 -25 -39 -39q-33 -19 -74 -19q-35 0 -64 16q-28 16 -45 46q-8 15 -14 35l-18 -29q-36 -62 -51 -132zM240 145
q0 -49 18 -67q14 -14 33 -14q22 0 36 14q16 16 16 45.5t-16 45.5q-14 14 -37 14q-20 0 -42 -13q-4 -2 -8 -5v-20z" />
    <glyph glyph-name="uni0237" unicode="&#x237;" 
d="M13 -70l76 24q5 -28 17 -50q13 -23 33 -35q18 -10 41 -10t41 10q20 11 32 34q20 34 20 87v468h-135v72h215v-540q0 -73 -29 -123q-22 -38 -58 -59t-85.5 -21t-85.5 21t-59 59q-16 29 -23 63z" />
    <glyph glyph-name="uni0238" unicode="&#x238;" 
d="M44 132v266q0 49 20 83q16 27 41 42q26 15 62 15q24 0 43 -7v204h80v-204q19 7 43 7q36 0 62 -15t41 -42q20 -34 20 -83v-266q0 -49 -20 -83q-16 -27 -41 -42q-26 -15 -62 -15t-62 15q-11 7 -21 16q-9 -9 -21 -16q-26 -15 -62 -15t-62 15t-41 42q-20 34 -20 83zM124 132
q0 -40 18 -58q10 -10 25 -10t25 10q18 18 18 58v266q0 40 -18 58q-10 10 -25 10t-25 -10q-18 -18 -18 -58v-266zM290 132q0 -40 18 -58q10 -10 25 -10t25 10q18 18 18 58v266q0 40 -18 58q-10 10 -25 10t-25 -10q-18 -18 -18 -58v-266z" />
    <glyph glyph-name="uni0239" unicode="&#x239;" 
d="M44 132v266q0 49 20 83q16 27 41 42q26 15 62 15t62 -15q11 -7 21 -16q9 9 21 16q26 15 62 15t62 -15t41 -42q20 -34 20 -83v-266q0 -49 -20 -83q-16 -27 -41 -42q-26 -15 -62 -15q-24 0 -43 7v-204h-80v204q-19 -7 -43 -7q-36 0 -62 15t-41 42q-20 34 -20 83zM124 132
q0 -40 18 -58q10 -10 25 -10t25 10q18 18 18 58v266q0 40 -18 58q-10 10 -25 10t-25 -10q-18 -18 -18 -58v-266zM290 132q0 -40 18 -58q10 -10 25 -10t25 10q18 18 18 58v266q0 40 -18 58q-10 10 -25 10t-25 -10q-18 -18 -18 -58v-266z" />
    <glyph glyph-name="uni023A" unicode="&#x23a;" 
d="M60 0v74q0 200 150 661h80q150 -461 150 -661v-74h-80v74q0 51 -9 119h-202q-9 -69 -9 -119v-74h-80zM160 265h180q-27 154 -90 379q-63 -225 -90 -379zM82 -65l278 882l58 -16l-278 -882z" />
    <glyph glyph-name="uni023B" unicode="&#x23b;" 
d="M82 -65l278 882l58 -16l-278 -882zM52 195v345q0 66 27 114q23 40 64 63q45 26 107 26t107 -26q40 -23 63 -64q19 -34 25 -73l-78 -14q-3 28 -17 50q-15 26 -39 40q-26 15 -61 15t-61 -15q-24 -14 -39 -39q-18 -32 -18 -77v-345q0 -45 18 -77q15 -25 39 -39
q26 -15 61 -15t61 15q25 14 39 40q13 23 17 50l78 -14q-5 -40 -25 -73q-23 -41 -63 -64q-45 -26 -107 -26t-107 26q-40 23 -64 63q-27 47 -27 114z" />
    <glyph glyph-name="uni023C" unicode="&#x23c;" 
d="M84 -42l278 636l54 -22l-278 -636zM52 220v90q0 80 32 136q25 44 67 67q43 25 100.5 25t100.5 -25q42 -24 67 -67q19 -32 26 -71l-76 -22q-5 31 -20 56q-16 28 -42 43q-24 14 -56 14q-31 0 -55 -14q-25 -15 -41 -42q-23 -40 -23 -100v-90q0 -60 23 -100q16 -28 41 -42
q24 -14 55 -14q32 0 56 14q26 15 42 43q14 25 20 56l76 -22q-7 -38 -26 -71q-25 -44 -67 -67q-43 -25 -101 -25t-100 25q-42 24 -67 67q-32 56 -32 136z" />
    <glyph glyph-name="uni023D" unicode="&#x23d;" 
d="M18 346v72h72v317h80v-317h92v-72h-92v-274h278v-72h-358v346h-72z" />
    <glyph glyph-name="uni023E" unicode="&#x23e;" 
d="M60 663v72h380v-72h-150v-663h-80v663h-150zM82 -65l278 882l58 -16l-278 -882z" />
    <glyph glyph-name="uni023F" unicode="&#x23f;" 
d="M55 110h3l74 24q3 -9 8 -18q13 -23 37 -36q28 -16 71 -16q47 0 77 17q19 11 28 27q8 14 8 32q0 19 -10 36q-10 18 -30 30q-24 14 -80 20q-70 8 -105 28q-36 21 -56 56q-21 36 -21 80q0 39 17 69q18 31 53 51q49 28 123 28q70 0 117 -27q38 -22 60 -60q9 -15 14 -31
l-75 -24q-3 9 -8 18q-13 23 -37 36q-28 16 -71 16q-47 0 -77 -17q-19 -11 -28 -27q-8 -14 -8 -32q0 -19 10 -36q10 -18 30 -30q24 -14 80 -20q70 -8 105 -28q36 -21 56 -56q21 -36 21 -80q0 -39 -17 -69q-18 -31 -53 -51q-49 -28 -123 -28q-56 0 -97 17q35 -66 99 -104
q66 -38 189 -38h1v-72h-1q-137 0 -213 44t-122 124q-39 68 -49 147z" />
    <glyph glyph-name="uni0240" unicode="&#x240;" 
d="M60 0l294 458h-294v72h380v-72l-283 -441q96 -92 141 -118q55 -32 141 -32h1v-72h-1q-109 0 -181 42q-70 40 -193 163h-5z" />
    <glyph glyph-name="uni0241" unicode="&#x241;" 
d="M55 580q6 40 26 74q24 42 64 64q43 25 101 25t101 -25q40 -23 64 -64q29 -51 29 -116q0 -73 -38 -139q-15 -26 -45 -64q-29 -37 -40 -57q-27 -47 -27 -119v-159h-80v159q0 90 33 147q13 22 43 62q30 39 43 61q32 55 31 109q0 45 -20 80q-15 26 -39 39q-24 14 -55.5 14
t-55.5 -14t-39 -40q-14 -24 -18 -55z" />
    <glyph glyph-name="uni0242" unicode="&#x242;" 
d="M55 375v5q0 40 20 74q21 36 58 58q46 26 114 26q69 0 117 -27q37 -21 56.5 -55.5t19.5 -76.5q0 -48 -25 -91q-17 -30 -58 -68q-37 -35 -49 -57q-18 -31 -18 -83v-80h-80v80q0 72 24 113q15 26 57 68q39 39 53 62q16 28 16 56q0 22 -10 40q-11 19 -32 31q-28 16 -70 16
q-41 0 -68 -16q-22 -12 -34 -33q-12 -20 -12 -43q0 -3 1 -6z" />
    <glyph glyph-name="uni0243" unicode="&#x243;" 
d="M18 184v72h42v479h175q56 0 97 -24q37 -21 60 -60q26 -46 26 -109q0 -56 -23 -96t-65 -61q63 -23 94 -78q24 -41 24 -99q0 -65 -27 -112q-25 -43 -67 -68q-49 -28 -119 -28h-175v184h-42zM140 72h95q42 0 72 17q27 15 43 43q18 32 18 77t-18 77q-16 28 -43 43
q-30 17 -72 17h-95v-90h110v-72h-110v-112zM140 418h95q58 0 86 48q17 30 17 75q0 44 -17 74q-28 48 -86 48h-95v-245z" />
    <glyph glyph-name="uni0244" unicode="&#x244;" 
d="M30 346v72h440v-72h-440zM60 195v540h80v-540q0 -47 19 -80q14 -25 37 -38t54 -13t54 13.5t37 37.5q19 32 19 80v540h80v-540q0 -68 -28 -116q-23 -40 -62 -63q-42 -24 -100 -24t-100 24q-39 23 -62 63q-28 48 -28 116z" />
    <glyph glyph-name="uni0245" unicode="&#x245;" 
d="M60 0v74q0 61 17 132q9 36 25 108q55 239 112 421h72q57 -182 112 -421l25 -108q17 -70 17 -132v-74h-80v74q0 59 -15 128q-8 35 -22 104q-36 175 -73 319q-37 -144 -73 -319q-14 -69 -22 -104q-15 -68 -15 -128v-74h-80z" />
    <glyph glyph-name="uni0246" unicode="&#x246;" 
d="M90 0v735h350v-72h-270v-230h213v-72h-213v-289h270v-72h-350zM82 -65l278 882l58 -16l-278 -882z" />
    <glyph glyph-name="uni0247" unicode="&#x247;" 
d="M52 220v90q0 81 32 136q25 44 67 68t99 24t99 -24q41 -24 67 -68q32 -55 32 -136v-81h-316v-9q0 -58 23 -97q17 -29 42 -44t60 -15t60 15q27 15 44 44q10 16 15 36l73 -29q-7 -23 -19 -43q-26 -44 -68 -69q-36 -20 -82 -25q-11 -1 -23 -1q-61 0 -105 26q-42 25 -68 68
q-32 55 -32 134zM132 301h236v9q0 61 -23 100q-16 28 -41 43q-23 13 -54 13t-54 -13q-25 -14 -41 -43q-23 -40 -23 -100v-9zM84 -42l278 636l54 -22l-278 -636z" />
    <glyph glyph-name="uni0248" unicode="&#x248;" 
d="M40 155l78 15q3 -30 18 -55q14 -25 37 -38t53.5 -13t52.5 13q23 13 37 38q19 32 19 80v468h-135v72h215v-540q0 -68 -28 -117q-23 -40 -62 -62q-42 -24 -99 -24t-99 24q-39 22 -62 62q-20 35 -25 77zM224 346v72h262v-72h-262z" />
    <glyph glyph-name="uni0249" unicode="&#x249;" 
d="M13 -70l76 24q5 -28 17 -50q13 -23 33 -35q18 -10 41 -10t41 10q20 11 32 34q20 34 20 87v468h-135v72h215v-540q0 -73 -29 -123q-22 -38 -58 -59t-85.5 -21t-85.5 21t-59 59q-16 29 -23 63zM237 685q0 20 8 34q7 13 20 20q14 8 34.5 8.5t34.5 -8.5q13 -7 20 -20
q8 -14 8 -34t-8 -34q-7 -13 -20 -20q-14 -9 -34 -9t-35 9q-13 7 -20 20q-8 14 -8 34zM169 229v72h262v-72h-262z" />
    <glyph glyph-name="uni024A" unicode="&#x24a;" 
d="M52 220v295q0 88 33 146q24 41 61 62q34 20 79 20q42 0 74 -18q35 -20 58 -60q2 -3 3 -6v76h80v-735q0 -47 14 -71q12 -20 32 -32q27 -16 84 -16v-72q-92 0 -136 25q-33 19 -52 52q-22 39 -22 114v76q-2 -3 -3 -6q-23 -40 -58 -60q-32 -18 -74 -18q-45 0 -79 20
q-37 21 -61 62q-33 58 -33 146zM132 220q0 -61 23 -100q16 -28 41 -43q23 -13 53 -13q28 0 49 12q23 13 39 40q23 40 23 104v295q0 63 -23 104q-15 27 -39 40q-21 12 -49 12q-30 0 -53 -13q-25 -14 -41 -43q-23 -40 -23 -100v-295z" />
    <glyph glyph-name="uni024B" unicode="&#x24b;" 
d="M52 220v90q0 88 33 146q24 41 61 62q34 20 79 20q42 0 74 -18q35 -20 58 -60q2 -3 3 -6v76h80v-530q0 -47 14 -71q12 -20 32 -32q27 -16 84 -16v-72q-92 0 -136 25q-33 19 -52 52q-22 39 -22 114v76q-2 -3 -3 -6q-23 -40 -58 -60q-32 -18 -74 -18q-45 0 -79 20
q-37 21 -61 62q-33 58 -33 146zM132 220q0 -61 23 -100q16 -28 41 -43q23 -13 53 -13q28 0 49 12q23 13 39 40q23 40 23 104v90q0 63 -23 104q-15 27 -39 40q-21 12 -49 12q-30 0 -53 -13q-25 -14 -41 -43q-23 -40 -23 -100v-90z" />
    <glyph glyph-name="uni024C" unicode="&#x24c;" 
d="M60 0v735h191q60 0 105 -25q40 -23 64 -65q28 -49 28 -119.5t-28 -119.5q-24 -42 -64 -65q-18 -10 -39 -17q27 -40 50 -78q81 -141 81 -246h-80q0 90 -69 210q-29 51 -70 105h-89v-315h-80zM140 387h111q66 0 98 55q19 34 19 83.5t-19 82.5q-31 55 -98 55h-111v-276z
M9 318v72h262v-72h-262z" />
    <glyph glyph-name="uni024D" unicode="&#x24d;" 
d="M120 0v530h80v-99q7 20 17 36q22 38 53 56q25 15 58 15q35 0 65 -17q31 -18 49 -49q9 -15 13 -32l-75 -34q-3 12 -9 23q-11 19 -28 29q-14 8 -32 8q-24 0 -43 -11q-23 -13 -39 -41q-29 -50 -29 -133v-281h-80zM51 229v72h262v-72h-262z" />
    <glyph glyph-name="uni024E" unicode="&#x24e;" 
d="M60 691v44h80v-44q0 -103 55 -209l55 -104l55 104q55 106 55 209v44h80v-44q0 -119 -65 -242l-85 -163v-286h-80v286l-85 163q-65 123 -65 242zM30 258v72h440v-72h-440z" />
    <glyph glyph-name="uni024F" unicode="&#x24f;" 
d="M60 493v37h80v-37q0 -52 30 -140l79 -235l81 235q30 86 30 140v37h80v-37q0 -65 -34 -164l-158 -456q-8 -22 -8 -71v-7h-80v7q0 59 12 95l38 108l-116 324q-34 96 -34 164zM30 141v72h440v-72h-440z" />
    <glyph glyph-name="uni0250" unicode="&#x250;" 
d="M60 167v363h80v-74q23 38 60 59q40 23 94 23q49 0 83 -20q31 -18 50 -50q21 -37 21 -87q0 -46 -19 -78q-20 -35 -60 -58q-55 -32 -138 -32h-91v-46q0 -31 13 -54q12 -21 34 -34q27 -15 66 -15q40 0 66 16q22 12 35 34q9 16 11 34l77 -18q-4 -28 -18 -53q-21 -37 -58 -59
q-46 -26 -113 -26q-66 0 -113 27q-38 22 -58 57q-22 38 -22 91zM140 285h91q56 0 92 20q23 13 35 34q10 18 10 42q0 49 -40 71q-24 14 -59 14q-40 0 -69 -17q-27 -15 -42 -42q-18 -31 -18 -75v-47z" />
    <glyph glyph-name="uni0251" unicode="&#x251;" 
d="M52 220v90q0 88 33 146q24 41 61 62q34 20 79 20q42 0 74 -18q35 -20 58 -60q2 -3 3 -6v40l80 44v-538h-80v76q-2 -3 -3 -6q-23 -40 -58 -60q-32 -18 -74 -18q-45 0 -79 20q-37 21 -61 62q-33 58 -33 146zM132 220q0 -61 23 -100q16 -28 41 -43q23 -13 53 -13q28 0 49 12
q23 13 39 40q23 40 23 104v90q0 63 -23 104q-15 27 -39 40q-21 12 -49 12q-30 0 -53 -13q-25 -14 -41 -43q-23 -40 -23 -100v-90z" />
    <glyph glyph-name="uni0252" unicode="&#x252;" 
d="M60 -8v538h80v-76q2 3 3 6q23 40 58 60q32 18 74 18q45 0 79 -20q37 -21 61 -62q33 -58 33 -146v-90q0 -88 -33 -146q-24 -41 -61 -62q-34 -20 -79 -20q-42 0 -74 18q-35 20 -58 60q-2 3 -3 6v-40zM140 220q0 -63 23 -104q15 -27 39 -40q21 -12 49 -12q30 0 53 13
q25 14 41 43q23 40 23 100v90q0 61 -23 100q-16 28 -41 43q-23 13 -53 13q-28 0 -49 -12q-23 -13 -39 -40q-23 -40 -23 -104v-90z" />
    <glyph glyph-name="uni0253" unicode="&#x253;" 
d="M60 0v515q0 81 32 137q25 43 66 67t97 24t98 -24q41 -24 66 -67q19 -33 26 -72l-76 -23q-5 33 -20 59q-16 28 -41 42q-23 13 -53 13t-52 -13q-24 -14 -40 -42q-23 -40 -23 -101v-61q2 3 3 6q23 40 58 60q32 18 74 18q45 0 79 -20q37 -21 61 -62q33 -58 33 -146v-90
q0 -88 -33 -146q-24 -41 -61 -62q-34 -20 -79 -20q-42 0 -74 18q-35 20 -58 60q-2 3 -3 6v-76h-80zM140 220q0 -63 23 -104q15 -27 39 -40q21 -12 49 -12q30 0 53 13q25 14 41 43q23 40 23 100v90q0 61 -23 100q-16 28 -41 43q-23 13 -53 13q-28 0 -49 -12q-23 -13 -39 -40
q-23 -40 -23 -104v-90z" />
    <glyph glyph-name="uni0254" unicode="&#x254;" 
d="M55 155l76 22q5 -31 20 -56q16 -28 42 -43q24 -14 56 -14q31 0 55 14q25 15 41 42q23 40 23 100v90q0 60 -23 100q-16 28 -41 42q-24 14 -55 14q-32 0 -56 -14q-26 -15 -42 -43q-14 -25 -20 -56l-76 22q7 38 26 71q25 44 67 67q43 25 101 25t100 -25q42 -24 67 -67
q32 -56 32 -136v-90q0 -80 -32 -136q-25 -44 -67 -67q-43 -25 -100.5 -25t-100.5 25q-42 24 -67 67q-19 32 -26 71z" />
    <glyph glyph-name="uni0255" unicode="&#x255;" 
d="M4 -8q16 65 51 124q5 9 10 17q-13 39 -13 87v90q0 76 31 128q25 43 65 67q44 25 103.5 25t103.5 -25q41 -24 66 -67q17 -29 24 -63l-76 -22q-5 27 -18 48q-16 28 -41 43q-25 14 -58 14t-58 -14q-25 -15 -41 -42q-21 -37 -21 -92v-93q24 23 51 39q47 27 103 27
q51 0 91 -23q34 -19 52 -52q19 -32 19 -71t-19 -73q-18 -31 -49 -48q-28 -16 -64 -21q-18 -3 -40 -3q-71 0 -121 29q-24 14 -44 34q-19 -39 -29 -81zM155 127q17 -29 46 -45q32 -18 75 -18q60 0 83 38q9 16 9 35t-9 35q-10 17 -27 27q-21 12 -48 12q-32 0 -60 -17
q-35 -20 -69 -67z" />
    <glyph glyph-name="uni0256" unicode="&#x256;" 
d="M52 220v90q0 88 33 146q24 41 61 62q34 20 79 20q42 0 74 -18q35 -20 58 -60q2 -3 3 -6v281h80v-735q0 -47 14 -71q12 -20 32 -32q27 -16 84 -16v-72q-92 0 -136 25q-33 19 -52 52q-22 39 -22 114v76q-2 -3 -3 -6q-23 -40 -58 -60q-32 -18 -74 -18q-45 0 -79 20
q-37 21 -61 62q-33 58 -33 146zM132 220q0 -61 23 -100q16 -28 41 -43q23 -13 53 -13q28 0 49 12q23 13 39 40q23 41 23 104v90q0 63 -23 104q-15 27 -39 40q-21 12 -49 12q-30 0 -53 -13q-25 -14 -41 -43q-23 -40 -23 -100v-90z" />
    <glyph glyph-name="uni0257" unicode="&#x257;" 
d="M52 220v90q0 88 33 146q24 41 61 62q34 20 79 20q42 0 74 -18q35 -20 58 -60q2 -3 3 -6v76q0 57 24 99q23 39 64 63q50 29 122 29v-72q-44 0 -75 -18q-55 -32 -55 -101v-458h45v-72h-125v76q-2 -3 -3 -6q-23 -40 -58 -60q-32 -18 -74 -18q-45 0 -79 20q-37 21 -61 62
q-33 58 -33 146zM132 220q0 -61 23 -100q16 -28 41 -43q23 -13 53 -13q28 0 49 12q23 13 39 40q23 40 23 104v90q0 63 -23 104q-15 27 -39 40q-21 12 -49 12q-30 0 -53 -13q-25 -14 -41 -43q-23 -40 -23 -100v-90z" />
    <glyph glyph-name="uni0258" unicode="&#x258;" 
d="M47 130l73 29q5 -18 15 -35q17 -29 44 -45q27 -15 62 -15t61 15q27 15 44 44q22 39 22 97v9h-316v81q0 81 32 136q25 44 67 68t99 24t99 -24q41 -24 67 -68q32 -55 32 -136v-90q0 -78 -32 -133q-26 -44 -68 -69q-45 -26 -107 -26t-107 26q-43 25 -68 69q-12 20 -19 43z
M132 301h236v9q0 61 -23 100q-16 28 -41 43q-23 13 -54 13t-54 -13q-25 -14 -41 -43q-23 -40 -23 -100v-9z" />
    <glyph glyph-name="uni0259" unicode="&#x259;" 
d="M51 400q7 23 19 43q26 44 68 69q44 26 105 26t105 -26q42 -25 68 -68q32 -55 32 -134v-90q0 -81 -32 -136q-25 -44 -67 -68t-99 -24t-99 24q-41 24 -67 68q-32 55 -32 136v81h316v9q0 58 -23 97q-17 29 -42 44t-60 15t-60 -15q-27 -15 -44 -44q-10 -16 -15 -36zM132 220
q0 -61 23 -100q16 -28 41 -43q23 -13 54 -13t54 13q25 14 41 43q23 40 23 100v9h-236v-9z" />
    <glyph glyph-name="uni025A" unicode="&#x25a;" 
d="M51 400q8 33 24 60q23 40 58 60q32 18 74 18t74 -18q35 -20 58 -61q32 -56 34 -140h37v-1q0 -39 15 -65q12 -20 31 -31t41 -11h3v-65h-5q-45 0 -81 21q-24 14 -41 36q-3 -81 -34 -135q-23 -39 -57 -59q-30 -17 -69.5 -17t-69.5 17q-34 20 -57 59q-34 59 -34 152v81h241v9
q0 74 -24 116q-13 22 -31 32q-14 8 -31 8q-18 0 -33 -8q-18 -11 -32 -34q-14 -24 -19 -56zM132 220q0 -76 25 -119q12 -21 27 -30q12 -7 28 -7t29 7q16 9 27 30q25 43 25 119v9h-161v-9z" />
    <glyph glyph-name="uni025B" unicode="&#x25b;" 
d="M44 151q0 35 15 62q17 30 52 50q14 8 30 14q-10 4 -19 9q-32 19 -48 46q-14 24 -14 58q0 39 17 69q18 31 53 51q48 28 120 28q69 0 114 -26q37 -22 59 -59q9 -16 14 -33l-76 -24q-3 10 -8 20q-13 22 -35 34q-27 16 -68 16q-45 0 -74 -17q-19 -11 -27 -26q-9 -15 -9 -34
t8 -34q9 -16 29 -27q29 -16 73 -16h57v-72h-57q-51 0 -84 -19q-21 -12 -32 -31q-10 -17 -10 -38q0 -22 10 -38q10 -18 31 -31q33 -19 86 -19q48 0 80 18q26 15 41 41q4 7 7 14l74 -27q-5 -12 -11 -24q-24 -41 -66 -65q-49 -29 -125 -29q-79 0 -132 30q-37 22 -56 55
q-19 32 -19 74z" />
    <glyph glyph-name="uni025C" unicode="&#x25c;" 
d="M47 110l74 27q3 -7 7 -14q15 -26 41 -41q31 -18 80 -18q52 0 86 19q21 12 31 31q10 17 10 38t-10 38q-11 19 -32 31q-33 19 -84 19h-57v72h57q45 0 73 16q19 11 29 27q8 15 8 34t-9 34q-9 16 -27 26q-29 17 -74 17q-42 0 -68 -16q-22 -13 -35 -34q-5 -9 -8 -20l-76 24
q5 17 14 33q22 37 59 59q45 26 114 26q72 0 120 -28q35 -20 53 -51q17 -30 17 -69q0 -33 -14 -58q-16 -28 -48 -46q-9 -5 -19 -9q16 -6 30 -14q35 -20 52 -50q15 -26 15 -62q0 -42 -19 -74q-19 -33 -56 -55q-52 -30 -132 -30q-75 0 -125 29q-42 24 -66 65q-7 12 -11 24z" />
    <glyph glyph-name="uni025D" unicode="&#x25d;" 
d="M47 110l77 20q2 -14 9 -26q10 -17 27 -28q21 -12 52 -12q29 0 49 12q18 10 29 28q11 20 11 48t-12 48q-10 18 -28 28q-21 12 -49 12h-45v72h45q43 0 62 33q11 18 11 44t-10 44q-19 33 -62 33q-24 0 -42 -10q-14 -8 -22 -22t-8 -29l-78 15q2 27 16 51q17 29 46 46
q36 21 88 21q49 0 84 -20q31 -18 49 -48q19 -34 19 -80q0 -39 -16 -67q-1 -2 -3 -4h64v-1q0 -39 15 -65q12 -20 31 -31t41 -11h3v-65h-5q-45 0 -81 21q-25 14 -42 37q9 -23 9 -53q0 -48 -20 -84q-19 -33 -53 -52q-40 -23 -96 -23q-58 0 -98 23q-32 19 -51 51q-12 21 -16 44z
" />
    <glyph glyph-name="uni025E" unicode="&#x25e;" 
d="M52 220v90q0 81 32 136q25 44 67 68t101 24q65 0 111 -26q34 -20 52 -51q17 -30 17 -71t-17 -71q-13 -22 -34 -38q31 -20 48 -50q19 -33 19 -77.5t-19 -77.5q-20 -34 -56 -56q-49 -28 -120 -28q-60 0 -102 24t-67 68q-32 55 -32 136zM132 220q0 -60 23 -100
q16 -28 41 -43q23 -13 57 -13q43 0 73 17q21 12 32 31q10 18 10 41t-10 41q-11 19 -32 31q-30 17 -76 17h-57v72h57q40 0 66 15q18 10 27 27q9 15 9 34.5t-9 34.5q-9 16 -27 26q-26 15 -63 15q-33 0 -57 -13q-25 -15 -41 -43q-23 -40 -23 -100v-90z" />
    <glyph glyph-name="uni025F" unicode="&#x25f;" 
d="M40 -105l77 19q3 -23 13 -40q9 -16 23 -24q12 -7 29 -7q16 0 28 7q14 8 23 24q14 24 14 61v95h-168v72h168v428h80v-428h113v-72h-113v-95q0 -57 -23 -97q-18 -31 -48 -49q-31 -18 -73.5 -18t-74.5 18q-30 17 -48 49q-15 26 -20 57z" />
    </font>
</defs>
</svg>
