<?xml version="1.0" encoding="UTF-8" standalone="no"?>
<!DOCTYPE svg PUBLIC "-//W3C//DTD SVG 1.1//EN"
 "http://www.w3.org/Graphics/SVG/1.1/DTD/svg11.dtd">
<!-- Generated by graphviz version 2.40.1 (20161225.0304)
 -->
<!-- Title: ast Pages: 1 -->
<svg width="337pt" height="332pt"
 viewBox="0.00 0.00 337.00 332.00" xmlns="http://www.w3.org/2000/svg" xmlns:xlink="http://www.w3.org/1999/xlink">
<g id="graph0" class="graph" transform="scale(1 1) rotate(0) translate(4 328)">
<title>ast</title>
<polygon fill="#ffffff" stroke="transparent" points="-4,4 -4,-328 333,-328 333,4 -4,4"/>
<!-- root -->
<g id="node1" class="node">
<title>root</title>
<ellipse fill="none" stroke="#000000" cx="176" cy="-306" rx="51.9908" ry="18"/>
<text text-anchor="middle" x="176" y="-302.3" font-family="Times,serif" font-size="14.00" fill="#000000">application</text>
</g>
<!-- l -->
<g id="node2" class="node">
<title>l</title>
<ellipse fill="none" stroke="#000000" cx="117" cy="-234" rx="50.8918" ry="18"/>
<text text-anchor="middle" x="117" y="-230.3" font-family="Times,serif" font-size="14.00" fill="#000000">abstraction</text>
</g>
<!-- root&#45;&gt;l -->
<g id="edge1" class="edge">
<title>root&#45;&gt;l</title>
<path fill="none" stroke="#000000" d="M161.7177,-288.5708C154.5239,-279.7919 145.6676,-268.9841 137.7395,-259.3093"/>
<polygon fill="#000000" stroke="#000000" points="140.4007,-257.0347 131.3552,-251.5182 134.9863,-261.4714 140.4007,-257.0347"/>
</g>
<!-- r -->
<g id="node9" class="node">
<title>r</title>
<ellipse fill="none" stroke="#000000" cx="236" cy="-234" rx="50.8918" ry="18"/>
<text text-anchor="middle" x="236" y="-230.3" font-family="Times,serif" font-size="14.00" fill="#000000">abstraction</text>
</g>
<!-- root&#45;&gt;r -->
<g id="edge2" class="edge">
<title>root&#45;&gt;r</title>
<path fill="none" stroke="#000000" d="M190.5243,-288.5708C197.8942,-279.7269 206.9801,-268.8239 215.088,-259.0945"/>
<polygon fill="#000000" stroke="#000000" points="217.8963,-261.1916 221.6094,-251.2687 212.5188,-256.7103 217.8963,-261.1916"/>
</g>
<!-- ll -->
<g id="node3" class="node">
<title>ll</title>
<ellipse fill="none" stroke="#000000" cx="27" cy="-162" rx="27" ry="18"/>
<text text-anchor="middle" x="27" y="-158.3" font-family="Times,serif" font-size="14.00" fill="#000000">x</text>
</g>
<!-- l&#45;&gt;ll -->
<g id="edge3" class="edge">
<title>l&#45;&gt;ll</title>
<path fill="none" stroke="#000000" d="M96.126,-217.3008C83.1392,-206.9114 66.3463,-193.4771 52.5642,-182.4514"/>
<polygon fill="#000000" stroke="#000000" points="54.4281,-179.4603 44.4329,-175.9463 50.0552,-184.9264 54.4281,-179.4603"/>
</g>
<!-- lr -->
<g id="node4" class="node">
<title>lr</title>
<ellipse fill="none" stroke="#000000" cx="123" cy="-162" rx="50.8918" ry="18"/>
<text text-anchor="middle" x="123" y="-158.3" font-family="Times,serif" font-size="14.00" fill="#000000">abstraction</text>
</g>
<!-- l&#45;&gt;lr -->
<g id="edge4" class="edge">
<title>l&#45;&gt;lr</title>
<path fill="none" stroke="#000000" d="M118.5141,-215.8314C119.1558,-208.131 119.9188,-198.9743 120.6319,-190.4166"/>
<polygon fill="#000000" stroke="#000000" points="124.1229,-190.6694 121.4656,-180.4133 117.1471,-190.088 124.1229,-190.6694"/>
</g>
<!-- lrl -->
<g id="node5" class="node">
<title>lrl</title>
<ellipse fill="none" stroke="#000000" cx="75" cy="-90" rx="27" ry="18"/>
<text text-anchor="middle" x="75" y="-86.3" font-family="Times,serif" font-size="14.00" fill="#000000">y</text>
</g>
<!-- lr&#45;&gt;lrl -->
<g id="edge5" class="edge">
<title>lr&#45;&gt;lrl</title>
<path fill="none" stroke="#000000" d="M111.1348,-144.2022C105.2684,-135.4025 98.0892,-124.6338 91.6801,-115.0202"/>
<polygon fill="#000000" stroke="#000000" points="94.5298,-112.9849 86.0706,-106.6058 88.7054,-116.8678 94.5298,-112.9849"/>
</g>
<!-- lrr -->
<g id="node6" class="node">
<title>lrr</title>
<ellipse fill="none" stroke="#000000" cx="172" cy="-90" rx="51.9908" ry="18"/>
<text text-anchor="middle" x="172" y="-86.3" font-family="Times,serif" font-size="14.00" fill="#000000">application</text>
</g>
<!-- lr&#45;&gt;lrr -->
<g id="edge6" class="edge">
<title>lr&#45;&gt;lrr</title>
<path fill="none" stroke="#000000" d="M135.1124,-144.2022C140.8681,-135.7448 147.8617,-125.4685 154.2055,-116.147"/>
<polygon fill="#000000" stroke="#000000" points="157.2942,-117.8294 160.027,-107.593 151.5072,-113.891 157.2942,-117.8294"/>
</g>
<!-- lrrl -->
<g id="node7" class="node">
<title>lrrl</title>
<ellipse fill="none" stroke="#000000" cx="136" cy="-18" rx="27" ry="18"/>
<text text-anchor="middle" x="136" y="-14.3" font-family="Times,serif" font-size="14.00" fill="#000000">x</text>
</g>
<!-- lrr&#45;&gt;lrrl -->
<g id="edge7" class="edge">
<title>lrr&#45;&gt;lrrl</title>
<path fill="none" stroke="#000000" d="M163.1011,-72.2022C158.8978,-63.7955 153.7959,-53.5917 149.1575,-44.3149"/>
<polygon fill="#000000" stroke="#000000" points="152.1513,-42.4762 144.5486,-35.0972 145.8903,-45.6068 152.1513,-42.4762"/>
</g>
<!-- lrrr -->
<g id="node8" class="node">
<title>lrrr</title>
<ellipse fill="none" stroke="#000000" cx="208" cy="-18" rx="27" ry="18"/>
<text text-anchor="middle" x="208" y="-14.3" font-family="Times,serif" font-size="14.00" fill="#000000">y</text>
</g>
<!-- lrr&#45;&gt;lrrr -->
<g id="edge8" class="edge">
<title>lrr&#45;&gt;lrrr</title>
<path fill="none" stroke="#000000" d="M180.8989,-72.2022C185.1022,-63.7955 190.2041,-53.5917 194.8425,-44.3149"/>
<polygon fill="#000000" stroke="#000000" points="198.1097,-45.6068 199.4514,-35.0972 191.8487,-42.4762 198.1097,-45.6068"/>
</g>
<!-- rl -->
<g id="node10" class="node">
<title>rl</title>
<ellipse fill="none" stroke="#000000" cx="230" cy="-162" rx="27" ry="18"/>
<text text-anchor="middle" x="230" y="-158.3" font-family="Times,serif" font-size="14.00" fill="#000000">y</text>
</g>
<!-- r&#45;&gt;rl -->
<g id="edge9" class="edge">
<title>r&#45;&gt;rl</title>
<path fill="none" stroke="#000000" d="M234.4859,-215.8314C233.8442,-208.131 233.0812,-198.9743 232.3681,-190.4166"/>
<polygon fill="#000000" stroke="#000000" points="235.8529,-190.088 231.5344,-180.4133 228.8771,-190.6694 235.8529,-190.088"/>
</g>
<!-- rr -->
<g id="node11" class="node">
<title>rr</title>
<ellipse fill="none" stroke="#000000" cx="302" cy="-162" rx="27" ry="18"/>
<text text-anchor="middle" x="302" y="-158.3" font-family="Times,serif" font-size="14.00" fill="#000000">y</text>
</g>
<!-- r&#45;&gt;rr -->
<g id="edge10" class="edge">
<title>r&#45;&gt;rr</title>
<path fill="none" stroke="#000000" d="M251.9768,-216.5708C260.6106,-207.1521 271.3853,-195.3978 280.7214,-185.213"/>
<polygon fill="#000000" stroke="#000000" points="283.3439,-187.5318 287.5211,-177.7951 278.1838,-182.8017 283.3439,-187.5318"/>
</g>
</g>
</svg>
