<?xml version="1.0" encoding="UTF-8" standalone="no"?>
<!DOCTYPE svg PUBLIC "-//W3C//DTD SVG 1.1//EN"
 "http://www.w3.org/Graphics/SVG/1.1/DTD/svg11.dtd">
<!-- Generated by graphviz version 2.40.1 (20161225.0304)
 -->
<!-- Title: redex_ast Pages: 1 -->
<svg width="491pt" height="404pt"
 viewBox="0.00 0.00 491.00 404.00" xmlns="http://www.w3.org/2000/svg" xmlns:xlink="http://www.w3.org/1999/xlink">
<g id="graph0" class="graph" transform="scale(1 1) rotate(0) translate(4 400)">
<title>redex_ast</title>
<polygon fill="#ffffff" stroke="transparent" points="-4,4 -4,-400 487,-400 487,4 -4,4"/>
<!-- l1 -->
<g id="node1" class="node">
<title>l1</title>
<text text-anchor="middle" x="218" y="-374.3" font-family="Times,serif" font-size="14.00" fill="#000000">not a redex</text>
</g>
<!-- root -->
<g id="node4" class="node">
<title>root</title>
<ellipse fill="none" stroke="#000000" cx="218" cy="-306" rx="51.9908" ry="18"/>
<text text-anchor="middle" x="218" y="-302.3" font-family="Times,serif" font-size="14.00" fill="#000000">application</text>
</g>
<!-- l1&#45;&gt;root -->
<g id="edge15" class="edge">
<title>l1&#45;&gt;root</title>
<path fill="none" stroke="#000000" d="M218,-359.8314C218,-352.131 218,-342.9743 218,-334.4166"/>
<polygon fill="#000000" stroke="#000000" points="221.5001,-334.4132 218,-324.4133 214.5001,-334.4133 221.5001,-334.4132"/>
</g>
<!-- l2 -->
<g id="node2" class="node">
<title>l2</title>
<text text-anchor="middle" x="74" y="-302.3" font-family="Times,serif" font-size="14.00" fill="#000000">left&#45;most of outer&#45;most</text>
</g>
<!-- l -->
<g id="node5" class="node">
<title>l</title>
<ellipse fill="none" stroke="#000000" cx="85" cy="-234" rx="51.9908" ry="18"/>
<text text-anchor="middle" x="85" y="-230.3" font-family="Times,serif" font-size="14.00" fill="#000000">application</text>
</g>
<!-- l2&#45;&gt;l -->
<g id="edge16" class="edge">
<title>l2&#45;&gt;l</title>
<path fill="none" stroke="#000000" d="M76.7758,-287.8314C77.9522,-280.131 79.3511,-270.9743 80.6586,-262.4166"/>
<polygon fill="#000000" stroke="#000000" points="84.1364,-262.8272 82.1869,-252.4133 77.2167,-261.7699 84.1364,-262.8272"/>
</g>
<!-- l3 -->
<g id="node3" class="node">
<title>l3</title>
<text text-anchor="middle" x="378" y="-302.3" font-family="Times,serif" font-size="14.00" fill="#000000">outer&#45;most, but not left&#45;most</text>
</g>
<!-- r -->
<g id="node6" class="node">
<title>r</title>
<ellipse fill="none" stroke="#000000" cx="252" cy="-234" rx="51.9908" ry="18"/>
<text text-anchor="middle" x="252" y="-230.3" font-family="Times,serif" font-size="14.00" fill="#000000">application</text>
</g>
<!-- l3&#45;&gt;r -->
<g id="edge17" class="edge">
<title>l3&#45;&gt;r</title>
<path fill="none" stroke="#000000" d="M346.2049,-287.8314C328.4119,-277.664 306.1762,-264.9578 287.7764,-254.4437"/>
<polygon fill="#000000" stroke="#000000" points="289.5071,-251.4016 279.0882,-249.479 286.0341,-257.4793 289.5071,-251.4016"/>
</g>
<!-- root&#45;&gt;l -->
<g id="edge1" class="edge">
<title>root&#45;&gt;l</title>
<path fill="none" stroke="#000000" d="M189.7941,-290.7307C170.0449,-280.0393 143.4602,-265.6476 122.0093,-254.0351"/>
<polygon fill="#000000" stroke="#000000" points="123.6256,-250.9302 113.1652,-249.2473 120.293,-257.086 123.6256,-250.9302"/>
</g>
<!-- root&#45;&gt;r -->
<g id="edge2" class="edge">
<title>root&#45;&gt;r</title>
<path fill="none" stroke="#000000" d="M226.4045,-288.2022C230.2868,-279.981 234.9806,-270.041 239.283,-260.9301"/>
<polygon fill="#000000" stroke="#000000" points="242.4691,-262.3796 243.5744,-251.8425 236.1394,-259.3905 242.4691,-262.3796"/>
</g>
<!-- ll -->
<g id="node8" class="node">
<title>ll</title>
<ellipse fill="none" stroke="#000000" cx="51" cy="-162" rx="50.8918" ry="18"/>
<text text-anchor="middle" x="51" y="-158.3" font-family="Times,serif" font-size="14.00" fill="#000000">abstraction</text>
</g>
<!-- l&#45;&gt;ll -->
<g id="edge3" class="edge">
<title>l&#45;&gt;ll</title>
<path fill="none" stroke="#000000" d="M76.5955,-216.2022C72.7132,-207.981 68.0194,-198.041 63.717,-188.9301"/>
<polygon fill="#000000" stroke="#000000" points="66.8606,-187.3905 59.4256,-179.8425 60.5309,-190.3796 66.8606,-187.3905"/>
</g>
<!-- lr -->
<g id="node11" class="node">
<title>lr</title>
<text text-anchor="middle" x="147" y="-158.3" font-family="Times,serif" font-size="14.00" fill="#000000">...</text>
</g>
<!-- l&#45;&gt;lr -->
<g id="edge4" class="edge">
<title>l&#45;&gt;lr</title>
<path fill="none" stroke="#000000" d="M100.0085,-216.5708C107.4561,-207.922 116.5994,-197.3039 124.835,-187.74"/>
<polygon fill="#000000" stroke="#000000" points="127.6092,-189.8821 131.4823,-180.0206 122.3048,-185.3145 127.6092,-189.8821"/>
</g>
<!-- rl -->
<g id="node9" class="node">
<title>rl</title>
<ellipse fill="none" stroke="#000000" cx="252" cy="-162" rx="50.8918" ry="18"/>
<text text-anchor="middle" x="252" y="-158.3" font-family="Times,serif" font-size="14.00" fill="#000000">abstraction</text>
</g>
<!-- r&#45;&gt;rl -->
<g id="edge7" class="edge">
<title>r&#45;&gt;rl</title>
<path fill="none" stroke="#000000" d="M252,-215.8314C252,-208.131 252,-198.9743 252,-190.4166"/>
<polygon fill="#000000" stroke="#000000" points="255.5001,-190.4132 252,-180.4133 248.5001,-190.4133 255.5001,-190.4132"/>
</g>
<!-- rr -->
<g id="node10" class="node">
<title>rr</title>
<ellipse fill="none" stroke="#000000" cx="373" cy="-162" rx="51.9908" ry="18"/>
<text text-anchor="middle" x="373" y="-158.3" font-family="Times,serif" font-size="14.00" fill="#000000">application</text>
</g>
<!-- r&#45;&gt;rr -->
<g id="edge8" class="edge">
<title>r&#45;&gt;rr</title>
<path fill="none" stroke="#000000" d="M278.2552,-218.3771C295.7761,-207.9514 319.0106,-194.1259 338.0855,-182.7756"/>
<polygon fill="#000000" stroke="#000000" points="339.9921,-185.7139 346.796,-177.5924 336.4126,-179.6983 339.9921,-185.7139"/>
</g>
<!-- l4 -->
<g id="node7" class="node">
<title>l4</title>
<text text-anchor="middle" x="373" y="-230.3" font-family="Times,serif" font-size="14.00" fill="#000000">not outer&#45;most</text>
</g>
<!-- l4&#45;&gt;rr -->
<g id="edge18" class="edge">
<title>l4&#45;&gt;rr</title>
<path fill="none" stroke="#000000" d="M373,-215.8314C373,-208.131 373,-198.9743 373,-190.4166"/>
<polygon fill="#000000" stroke="#000000" points="376.5001,-190.4132 373,-180.4133 369.5001,-190.4133 376.5001,-190.4132"/>
</g>
<!-- lll -->
<g id="node16" class="node">
<title>lll</title>
<text text-anchor="middle" x="39" y="-86.3" font-family="Times,serif" font-size="14.00" fill="#000000">...</text>
</g>
<!-- ll&#45;&gt;lll -->
<g id="edge5" class="edge">
<title>ll&#45;&gt;lll</title>
<path fill="none" stroke="#000000" d="M47.9719,-143.8314C46.6885,-136.131 45.1624,-126.9743 43.7361,-118.4166"/>
<polygon fill="#000000" stroke="#000000" points="47.1653,-117.7018 42.0689,-108.4133 40.2606,-118.8526 47.1653,-117.7018"/>
</g>
<!-- llr -->
<g id="node17" class="node">
<title>llr</title>
<text text-anchor="middle" x="111" y="-86.3" font-family="Times,serif" font-size="14.00" fill="#000000">...</text>
</g>
<!-- ll&#45;&gt;llr -->
<g id="edge6" class="edge">
<title>ll&#45;&gt;llr</title>
<path fill="none" stroke="#000000" d="M65.5243,-144.5708C72.7317,-135.922 81.5801,-125.3039 89.55,-115.74"/>
<polygon fill="#000000" stroke="#000000" points="92.2697,-117.9435 95.9828,-108.0206 86.8922,-113.4622 92.2697,-117.9435"/>
</g>
<!-- rll -->
<g id="node12" class="node">
<title>rll</title>
<text text-anchor="middle" x="189" y="-86.3" font-family="Times,serif" font-size="14.00" fill="#000000">...</text>
</g>
<!-- rl&#45;&gt;rll -->
<g id="edge9" class="edge">
<title>rl&#45;&gt;rll</title>
<path fill="none" stroke="#000000" d="M236.7495,-144.5708C229.1817,-135.922 219.8909,-125.3039 211.5225,-115.74"/>
<polygon fill="#000000" stroke="#000000" points="213.9871,-113.2416 204.768,-108.0206 208.7191,-117.8512 213.9871,-113.2416"/>
</g>
<!-- rlr -->
<g id="node13" class="node">
<title>rlr</title>
<text text-anchor="middle" x="261" y="-86.3" font-family="Times,serif" font-size="14.00" fill="#000000">...</text>
</g>
<!-- rl&#45;&gt;rlr -->
<g id="edge10" class="edge">
<title>rl&#45;&gt;rlr</title>
<path fill="none" stroke="#000000" d="M254.2711,-143.8314C255.2336,-136.131 256.3782,-126.9743 257.4479,-118.4166"/>
<polygon fill="#000000" stroke="#000000" points="260.9309,-118.7702 258.6983,-108.4133 253.9849,-117.9019 260.9309,-118.7702"/>
</g>
<!-- rrl -->
<g id="node14" class="node">
<title>rrl</title>
<ellipse fill="none" stroke="#000000" cx="360" cy="-90" rx="50.8918" ry="18"/>
<text text-anchor="middle" x="360" y="-86.3" font-family="Times,serif" font-size="14.00" fill="#000000">abstraction</text>
</g>
<!-- rr&#45;&gt;rrl -->
<g id="edge11" class="edge">
<title>rr&#45;&gt;rrl</title>
<path fill="none" stroke="#000000" d="M369.7196,-143.8314C368.3292,-136.131 366.6759,-126.9743 365.1308,-118.4166"/>
<polygon fill="#000000" stroke="#000000" points="368.5458,-117.6322 363.3246,-108.4133 361.6572,-118.8761 368.5458,-117.6322"/>
</g>
<!-- rrr -->
<g id="node15" class="node">
<title>rrr</title>
<text text-anchor="middle" x="456" y="-86.3" font-family="Times,serif" font-size="14.00" fill="#000000">...</text>
</g>
<!-- rr&#45;&gt;rrr -->
<g id="edge12" class="edge">
<title>rr&#45;&gt;rrr</title>
<path fill="none" stroke="#000000" d="M392.6698,-144.937C403.0304,-135.9495 415.9287,-124.7607 427.3761,-114.8304"/>
<polygon fill="#000000" stroke="#000000" points="429.76,-117.3958 435.0204,-108.1992 425.173,-112.1081 429.76,-117.3958"/>
</g>
<!-- rrll -->
<g id="node18" class="node">
<title>rrll</title>
<text text-anchor="middle" x="324" y="-14.3" font-family="Times,serif" font-size="14.00" fill="#000000">...</text>
</g>
<!-- rrl&#45;&gt;rrll -->
<g id="edge13" class="edge">
<title>rrl&#45;&gt;rrll</title>
<path fill="none" stroke="#000000" d="M351.1011,-72.2022C347.0214,-64.0428 342.0952,-54.1904 337.5679,-45.1358"/>
<polygon fill="#000000" stroke="#000000" points="340.6492,-43.4721 333.0466,-36.0931 334.3883,-46.6027 340.6492,-43.4721"/>
</g>
<!-- rrlr -->
<g id="node19" class="node">
<title>rrlr</title>
<text text-anchor="middle" x="396" y="-14.3" font-family="Times,serif" font-size="14.00" fill="#000000">...</text>
</g>
<!-- rrl&#45;&gt;rrlr -->
<g id="edge14" class="edge">
<title>rrl&#45;&gt;rrlr</title>
<path fill="none" stroke="#000000" d="M368.8989,-72.2022C372.9786,-64.0428 377.9048,-54.1904 382.4321,-45.1358"/>
<polygon fill="#000000" stroke="#000000" points="385.6117,-46.6027 386.9534,-36.0931 379.3508,-43.4721 385.6117,-46.6027"/>
</g>
</g>
</svg>
