<svg xmlns="http://www.w3.org/2000/svg" viewBox="0 0 167.48 38.36"><defs><style>.cls-1{fill:#494d50;}.cls-2{fill:#75c636;}</style></defs><title>CanAmLogo</title><g id="Layer_2" data-name="Layer 2"><g id="Website"><g id="CanAmLogo"><path class="cls-1" d="M68.53,19.75a11.4,11.4,0,0,1-7.53,3c-5.42,0-9.44-3.51-9.44-9.42s4-9.47,9.44-9.47c4.72,0,7.39,2.64,7.5,6.93L65,11.49C65,8.93,63.67,7.34,61,7.34c-3.24,0-5.48,2.16-5.48,6s2.24,5.91,5.61,5.91a8.59,8.59,0,0,0,5.66-2.29Z"/><polygon class="cls-1" points="82.02 4.1 77.6 4.1 70.29 22.45 74.12 22.45 79.81 7.85 82.94 15.97 76.65 18.78 83.88 18.78 85.28 22.45 89.11 22.45 82.02 4.1"/><polygon class="cls-1" points="136.68 4.1 132.25 4.1 124.94 22.45 128.77 22.45 134.47 7.85 137.6 15.97 131.31 18.78 138.54 18.78 139.94 22.45 143.77 22.45 136.68 4.1"/><polygon class="cls-1" points="96 10.12 96 22.45 92.22 22.45 92.22 4.1 95.51 4.1 105.81 16.46 105.81 4.1 109.59 4.1 109.59 22.45 106.3 22.45 96 10.12"/><polygon class="cls-1" points="122.14 4.1 125.37 4.1 125.37 4.37 115.99 22.45 112.72 22.45 112.72 22.15 122.14 4.1"/><polygon class="cls-1" points="163.6 10.06 157.45 17.45 156.78 17.45 150.65 10.06 150.65 22.45 146.88 22.45 146.88 4.1 150.28 4.1 157.13 12.28 163.98 4.1 167.38 4.1 167.38 22.45 163.6 22.45 163.6 10.06"/><polygon class="cls-1" points="56.81 30.61 56.81 38.09 54.87 38.09 54.87 30.61 51.76 30.61 51.76 28.67 59.8 28.67 59.8 30.61 56.81 30.61"/><polygon class="cls-1" points="61.58 38.09 61.58 28.67 69.04 28.67 69.04 30.37 63.44 30.37 63.44 32.41 68.03 32.41 68.03 34.12 63.44 34.12 63.44 36.39 69.04 36.39 69.04 38.09 61.58 38.09"/><path class="cls-1" d="M79.28,36.71a5.85,5.85,0,0,1-3.87,1.53,4.57,4.57,0,0,1-4.85-4.84,4.58,4.58,0,0,1,4.85-4.87c2.43,0,3.8,1.36,3.85,3.56l-1.79.37a1.92,1.92,0,0,0-2.09-2.14,2.74,2.74,0,0,0-2.81,3.06,2.74,2.74,0,0,0,2.88,3,4.41,4.41,0,0,0,2.91-1.18Z"/><polygon class="cls-1" points="88.39 34.18 83.33 34.18 83.33 38.09 81.39 38.09 81.39 28.67 83.33 28.67 83.33 32.49 88.39 32.49 88.39 28.67 90.33 28.67 90.33 38.09 88.39 38.09 88.39 34.18"/><polygon class="cls-1" points="95.01 31.76 95.01 38.09 93.07 38.09 93.07 28.67 94.76 28.67 100.06 35.02 100.06 28.67 102 28.67 102 38.09 100.31 38.09 95.01 31.76"/><path class="cls-1" d="M109,28.53a4.85,4.85,0,1,1-4.84,4.87A4.75,4.75,0,0,1,109,28.53Zm0,7.89a3,3,0,1,0-2.94-3A2.89,2.89,0,0,0,109,36.42Z"/><polygon class="cls-1" points="116.02 38.09 116.02 28.67 117.97 28.67 117.97 36.4 122.86 36.4 122.86 38.09 116.02 38.09"/><path class="cls-1" d="M128.57,28.53a4.85,4.85,0,1,1-4.84,4.87A4.75,4.75,0,0,1,128.57,28.53Zm0,7.89a3,3,0,1,0-2.94-3A2.89,2.89,0,0,0,128.58,36.42Z"/><path class="cls-1" d="M144.07,32.52v4.42a7.26,7.26,0,0,1-4,1.29,4.86,4.86,0,1,1,0-9.71,5.65,5.65,0,0,1,3.66,1.28l-.9,1.48a4.08,4.08,0,0,0-2.72-1,3.05,3.05,0,1,0,.08,6.1,3.87,3.87,0,0,0,2-.5V34.2h-2.48V32.52Z"/><rect class="cls-1" x="146.39" y="28.67" width="1.94" height="9.43"/><polygon class="cls-1" points="151.08 38.09 151.08 28.67 158.54 28.67 158.54 30.37 152.94 30.37 152.94 32.41 157.53 32.41 157.53 34.12 152.94 34.12 152.94 36.39 158.54 36.39 158.54 38.09 151.08 38.09"/><path class="cls-1" d="M162.32,33.92a2.51,2.51,0,0,1-2.16-2.52c0-1.57,1.18-2.86,3.77-2.86a7.75,7.75,0,0,1,3.38.75l-.55,1.82a5.92,5.92,0,0,0-2.9-.79c-1.19,0-1.69.38-1.69.92s.35.72,1,.91l1.75.5c1.7.48,2.54,1.26,2.54,2.61,0,1.77-1.57,3-3.84,3a7.51,7.51,0,0,1-3.33-.82l.46-1.84a5.6,5.6,0,0,0,2.91.89c1.14,0,1.77-.43,1.77-1.05s-.5-.76-1.34-1Z"/><path class="cls-2" d="M38.33,3a3,3,0,0,0-3-3H25.9L21.82,4.08h3L0,30.06v1.06l28.28-27h3a3,3,0,0,1,1,.2L.64,37.19a3.3,3.3,0,0,0,.25.3,3.32,3.32,0,0,0,.3.25L34.08,6a2.94,2.94,0,0,1,.19,1v3.07l-27,28.22H8.34L34.28,13.53v3l4.08-4.08Z"/><path class="cls-2" d="M0,7.06V25.9L21.82,4.08H3A3,3,0,0,0,0,7.06Z"/><path class="cls-2" d="M31.3,38.36a3,3,0,0,0,3-3V16.54L12.46,38.36Z"/></g></g></g></svg>
