<svg xmlns="http://www.w3.org/2000/svg" viewBox="0 0 38.36 38.36"><defs><style>.cls-1{fill:#494d50;}.cls-2{fill:#75c636;}</style></defs><title>CanAmLogo</title><g id="Layer_2" data-name="Layer 2"><g id="Website"><g id="CanAmLogo"><path class="cls-2" d="M38.33,3a3,3,0,0,0-3-3H25.9L21.82,4.08h3L0,30.06v1.06l28.28-27h3a3,3,0,0,1,1,.2L.64,37.19a3.3,3.3,0,0,0,.25.3,3.32,3.32,0,0,0,.3.25L34.08,6a2.94,2.94,0,0,1,.19,1v3.07l-27,28.22H8.34L34.28,13.53v3l4.08-4.08Z"></path><path class="cls-2" d="M0,7.06V25.9L21.82,4.08H3A3,3,0,0,0,0,7.06Z"></path><path class="cls-2" d="M31.3,38.36a3,3,0,0,0,3-3V16.54L12.46,38.36Z"></path></g></g></g></svg>
